<?xml version="1.0" encoding="UTF-8"?><svg id="Layer_1" xmlns="http://www.w3.org/2000/svg" viewBox="0 0 32 32"><path d="M4.67,2c2.33,0,4.57,.3,6.72,.9,2.15,.6,4.17,1.46,6.05,2.56,1.88,1.1,3.59,2.43,5.13,3.97,1.54,1.54,2.86,3.25,3.97,5.13,1.1,1.88,1.96,3.9,2.56,6.05,.6,2.15,.9,4.4,.9,6.72,0,.74-.26,1.36-.78,1.88-.52,.52-1.15,.78-1.88,.78s-1.36-.26-1.88-.78c-.52-.52-.78-1.15-.78-1.88,0-1.84-.24-3.61-.72-5.32-.48-1.71-1.15-3.3-2.02-4.78-.87-1.48-1.91-2.83-3.12-4.04-1.22-1.22-2.56-2.26-4.04-3.12-1.48-.87-3.07-1.54-4.78-2.02-1.71-.48-3.48-.72-5.32-.72-.74,0-1.36-.26-1.88-.78-.52-.52-.78-1.15-.78-1.88s.26-1.36,.78-1.88c.52-.52,1.15-.78,1.88-.78Zm0,10.08c2.1,0,4.08,.4,5.93,1.21s3.46,1.9,4.84,3.28c1.38,1.38,2.47,2.99,3.28,4.84,.81,1.85,1.21,3.82,1.21,5.93,0,.74-.26,1.36-.78,1.88-.52,.52-1.15,.78-1.88,.78s-1.36-.26-1.88-.78c-.52-.52-.78-1.15-.78-1.88,0-1.37-.26-2.66-.78-3.86-.52-1.2-1.23-2.26-2.13-3.16-.9-.9-1.95-1.61-3.16-2.13-1.2-.52-2.49-.78-3.86-.78-.74,0-1.36-.26-1.88-.78-.52-.52-.78-1.15-.78-1.88s.26-1.36,.78-1.88c.52-.52,1.15-.78,1.88-.78Zm4.9,14c0,.53-.1,1.02-.29,1.47-.19,.45-.46,.84-.8,1.18-.34,.34-.74,.6-1.19,.8-.46,.19-.94,.29-1.46,.29s-1.02-.1-1.47-.29c-.45-.19-.84-.46-1.18-.8-.34-.34-.6-.73-.8-1.18s-.29-.94-.29-1.47,.1-1,.29-1.45c.19-.46,.46-.86,.8-1.19,.34-.34,.73-.6,1.18-.8,.45-.19,.94-.29,1.47-.29s1,.1,1.46,.29c.46,.19,.86,.46,1.19,.8,.34,.34,.6,.74,.8,1.19,.19,.46,.29,.94,.29,1.45Z" style="fill:#fff;"/></svg>