<?xml version="1.0" encoding="UTF-8"?><svg id="Layer_1" xmlns="http://www.w3.org/2000/svg" viewBox="0 0 32 32"><path d="M16,2c-.15,0-.29,0-.43,0-1.41,.04-2.78,.3-4.06,.73-.22,.07-.43,.15-.64,.24-.07,.03-.13,.05-.2,.08-.15,.06-.29,.12-.43,.18-.21,.09-.41,.19-.61,.3-.2,.1-.4,.21-.6,.32-.79,.45-1.53,.98-2.21,1.57-.08,.07-.16,.14-.24,.21-.17,.15-.33,.31-.49,.46-.16,.16-.31,.32-.46,.48-.23,.25-.44,.51-.65,.77-.42,.53-.79,1.09-1.13,1.68-.11,.2-.22,.39-.32,.59-.05,.1-.1,.2-.15,.3-.15,.31-.29,.62-.41,.94-.04,.11-.08,.21-.12,.32-.16,.43-.29,.87-.41,1.31-.06,.22-.11,.45-.16,.68h0c-.05,.23-.09,.46-.12,.69-.04,.23-.06,.47-.09,.7-.05,.47-.07,.95-.07,1.43s.03,.96,.07,1.43c.02,.24,.05,.47,.09,.7,.04,.23,.08,.46,.12,.69,.05,.23,.1,.45,.16,.68,.12,.45,.25,.89,.41,1.31,.08,.21,.16,.43,.25,.63,.09,.21,.18,.42,.28,.62,.05,.1,.1,.21,.15,.31,.1,.2,.21,.4,.32,.59,.34,.59,.71,1.15,1.13,1.68,.21,.26,.43,.52,.65,.77,.15,.17,.31,.33,.46,.48,.16,.16,.32,.31,.49,.46,.75,.68,1.56,1.28,2.44,1.78,.2,.11,.39,.22,.6,.32,.4,.21,.81,.39,1.24,.56,.21,.08,.43,.16,.64,.24,1.41,.48,2.92,.74,4.49,.74,1.07,0,2.11-.12,3.12-.35,.47-.11,.92-.24,1.37-.39,.22-.07,.43-.15,.64-.24,.42-.17,.84-.35,1.24-.56,.2-.1,.4-.21,.59-.32,.88-.51,1.7-1.11,2.45-1.78,.17-.15,.33-.31,.48-.46,.16-.16,.31-.32,.46-.48,.23-.25,.44-.51,.65-.77,.33-.42,.63-.86,.91-1.31,.07-.12,.15-.24,.22-.37,.11-.2,.22-.39,.32-.59,.05-.1,.1-.2,.15-.31,.1-.2,.19-.41,.28-.62,.09-.21,.17-.42,.25-.63,.16-.43,.29-.87,.41-1.31,.06-.22,.11-.45,.16-.68,.05-.23,.09-.46,.13-.69,.04-.23,.06-.47,.09-.7,.05-.47,.07-.95,.07-1.43s-.03-.96-.07-1.43c-.02-.24-.05-.47-.09-.7-.04-.23-.08-.46-.13-.69-.05-.23-.1-.46-.16-.68-.12-.45-.25-.89-.41-1.31-.04-.11-.08-.21-.12-.32-.13-.32-.26-.63-.41-.93-.05-.1-.1-.2-.15-.3-.1-.2-.21-.4-.32-.6-.34-.59-.72-1.15-1.13-1.68-.21-.26-.43-.52-.65-.77-.15-.17-.31-.33-.46-.48-.16-.16-.32-.31-.48-.46-.32-.29-.66-.57-1-.83-.46-.35-.94-.66-1.44-.95-.2-.11-.39-.22-.59-.32-.09-.05-.18-.09-.28-.14-.11-.05-.23-.11-.34-.16-.05-.02-.1-.04-.14-.06-.16-.07-.32-.14-.48-.21,0,0,0,0,0,0-.17-.07-.35-.13-.53-.2-.04-.01-.07-.03-.11-.04-.41-.14-.84-.26-1.27-.36-.13-.03-.27-.06-.4-.09-.1-.02-.2-.04-.3-.06-.74-.13-1.49-.21-2.26-.22-.09,0-.17,0-.26,0Zm0,.75c.91,0,1.79,.09,2.65,.26-.04,.09-.15,.05-.25,.1-.09,.04-.13,.13-.23,.15-.27,.05-.5-.07-.74-.06-.01,.1,.11,.16,.18,.2,.21,.11,.39,.1,.69,.09,.16,0,.33,.05,.47-.05,.08-.06,.08-.19,.15-.26,.03-.03,.07-.06,.12-.08,.15,.04,.3,.07,.44,.11-.02,.1-.19,.08-.19,.21,.1,.06,.35-.03,.44-.14,.04,.01,.07,.02,.11,.03,.21,.06,.42,.13,.63,.21,.3,.11,.59,.23,.87,.35-.05,.03-.12,.07-.16,.07-.12,0-.18-.17-.31-.1-.01,.16,.17,.23,.29,.3,.12,.08,.26,.16,.3,.3-.12,.26-.32-.01-.51-.01-.21,0-.52,.4-.7,.07,.05-.18,.24-.2,.29-.38-.04,0-.08,.02-.12,.04-.07,.03-.14,.07-.22,.1-.1,.05-.2,.1-.31,.13-.1,.02-.21,.02-.3,.05-.18,.05-.31,.18-.5,.25-.07,.03-.16,.02-.24,.05-.18,.06-.4,.17-.59,.27-.19,.1-.41,.21-.53,.31-.06,.06-.23,.25-.23,.31,0,.09,.18,.12,.18,.21,0,.06-.1,.17-.03,.25,.06,.07,.19,.02,.32,.03,.23,.03,.38,.22,.56,.31,.13,.07,.33,.16,.48,.18,.21,.03,.44-.06,.47,.1,.03,.16-.2,.21-.21,.31,.11,.15-.07,.22-.07,.35,0,.1,.13,.26,.24,.27,.15,.01,.37-.15,.44-.3,.07-.18,.04-.43,.18-.56,.7,.02,1.29-.32,1.25-1.04,0-.07-.05-.16-.03-.24,.02-.12,.22-.21,.2-.36,.08-.02,.12-.08,.16-.15,.06-.1,.1-.22,.21-.26,0,0,.01,0,.02,0,.06-.01,.13,0,.2,.02,.12,.04,.25,.1,.39,.09,.07,0,.17-.07,.24-.06,.15,.02,.23,.2,.35,.28,.1,.07,.2,.05,.23,.15-.03,.17-.15,.17-.14,.33h0c.01,.14,.16,.25,.23,.26,.11,.02,.27-.04,.38-.09,.12-.06,.22-.18,.33-.26,.15,.11,.29,.23,.44,.35,.02,.07,.03,.13,.03,.17,.02,.16-.02,.29-.01,.44,.02,.25,.34,.23,.49,.36,.05,.04,.07,.14,.1,.2,.08,.1,.17,.1,.18,.21,.03,.26-.23,.28-.21,.57-.05,.11-.19,.11-.18,.26,.02,.24,.36,.06,.45,.24,.05,.1,0,.17-.05,.31,.12,.14,.12,.36-.09,.36-.13,0-.16-.13-.29-.16-.07-.02-.17-.02-.26-.03-.08-.01-.17-.04-.24-.05-.19-.02-.39,.03-.49-.07,.18-.24,.41-.47,.64-.68,.07-.06,.22-.1,.18-.23-.13-.11-.28,0-.4,.08-.13,.07-.28,.17-.42,.2-.25,.04-.58-.07-.78,.06-.03,.11,.23,.07,.2,.24-.1,.02-.19,.02-.27-.05-.07-.06-.03-.16-.08-.2-.08-.06-.37-.08-.49-.06-.16,.03-.3,.12-.32,.25,.19,.09,.5-.09,.57,.14-.1,.19-.35,.29-.31,.54,.01,.1,.13,.23,.21,.24,.08,.01,.13-.07,.21-.06,.09,0,.07,.1,.17,.09,.14-.06,.22-.26,.39-.25,.2,.24-.18,.36-.39,.44-.24,.09-.56,.14-.74,.21-.1,.04-.46,.39-.51,.12-.04-.2,.18-.14,.22-.3-.23-.05-.45,.1-.66,.18-.3,.11-.82,.18-.89,.52-.01,.07,.03,.2-.02,.24-.04,.04-.25,.04-.35,.08-.15,.05-.27,.15-.36,.18-.07,.02-.17,.01-.21,.03-.12,.05-.16,.21-.3,.31-.06,.04-.18,.08-.23,.12-.08,.08-.09,.27-.23,.3-.09,0-.16-.06-.24-.01-.01,.19,.07,.45-.01,.64-.18,.15-.38,.25-.6,.37-.13,.07-.24,.09-.39,.17-.11,.05-.21,.18-.33,.25-.29,.17-.63,.37-.63,.79,0,.09,.05,.2,.06,.3,0,.06,0,.13,0,.2,.02,.16,.13,.36,0,.46-.2-.08-.46-.11-.6-.25-.04-.15,.08-.27,.06-.4-.01-.11-.17-.3-.26-.32-.09-.01-.17,.08-.27,.08-.11,0-.22-.16-.36-.18-.21-.02-.37,.05-.6,.01-.23,.12-.29,.34-.57,.32-.1,0-.19-.08-.3-.1-.12-.03-.31-.07-.44-.06-.26,.02-.44,.2-.66,.32-.19,.1-.47,.23-.53,.44-.03,.11,0,.27-.05,.37-.03,.07-.08,.13-.12,.2-.17,.31-.31,.71-.18,1.16,.02,.07,.19,.44,.25,.51,.08,.08,.31,.21,.44,.21,.11,0,.24-.06,.35-.08,.12-.02,.28-.02,.39-.06,.33-.1,.26-.54,.59-.69,.14-.06,.31-.08,.56-.09,.08,.07,.12,.18,.1,.29,0,.08-.08,.15-.12,.25-.03,.1-.04,.21-.07,.29-.04,.1-.15,.18-.18,.27-.02,.06,0,.14-.03,.2-.03,.1-.17,.17-.11,.27,.32,.13,.71-.03,.99,.02,.12,.02,.36,.16,.36,.35,0,.14-.11,.22-.12,.37-.02,.19-.1,.42-.1,.57-.01,.25,.37,.68,.63,.68,.29,0,.45-.28,.8-.14,.11,.05,.24,.24,.36,.23,.1,0,.26-.19,.33-.32,.08-.15,.09-.28,.24-.36,.16-.08,.29-.05,.5-.12,.09-.03,.17-.09,.25-.15,.07-.05,.15-.18,.24-.09,.12,.12-.15,.19-.05,.32,.21,.11,.32-.2,.47-.21,.05,0,.21,.09,.3,.15,.12,.08,.16,.18,.29,.21,.08,.02,.22-.03,.33-.01,.15,.02,.25,.15,.36,.15,.14,0,.21-.16,.33-.18,.27-.05,.36,.03,.48,.2,.13,.02,.13-.15,.25-.09-.07,.13,.02,.19,.08,.3,.03,.07,.03,.12,.06,.15,.07,.07,.21,.07,.32,.14,.11,.07,.17,.2,.3,.35,.13,.15,.35,.31,.53,.32,.17,.01,.3-.05,.44-.03,.31,.04,.5,.19,.72,.36,.12,.09,.23,.16,.27,.27,.03,.08,.01,.18,.05,.27,.07,.19,.34,.28,.24,.6,.05,.09,.15,.13,.25,.2,.09,.05,.16,.16,.26,.18,.06,.01,.13-.02,.18-.01,.17,.01,.29,.08,.44,.14,.09,.04,.21,.05,.27,.09,.08,.05,.09,.22,.18,.27,.06,.03,.2-.01,.3,0,.16,.02,.38,.12,.53,.12,.09,0,.16-.04,.24-.03,.18,.01,.33,.13,.47,.26-1.81,2.92-4.73,5.09-8.16,5.92-.01-.13-.05-.27-.06-.4-.01-.29,.03-.49-.01-.75-.03-.2-.08-.51-.15-.63-.08-.14-.39-.37-.55-.46-.11-.06-.23-.08-.35-.14-.24-.12-.72-.37-.83-.62-.03-.07-.03-.16-.06-.24-.07-.15-.2-.29-.3-.44-.19-.28-.34-.64-.53-.93-.1-.15-.18-.32-.29-.44-.06-.07-.26-.14-.29-.24-.03-.14-.14-.33-.12-.44,.02-.14,.3-.26,.3-.39,0-.11-.15-.18-.18-.27-.08-.23,.04-.36,.13-.55,.03-.06,.06-.17,.09-.21,.06-.08,.17-.11,.24-.2,.04-.05,.07-.15,.12-.22,.11-.15,.3-.21,.35-.35,.04-.11,.06-.67,.02-.86-.03-.11-.13-.2-.17-.3-.07-.18-.08-.38-.27-.38-.12,0-.2,.13-.27,.21-.02,.11-.01,.22-.12,.25-.17,.05-.24-.18-.44-.24-.08-.02-.2-.02-.25-.05-.15-.07-.19-.28-.35-.36-.13-.07-.24-.04-.32-.15-.03-.07,0-.21-.02-.3-.16-.1-.3-.46-.49-.54-.13-.06-.32-.05-.48-.1-.07-.03-.13-.06-.21-.07-.1-.02-.19-.03-.27-.06-.3-.15-.46-.62-.83-.61-.16,0-.31,.15-.45,.15-.14,0-.38-.11-.56-.2-.18-.09-.39-.13-.54-.21-.12-.06-.21-.18-.32-.23-.08-.04-.2-.04-.27-.07-.1-.05-.2-.14-.32-.23-.11-.08-.24-.2-.24-.3,0-.12,.11-.22,.12-.33,.04-.36-.23-.61-.39-.83-.12-.16-.27-.29-.39-.44,0-.1,0-.11,0-.21-.09-.09-.17-.23-.27-.36-.09-.12-.26-.25-.28-.39-.03-.17,.06-.31,0-.48-.11-.27-.49-.15-.44,.21,.01,.1,.15,.23,.2,.33,.04,.1,.04,.22,.08,.35,.04,.12,.15,.21,.2,.35,.06,.21,.06,.43,.12,.55,.05,.11,.24,.22,.13,.36-.14,.03-.19-.11-.28-.2-.05-.05-.23-.13-.26-.24-.02-.09,.06-.21,.03-.32-.05-.21-.48-.22-.48-.44,0-.14,.18-.15,.18-.29,0-.14-.2-.27-.24-.39-.04-.11-.04-.29-.06-.45-.01-.15,0-.32-.03-.44-.03-.1-.19-.24-.29-.3-.13-.07-.24-.04-.3-.15-.06-.09-.09-.29-.1-.39-.02-.18,0-.38-.02-.57-.01-.19-.03-.38,0-.59,.07-.15,.21-.22,.29-.36,.05-.1,.06-.22,.12-.33,.11-.2,.35-.37,.51-.57,.17-.21,.33-.41,.44-.65,.04-.08,.13-.27,.12-.37-.02-.14-.29-.26-.27-.44,.01-.11,.16-.11,.21-.21,.02-.05,.04-.2,.05-.27,0-.14-.07-.29-.05-.45,.02-.13,.22-.19,.12-.33-.1-.14-.28,.08-.39-.02-.1-.09,.02-.19,.03-.35,0-.06-.04-.13-.03-.18,0-.07,.14-.18,.11-.23-.05-.07-.11-.21-.2-.32,1.68-1.34,3.69-2.29,5.89-2.69h0s.05,.1,.12,.12c.13-.07,.26,0,.41,0,.14,0,.27-.07,.42-.05,.27,.04,.66,.31,.87,.17,.05-.04,.04-.1,.09-.2,.04-.08,.1-.16,.14-.25,.11,0,.22,0,.33,0h0Z" style="fill:#fff;"/></svg>