<?xml version="1.0" encoding="UTF-8"?><svg id="Layer_1" xmlns="http://www.w3.org/2000/svg" viewBox="0 0 32 32"><path d="M16.41,12c-2.27-.22-4.3,1.4-4.52,3.61s1.44,4.18,3.71,4.4c2.27,.22,4.3-1.4,4.52-3.61,.03-.26,.03-.53,0-.79-.2-1.91-1.75-3.41-3.71-3.61Zm9.96,4c0,.44-.04,.87-.1,1.31l2.92,2.23c.26,.21,.33,.58,.16,.86l-2.77,4.65c-.17,.28-.53,.41-.85,.29l-2.9-1.14c-.33-.13-.69-.08-.98,.11-.44,.3-.91,.56-1.39,.79-.31,.15-.52,.43-.57,.76l-.44,3.01c-.06,.33-.35,.57-.69,.58h-5.53c-.34,0-.62-.24-.69-.56l-.43-3c-.05-.33-.27-.62-.58-.77-.48-.23-.95-.49-1.39-.79-.29-.19-.65-.23-.98-.11l-2.9,1.14c-.32,.12-.68,0-.85-.29l-2.77-4.65c-.17-.29-.1-.65,.16-.86l2.47-1.88c.27-.21,.42-.54,.39-.88-.02-.26-.04-.52-.04-.79s.01-.52,.04-.78c.03-.34-.12-.67-.39-.88l-2.47-1.88c-.26-.21-.32-.57-.15-.86l2.77-4.65c.17-.28,.53-.41,.85-.29l2.9,1.14c.33,.13,.69,.08,.98-.11,.44-.3,.91-.56,1.39-.79,.31-.15,.52-.43,.57-.76l.44-3.01c.06-.33,.35-.57,.69-.58h5.53c.34,0,.62,.24,.69,.56l.43,3c.05,.33,.27,.62,.58,.77,.48,.23,.95,.49,1.39,.79,.29,.19,.65,.23,.98,.11l2.9-1.14c.32-.12,.68,0,.85,.29l2.77,4.65c.17,.29,.1,.65-.16,.86l-2.47,1.88c-.28,.21-.42,.54-.39,.88,.02,.26,.04,.52,.04,.78Z" style="fill:#fff;"/></svg>