<?xml version="1.0" encoding="UTF-8"?><svg id="Layer_1" xmlns="http://www.w3.org/2000/svg" viewBox="0 0 32 32"><path d="M29.74,26.53L17.95,3.24c-.84-1.65-3.06-1.65-3.9,0L2.26,26.53c-.58,1.15-.18,2.57,.9,3.19,.32,.18,.68,.28,1.05,.28H27.79c1.22,0,2.21-1.05,2.21-2.35,0-.39-.09-.77-.26-1.12Zm-13.74-.13c-.76,0-1.38-.66-1.38-1.47,0-.81,.62-1.47,1.38-1.47s1.38,.66,1.38,1.47h0c0,.81-.62,1.47-1.38,1.47Zm1.5-14.8l-.4,8.98c0,.65-.5,1.18-1.11,1.18-.61,0-1.11-.53-1.11-1.18l-.4-8.97c-.04-.88,.61-1.63,1.43-1.67,.02,0,.03,0,.05,0h.01c.83,0,1.5,.72,1.5,1.6,0,.02,0,.05,0,.07h0Z" style="fill:#fff;"/></svg>