<?xml version="1.0" encoding="UTF-8"?><svg id="Layer_1" xmlns="http://www.w3.org/2000/svg" viewBox="0 0 32 32"><path d="M28.8,18.6q0,.1,0,0c0,.2-.1,.3-.2,.5,.1-.1,.2-.3,.2-.5" style="fill:#fff;"/><path d="M2.78,2c-.43,0-.78,.45-.78,1V29.08c0,.51,.32,.92,.72,.92H29.28c.4,0,.72-.41,.72-.92V6.92c0-.51-.32-.92-.72-.92h-12.73c-.89,.03-1.32-.26-1.71-.74l-1.85-2.42c-.26-.44-.46-.84-.89-.84H2.78ZM11.5,10.9h7.88c.77,0,1.51,.16,2.19,.46s1.28,.73,1.79,1.25c.51,.53,.92,1.16,1.21,1.85,.29,.7,.44,1.46,.44,2.27s-.16,1.57-.44,2.28-.7,1.35-1.21,1.88c-.51,.54-1.12,.97-1.79,1.26s-1.41,.44-2.18,.41h-1.12v2.33l-5.62-3.5,5.62-3.5v2.33h1.12c.47,0,.92-.1,1.32-.27s.77-.43,1.07-.74c.3-.32,.55-.69,.72-1.11s.26-.88,.26-1.37-.09-.96-.26-1.38c-.17-.42-.41-.8-.72-1.11-.3-.32-.67-.57-1.07-.74s-.85-.27-1.32-.27h-7.88v-2.33Zm-2.25,8.17s.02,0,.04,0c.04,0,.08,0,.12,0,.04,0,.08,0,.12,.01,.04,0,.08,.01,.12,.02,.04,0,.08,.02,.12,.03,.04,0,.08,.02,.12,.03,.04,.01,.08,.03,.12,.04,.04,.02,.08,.03,.12,.05,.04,.02,.08,.03,.11,.05,.04,.02,.07,.04,.11,.06,.04,.02,.07,.04,.11,.07,.03,.02,.07,.05,.1,.07,.03,.03,.07,.05,.1,.08,.03,.03,.06,.06,.1,.08,.03,.03,.06,.06,.09,.09,.03,.03,.06,.06,.09,.09,.03,.03,.05,.07,.08,.1,.03,.03,.05,.07,.08,.11,.02,.04,.05,.07,.07,.11,.02,.04,.04,.07,.06,.11,.02,.04,.04,.08,.06,.12,.02,.04,.03,.08,.05,.12,.02,.04,.03,.08,.04,.12,.01,.04,.03,.08,.04,.12,.01,.04,.02,.08,.03,.13,0,.04,.02,.08,.02,.13,0,.04,.01,.08,.02,.13,0,.04,0,.09,0,.13,0,.04,0,.09,0,.13,0,.01,0,.02,0,.04,0,.04,0,.09,0,.13,0,.04,0,.09-.01,.13,0,.04-.01,.08-.02,.13,0,.04-.02,.08-.03,.13,0,.04-.02,.08-.03,.12-.01,.04-.02,.08-.04,.12-.01,.04-.03,.08-.05,.12-.02,.04-.03,.08-.05,.12-.02,.04-.04,.08-.06,.12-.02,.04-.04,.07-.06,.11-.02,.04-.05,.07-.07,.11-.02,.04-.05,.07-.08,.1-.03,.03-.05,.07-.08,.1-.03,.03-.06,.06-.09,.09-.03,.03-.06,.06-.09,.09-.03,.03-.06,.06-.1,.08-.03,.03-.07,.05-.1,.08-.03,.03-.07,.05-.11,.07-.04,.02-.07,.04-.11,.06-.04,.02-.07,.04-.11,.06-.04,.02-.08,.03-.11,.05-.04,.02-.08,.03-.12,.05-.04,.01-.08,.03-.12,.04-.04,.01-.08,.02-.12,.03-.04,0-.08,.02-.12,.03-.04,0-.08,.01-.12,.02-.04,0-.08,0-.12,.01-.04,0-.08,0-.12,0-.01,0-.02,0-.04,0-.04,0-.08,0-.12,0-.04,0-.08,0-.12-.01-.04,0-.08-.01-.12-.02-.04,0-.08-.02-.12-.03-.04,0-.08-.02-.12-.03-.04-.01-.08-.03-.12-.04-.04-.02-.08-.03-.12-.05-.04-.02-.08-.04-.11-.05-.04-.02-.07-.04-.11-.06-.04-.02-.07-.04-.11-.07-.03-.02-.07-.05-.1-.07-.03-.03-.07-.05-.1-.08-.03-.03-.06-.06-.1-.08-.03-.03-.06-.06-.09-.09-.03-.03-.06-.06-.09-.09-.03-.03-.05-.07-.08-.1-.03-.03-.05-.07-.08-.11-.02-.04-.05-.07-.07-.11-.02-.04-.04-.07-.06-.11-.02-.04-.04-.08-.06-.12-.02-.04-.03-.08-.05-.12-.02-.04-.03-.08-.04-.12-.01-.04-.03-.08-.04-.12-.01-.04-.02-.08-.03-.12,0-.04-.02-.08-.02-.13,0-.04-.01-.09-.02-.13,0-.04,0-.09,0-.13,0-.04,0-.09,0-.13,0-.01,0-.02,0-.04,0-.04,0-.09,0-.13,0-.04,0-.09,.01-.13,0-.04,.01-.09,.02-.13,0-.04,.02-.08,.03-.12,0-.04,.02-.08,.03-.12,.01-.04,.02-.08,.04-.12,.01-.04,.03-.08,.05-.12,.02-.04,.03-.08,.05-.12,.02-.04,.04-.08,.06-.12,.02-.04,.04-.07,.06-.11,.02-.04,.05-.07,.07-.11,.02-.03,.05-.07,.08-.1,.03-.03,.05-.07,.08-.1,.03-.03,.06-.06,.09-.09,.03-.03,.06-.06,.09-.09,.03-.03,.06-.06,.1-.08,.03-.03,.07-.05,.1-.08,.03-.02,.07-.05,.11-.07,.04-.02,.07-.05,.11-.07,.04-.02,.07-.04,.11-.06,.04-.02,.08-.04,.11-.05,.04-.02,.08-.03,.12-.04,.04-.01,.08-.03,.12-.04,.04-.01,.08-.02,.12-.03,.04,0,.08-.02,.12-.03,.04,0,.08-.01,.12-.02,.04,0,.08,0,.12-.01,.04,0,.08,0,.12,0h0Z" style="fill:#fff;"/></svg>