<?xml version="1.0" encoding="UTF-8"?><svg id="Layer_1" xmlns="http://www.w3.org/2000/svg" viewBox="0 0 32 32"><path d="M9.04,3.85c2.14-1.23,4.44-1.85,7.04-1.85s4.9,.62,7.04,1.85c2.14,1.23,3.83,2.92,5.05,5.08,1.22,2.15,1.84,4.46,1.84,7.08s-.61,4.92-1.84,7.08c-1.22,2.15-2.91,3.85-5.05,5.08s-4.44,1.85-7.04,1.85-4.9-.62-7.04-1.85c-2.14-.92-3.98-2.77-5.2-4.92s-1.84-4.46-1.84-7.08,.61-4.92,1.84-7.08c1.22-2.15,3.06-4,5.2-5.23Zm12.09,7.85l-.15,.15-.15,.15s.15,0,.15-.15,.15-.15,.15-.15c-.31,0-.15,0,0,0,0-.15,.15-.15,.31-.31,.15-.15,.46-.15,.92-.15,.46-.15,.77,0,.92,.15,0,0,0-.15,.15-.15q.15-.15,.31-.15s.15-.15,.31-.15,.15-.15,.31-.15v-.46q-.15,0-.31-.15t-.15-.46s0,.15-.15,.15q0-.15-.15-.15h-.31c-.15,0-.15-.15-.31-.15q-.15-.15-.15-.31c0-.15-.15-.15-.15-.31s-.15-.15-.15-.15l-.15-.15v-.15s0-.15-.15-.15c0,0,0-.15-.15-.15h.15s-.15,0-.15,.15-.15,.15-.15,.15l-.15,.15h-.31l-.15,.15-.15,.15s-.15,0-.15,.15h-.15q.15-.15,0-.15c-.15,0-.15-.15-.31-.15,.15,0,.15-.15,.15-.15,0-.15-.15-.15-.15-.31h.15l-.15-.15q-.15-.15-.31-.15c-.15,0-.15-.15-.15-.15-.15-.15-.31-.15-.61-.15-.31-.15-.46-.15-.61,0l-.15,.15s0,.15,.15,.31c0,.15,.15,.15,.15,.15q0,.15-.15,.15l-.15,.15c0,.15,.15,.15,.31,.31,.15,0,.31,.15,.15,.31,0,.15-.15,.15-.31,.31s-.31,.15-.31,.15q-.15,.15,0,.31c0,.15,.15,.15,.15,.31v.15s0,.15-.15,.15l-.15,.15s-.15,0-.15,.15h-.15c-.15,.15-.31,0-.46-.15-.15-.15-.15-.31-.15-.46-.15-.31-.15-.46-.31-.46-.31-.15-.46-.15-.46,0-.15-.15-.31-.31-.77-.46-.31-.15-.61-.15-1.07-.15,.15,0,.15-.15,0-.31-.15-.15-.15-.31-.31-.15,0-.15,.15-.15,.15-.31v-.15c0-.15,.15-.31,.15-.46l.15-.15,.15-.15v-.15c.46,0,.77,0,.92-.15q.15-.15,.15-.31,.15-.15,.15-.31,.15-.15,.31-.15,.15,0,.31,.15,.15,.15,.31,.15c.15,0,.31-.15,.31-.15,0-.15,0-.31-.15-.46,.15,0,.15-.15,.15-.31l-.15-.15c-.15,0-.31,0-.46,.15-.15,0-.15,.15,0,.15l-.15,.15-.31,.31c-.15,.15-.15,0-.31-.15,0,0,0-.15-.15-.15l-.15-.15c-.15,0-.15,.15-.31,.31q0-.15-.15-.31c-.15-.15-.31-.15-.46-.15,0-.15,0-.46-.31-.46-.15,0-.15-.15-.46-.15s-.31,0-.31,.15l-.15,.15q0,.15,.15,.15c.15,0,.46-.46,.61-.46s.15,0,.15,.15q.15,0,.15,.15c.15,0,.15,.15,0,.15,0,0-.15,0-.15,.15-.15,0-.15,.15-.15,.15q-.15,0-.15,.15v.62q-.15-.15-.15-.31c0-.15-.15-.15-.15-.31,.15-.15,0-.15-.46-.15h-.92c-.15,0-.15-.15-.15-.15v-.46s0-.15,.15,0l-.15-.15-.15-.15c-.46,.15-1.07,.46-1.68,.77h.15c.15,0,.15-.15,.15-.15l.15-.15c.46-.15,.77-.15,.77-.15l.15-.15,.46,.46c-.15,0-.31-.15-.46,0-.15,.15-.46,.15-.46,.15,.15,.15,.15,.31,.15,.31l-.15-.15q-.15-.15-.31-.15-.15,.15-.31,0h-.46c-1.68,1.08-3.21,2.31-4.28,4.15l.15,.15,.15,.15v.15s.15,0,.15-.15c.15,.15,.15,.31,.15,.46,0,0,.31,.15,.77,.46,.15,.15,.46,.31,.46,.46s0,.15-.15,.31l-.15-.15-.15-.15v.31c0,.15,.15,.15,.15,.15-.15,0-.15,.15-.15,.31v1.08c0,.15,0,.31,.15,.62,.15,.31,.15,.46,.46,.31-.15,0,0,.31,.46,.77l.15,.15,.15,.15c.15,.31,.31,.31,.31,.46l.15,.15c0,.15,.15,.15,.15,.46,.15,.15,.15,.31,.31,.46q0,.15,.15,.46c-.15,0-.15,.15-.15,.31s.15,.15,.31,.31q.15,.15,.31,.15v.15q0,.15,.15,.15s.15,.15,.15,0-.15-.62-.46-1.08c-.15-.31-.31-.46-.31-.46,0-.15-.15-.15-.15-.31v-.31s.15,0,.15,.15q.15,0,.15,.15v.46q.15,.15,.15,.31l.31,.31,.15,.15,.31,.31q.15,.15,0,.15c.15,0,.15,.15,.46,.15q.15,.15,.31,.46c-.15,.15-.15,.31-.15,.62,0,.15,.15,.46,.15,.46,0,.15,.15,.15,.15,.15,.15,0,.15,.15,.15,.15,.15,0,.15,.15,.31,.15l.15,.15c.15,0,.15,.15,.31,.15,.15,.15,.31,.15,.46,.15s.15,.15,.31,.15h.31c.15,0,.15-.15,.15-.15,.15,0,.46,.15,.46,.31l.46,.46c.46,.15,.77,.31,1.07,.15v.15c0,.15,.15,.15,.15,.31q.15,.15,.15,.31c0,.15,.15,.15,.15,.15l.31,.31c.15,.15,.31,.15,.31,.31,.15,0,.15-.15,.15-.15q0,.15,.15,.46,.15,.15,.31,.15c.15,0,.31-.15,.31-.62-.46,.15-.77,.15-.92-.31v-.15c0-.15-.15-.15-.15-.15v-.31s0-.15,.15-.15,.15,0,.15-.15v-.15c0-.15-.15-.15-.15-.15,0-.15-.15-.15-.15-.46q-.15-.15-.15-.31-.15,.15-.31,.15c-.15,0-.15-.15-.31-.15v.31h-.31v-.31c0-.15,0-.31,.15-.46,0,0,0-.15,.15-.15q.15-.15,.15-.31c0-.15,.15-.15,.15-.15q0-.15-.15-.15c-.15,0-.15-.15-.31,0-.15,0-.46,.15-.46,.46,0,0,0,.15-.15,.15l-.15,.15-.15,.15h-.46q-.31,0-.46-.15l-.46-.46c-.15-.31-.15-.46-.15-.77v-.46c0-.15,0-.31,.15-.46q0-.15-.15-.46l.15-.15,.15-.15h.46s0-.15,.15-.15l-.15-.15-.15-.15h.46c.31-.15,.46,0,.46,0,.15,.15,.31,.15,.46,0v-.31c.15,.31,.15,.46,.46,.15,0,0,.15,.15,.31,.15s.31,.15,.31,.15l.15,.15,.15,.15h.15l.15-.15c.15,.15,.15,.31,.15,.46,.15,.46,.15,.77,.31,.77h.15l.15-.15v-1.54c-.15,0-.31-.15-.31-.15v-.31l.31-.31s.15,0,.15-.15c.15,0,.15-.15,.31-.15s.15-.15,.15-.15c.31-.15,.31-.46,.31-.62,.15,0,.15-.15,.15-.15l-.15-.15-.15-.15h.15q.15-.15,0-.31c.15,0,.15-.15,.15-.15l.15-.15q.15,.15,.46,0,.15-.15,0-.31,.15-.15,.46-.15c.15,0,.31-.15,.31-.15h.15v-.15q0-.15,.15-.15c0-.15,.15-.15,.31-.15s.15-.15,.15-.15l.31-.15v-.15c.15,0,.46,0,.61-.15,.15-.15,.15-.31-.15-.46q0-.15-.15-.15c-.15,0-.15-.15-.31-.15h.31c.15-.15,.15-.31-.15-.31-.15,0-.46,0-.77,.31Zm-3.06,16.15c2.6-.46,4.59-1.69,6.43-3.54l-.15-.15q-.15,0-.15-.15c-.15-.15-.46-.15-.46-.15v-.31c-.15,0-.15-.15-.15-.15l-.15-.15-.15-.15c-.15,0-.15-.15-.15-.15,0,0-.15,0-.15-.15h-.61s-.15,0-.15,.15-.15,0-.15,.15c-.31-.15-.46-.31-.61-.46q-.15,0-.15-.15l-.15-.15h-.15c-.15,0-.15,.15-.15,.15q-.15,.15-.15,.31v.15q-.15-.15,0-.31c.15-.15,.15-.31,0-.31,0-.15-.15-.15-.15-.15q-.15,0-.15,.15c-.15,0-.15,.15-.15,.15l-.15,.15s-.15,0-.15,.15l-.15,.15-.15,.15c0,.15-.15,.15-.15,.15l-.15-.15c-.15,0-.15-.15-.15-.15,0,.15,0,.31,.15,.62,0,.31,.15,.46,.15,.77,.15,.46,0,.77-.15,.92-.31,.31-.46,.46-.46,.77s0,.46,.15,.46q0,.15-.15,.46-.61,.62-.77,.92c0-.31,0-.15,0,0Z" style="fill:red;"/></svg>