<?xml version="1.0" encoding="UTF-8"?><svg id="Layer_1" xmlns="http://www.w3.org/2000/svg" viewBox="0 0 32 32"><path d="M13.82,2.01c-1.22,.04-2.42,.25-3.58,.63-1.55,.51-2.91,1.24-4.08,2.2s-2.12,2.13-2.86,3.5c-.74,1.38-1.17,2.84-1.27,4.4-.11,1.55,.11,3.05,.65,4.51,.54,1.46,1.33,2.73,2.35,3.82,1.02,1.09,2.27,1.99,3.74,2.68,1.47,.69,3.03,1.09,4.69,1.19,2.55,.16,4.91-.38,7.07-1.6l5.57,5.93c.39,.44,.9,.68,1.52,.71,.6,.04,1.14-.14,1.61-.52,.47-.39,.72-.86,.76-1.43,.04-.57-.14-1.08-.54-1.5l-5.57-5.95c1.57-1.85,2.44-3.98,2.6-6.36,.11-1.55-.11-3.06-.65-4.51-.54-1.46-1.33-2.73-2.35-3.82-1.02-1.09-2.27-1.99-3.74-2.68-1.47-.69-3.04-1.1-4.69-1.2-.41-.03-.83-.03-1.23-.02h0Zm.94,4.19c2.14,.13,3.92,.95,5.35,2.47,1.42,1.52,2.07,3.28,1.93,5.29-.14,2.01-1.02,3.68-2.64,5.01-1.62,1.33-3.51,1.94-5.65,1.8-2.14-.13-3.92-.96-5.35-2.48-1.42-1.52-2.07-3.28-1.93-5.29,.14-2.01,1.02-3.68,2.64-5.01,1.62-1.33,3.5-1.94,5.65-1.8Z" style="fill:#fff;"/></svg>