<?xml version="1.0" encoding="UTF-8"?><svg id="Layer_1" xmlns="http://www.w3.org/2000/svg" viewBox="0 0 32 32"><path d="M25.2,2c-.25,0-.49,.1-.67,.28l-2.15,2.15,5.2,5.2,2.15-2.14c.37-.37,.37-.98,0-1.35l-3.84-3.85c-.18-.18-.42-.28-.68-.28Zm-3.5,3.1l-.74,.75,5.2,5.2,.75-.75-5.2-5.2Zm-1.42,1.42l-.75,.75,5.2,5.2,.75-.75-5.2-5.2Zm-1.42,1.42L4.22,22.58c-.1,.1-.19,.23-.23,.37l-1.94,5.79c-.11,.34-.02,.72,.23,.97,.18,.18,.42,.28,.67,.28,.1,0,.2-.01,.3-.05l5.79-1.94c.14-.05,.27-.12,.37-.23l14.64-14.64-5.2-5.2Z" style="fill:#fff;"/></svg>