<svg viewBox="0 0 32 32" xmlns="http://www.w3.org/2000/svg"><g fill="#fff"><path d="m20.95 13.08-9.9 9.9c.56.55 1.2 1.01 1.91 1.34.17.08.33.15.5.22.05.02.09.03.14.05.76.24 1.54.44 2.36.43h.04c.08 0 .17-.01.25-.01.14 0 .27 0 .41-.02.13-.01.26-.03.39-.05.84-.17 1.63-.47 2.34-.87s1.34-.9 1.87-1.5c.53-.59.96-1.28 1.26-2.04s.47-1.59.49-2.47v-.04c0-.11 0-.22-.01-.32-.07-.71-.14-1.41-.42-2.1 0-.02-.01-.04-.02-.06-.35-.92-.89-1.76-1.59-2.46z"/><path d="m2.78 2c-.43 0-.78.45-.78 1v26.08c0 .51.32.92.72.92h26.57c.4 0 .72-.41.72-.92v-22.16c0-.51-.32-.92-.72-.92h-12.73c-.89.03-1.32-.26-1.71-.74l-1.85-2.42c-.26-.44-.46-.84-.89-.84zm13.22 8.03c1.01 0 1.98.19 2.87.54.89.34 1.7.84 2.41 1.46l.38.34c.12.12.23.25.34.38.62.7 1.12 1.52 1.47 2.41s.53 1.86.53 2.87c0 1.1-.22 2.16-.63 3.12s-.99 1.82-1.71 2.54-1.59 1.31-2.54 1.71-2.01.63-3.11.63c-1.01 0-1.98-.19-2.87-.53s-1.7-.85-2.41-1.47c-.22-.21-.51-.45-.72-.72-.62-.7-1.12-1.52-1.47-2.41s-.53-1.86-.53-2.87c0-1.1.22-2.16.63-3.11.4-.96.99-1.82 1.71-2.54s1.59-1.31 2.54-1.71 2.01-.63 3.11-.63z"/></g></svg>