<?xml version="1.0" encoding="UTF-8"?><svg id="Layer_1" xmlns="http://www.w3.org/2000/svg" viewBox="0 0 32 32"><path d="M2.78,2c-.43,0-.78,.45-.78,1V29.08c0,.51,.32,.92,.72,.92H29.28c.4,0,.72-.41,.72-.92V6.92c0-.51-.32-.92-.72-.92h-12.73c-.89,.03-1.32-.26-1.71-.74l-1.85-2.42c-.26-.44-.46-.84-.89-.84H2.78ZM14.67,10h2.67c.25,0,.44,.2,.44,.45v5.78h5.78c.25,0,.45,.2,.45,.44v2.67c0,.25-.2,.44-.45,.44h-5.78v5.78c0,.25-.2,.45-.44,.45h-2.67c-.25,0-.44-.2-.44-.45v-5.78h-5.78c-.25,0-.45-.2-.45-.44v-2.67c0-.25,.2-.44,.45-.44h5.78v-5.78c0-.25,.2-.45,.44-.45Z" style="fill:#fff;"/></svg>