<?xml version="1.0" encoding="UTF-8"?><svg id="Layer_1" xmlns="http://www.w3.org/2000/svg" viewBox="0 0 32 32"><path d="M28.8,18.6q0,.1,0,0c0,.2-.1,.3-.2,.5,.1-.1,.2-.3,.2-.5" style="fill:#fff;"/><path d="M22.48,9.07c-1.76-1.65-4.06-2.56-6.48-2.56-4.37,0-8.15,3-9.19,7.16-.08,.3-.35,.52-.66,.52H2.91c-.42,0-.74-.38-.67-.8C3.46,6.91,9.16,2,16,2c3.75,0,7.16,1.48,9.67,3.88l2.02-2.02c.85-.85,2.31-.25,2.31,.96v7.57c0,.75-.61,1.35-1.35,1.35h-7.57c-1.21,0-1.81-1.46-.96-2.31l2.36-2.36ZM3.35,18.26h7.57c1.21,0,1.81,1.46,.96,2.31l-2.36,2.36c1.76,1.65,4.06,2.56,6.48,2.56,4.37,0,8.15-3,9.19-7.16,.08-.3,.35-.52,.66-.52h3.23c.42,0,.74,.38,.67,.8-1.22,6.49-6.92,11.39-13.76,11.39-3.75,0-7.16-1.48-9.67-3.88l-2.02,2.02c-.85,.85-2.31,.25-2.31-.96v-7.57c0-.75,.61-1.35,1.35-1.35Z" style="fill:#fff;"/></svg>