<?xml version="1.0" encoding="UTF-8"?><svg id="Layer_1" xmlns="http://www.w3.org/2000/svg" viewBox="0 0 32 32"><path d="M28.03,6c-.5,0-1,.18-1.38,.52l-10.61,9.51L5.34,6.58c-.77-.68-2.01-.67-2.77,0-.76,.68-.76,1.79,.01,2.47l12.08,10.67c.38,.34,.89,.51,1.39,.51,.5,0,1-.18,1.38-.52l11.99-10.75c.76-.68,.76-1.79-.01-2.47-.38-.34-.89-.51-1.39-.51h0Zm-.21,17.1l-23.69,.05c-.68,0-1.33,.22-1.73,.58-.4,.36-.51,.83-.3,1.26l.02,.03c.29,.58,1.12,.97,2.05,.97l23.69-.05c.68,0,1.33-.22,1.73-.58,.4-.36,.51-.83,.3-1.26l-.02-.03c-.29-.58-1.12-.97-2.05-.97Z" style="fill:#fff;"/><path d="M28.03,6c-.5,0-1,.18-1.38,.52l-10.61,9.51L5.34,6.58c-.77-.68-2.01-.67-2.77,0-.76,.68-.76,1.79,.01,2.47l12.08,10.67c.38,.34,.89,.51,1.39,.51,.5,0,1-.18,1.38-.52l11.99-10.75c.76-.68,.76-1.79-.01-2.47-.38-.34-.89-.51-1.39-.51h0Zm-.21,17.1l-23.69,.05c-.68,0-1.33,.22-1.73,.58-.4,.36-.51,.83-.3,1.26l.02,.03c.29,.58,1.12,.97,2.05,.97l23.69-.05c.68,0,1.33-.22,1.73-.58,.4-.36,.51-.83,.3-1.26l-.02-.03c-.29-.58-1.12-.97-2.05-.97Z" style="fill:#fff;"/></svg>