<?xml version="1.0" encoding="UTF-8"?><svg id="Layer_1" xmlns="http://www.w3.org/2000/svg" viewBox="0 0 32 32"><path d="M2,9.2c0-.82,.26-1.64,.78-2.27,1.04-1.24,2.74-1.24,3.78,0h0l9.45,11.33L25.44,6.94c1.04-1.24,2.74-1.24,3.78,0,0,0,0,0,0,0,0,0,0,0,0,0,1.04,1.24,1.04,3.29,0,4.53l-11.33,13.59c-.52,.62-1.21,.94-1.89,.94-.68,0-1.37-.32-1.89-.94h0L2.78,11.46c-.52-.62-.78-1.44-.78-2.27Z" style="fill:#fff;"/><path d="M2,9.2c0-.82,.26-1.64,.78-2.27,1.04-1.24,2.74-1.24,3.78,0h0l9.45,11.33L25.44,6.94c1.04-1.24,2.74-1.24,3.78,0,0,0,0,0,0,0,0,0,0,0,0,0,1.04,1.24,1.04,3.29,0,4.53l-11.33,13.59c-.52,.62-1.21,.94-1.89,.94-.68,0-1.37-.32-1.89-.94h0L2.78,11.46c-.52-.62-.78-1.44-.78-2.27Z" style="fill:#fff;"/></svg>