<?xml version="1.0" encoding="UTF-8"?><svg id="Layer_1" xmlns="http://www.w3.org/2000/svg" viewBox="0 0 32 32"><path d="M10.14,2c-1.5,0-2.71,1.22-2.71,2.71v2.72h-2.72c-1.49,0-2.71,1.22-2.71,2.71s1.22,2.71,2.71,2.71h2.72v6.3h-2.72c-1.49,0-2.71,1.22-2.71,2.71s1.22,2.71,2.71,2.71h2.72v2.72c0,1.5,1.22,2.71,2.71,2.71s2.71-1.21,2.71-2.71v-2.72h6.3v2.72c0,1.5,1.22,2.71,2.71,2.71s2.71-1.21,2.71-2.71v-2.72h2.72c1.49,0,2.71-1.22,2.71-2.71s-1.22-2.71-2.71-2.71h-2.72v-6.3h2.72c1.49,0,2.71-1.22,2.71-2.71s-1.22-2.71-2.71-2.71h-2.72v-2.72c0-1.49-1.22-2.71-2.71-2.71s-2.71,1.22-2.71,2.71v2.72h-6.3v-2.72c0-1.49-1.22-2.71-2.71-2.71Zm1.51,9.65h8.7v8.7H11.65V11.65Z" style="fill:#fff;"/></svg>