<?xml version="1.0" encoding="UTF-8"?><svg id="Layer_1" xmlns="http://www.w3.org/2000/svg" viewBox="0 0 32 32"><path d="M12.64,5.99c-2.26-.99-5.41-1.48-9.64-1.49-.4,0-.79,.1-1.12,.31-.55,.34-.88,.92-.88,1.53V22.78c0,1.11,.86,1.95,2,1.95,4.44,0,8.9,.38,11.57,2.7,.1,.09,.27,.09,.36,0,.05-.04,.07-.1,.07-.16V7.88c0-.26-.12-.52-.34-.69-.61-.48-1.29-.88-2.02-1.2h0Zm17.48-1.19c-.33-.2-.72-.31-1.12-.3-4.23,.02-7.38,.5-9.64,1.49-.73,.31-1.41,.71-2.02,1.19-.22,.17-.34,.43-.34,.69V27.26c0,.12,.11,.23,.24,.23,.06,0,.13-.02,.17-.07,1.6-1.47,4.42-2.69,11.58-2.69,1.1,0,2-.82,2-1.84h0V6.33c0-.61-.33-1.19-.88-1.53h0Z" style="fill:#fff;"/></svg>