<?xml version="1.0" encoding="UTF-8"?><svg id="Layer_1" xmlns="http://www.w3.org/2000/svg" viewBox="0 0 32 32"><path d="M16,2c-7.72,0-14,6.28-14,14s6.28,14,14,14,14-6.28,14-14S23.72,2,16,2Zm0,5.74c1.01,0,1.82,.81,1.82,1.82s-.81,1.82-1.82,1.82-1.82-.81-1.82-1.82h0c0-1.01,.81-1.82,1.82-1.82Zm3.36,15.82h-6.16c-.62,0-1.12-.5-1.12-1.12,0-.62,.5-1.12,1.12-1.12h1.96v-6.16h-1.12c-.62,0-1.12-.5-1.12-1.12,0-.62,.5-1.12,1.12-1.12h2.24c.62,0,1.12,.5,1.12,1.12h0v7.28h1.96c.62,0,1.12,.5,1.12,1.12,0,.62-.5,1.12-1.12,1.12Z" style="fill:#fff;"/></svg>