<?xml version="1.0" encoding="UTF-8"?><svg id="Layer_1" xmlns="http://www.w3.org/2000/svg" viewBox="0 0 32 32"><rect x="2" y="2" width="28" height="5.38" rx="2" ry="2" style="fill:#fff;"/><path d="M4.65,9.54c-.28,0-.5,.24-.5,.54,0,.02,0,.04,0,.06l1.64,17s0,0,0,.01c.18,1.63,1.46,2.85,2.98,2.85h14.44c1.52,0,2.8-1.23,2.98-2.85h0s1.64-17.01,1.64-17.01c.03-.3-.17-.56-.45-.59-.02,0-.04,0-.05,0H4.65Zm6.34,5.23h1.67c.47,0,.9,.17,1.2,.47l2.13,2.13,2.13-2.13c.3-.3,.73-.47,1.2-.47h1.67v1.67c0,.46-.16,.9-.46,1.2l-2.13,2.13,2.13,2.13c.3,.3,.46,.74,.46,1.2v1.67h-1.67c-.47,0-.9-.17-1.2-.47l-2.13-2.14-2.13,2.14c-.3,.3-.73,.47-1.2,.47h-1.67v-1.67c0-.46,.17-.9,.47-1.2l2.13-2.13-2.13-2.13c-.3-.3-.47-.74-.47-1.2v-1.67Z" style="fill:#fff;"/></svg>