<?xml version="1.0" encoding="UTF-8"?><svg id="Layer_1" xmlns="http://www.w3.org/2000/svg" viewBox="0 0 32 32"><path d="M31,8.51c0-2.21-1.85-4-4.13-4.01-1.01,0-1.99,.36-2.75,1-.32,.28-.6,.6-.82,.96h0c-.03,.06-.07,.12-.1,.17l-.02,.03s-.05,.1-.08,.15c0,.02-.01,.03-.02,.05-.02,.05-.04,.09-.06,.14,0,.02-.02,.04-.02,.06-.02,.04-.03,.09-.05,.13l-.02,.07s-.03,.09-.04,.13c0,.02-.01,.05-.02,.07-.01,.04-.02,.08-.03,.12,0,.03-.01,.05-.02,.08,0,.04-.02,.09-.03,.12,0,.03-.01,.05-.01,.08,0,.04-.01,.09-.02,.13,0,.03,0,.05-.01,.08,0,.05,0,.1-.01,.14,0,.02,0,.04,0,.07,0,.07,0,.14,0,.21,0,.06,0,.12,0,.18v.04c0,.06,0,.12,.01,.18v.03c0,.05,.02,.11,.02,.16,0,.01,0,.02,0,.03,0,.06,.02,.11,.03,.17,0,.01,0,.03,0,.04,.01,.05,.02,.11,.04,.16h0c.01,.07,.03,.12,.05,.18v.04c.03,.05,.05,.1,.07,.16,0,.01,0,.02,.01,.03,.02,.04,.04,.09,.05,.13,0,.01,.01,.03,.02,.04,.02,.05,.04,.1,.07,.15l.02,.04s.05,.09,.07,.13c.34,.61,.83,1.12,1.43,1.49,.16,.1,.32,.18,.49,.26h.03c.11,.06,.23,.11,.35,.15l.06,.02,.1,.03s.06,.02,.09,.02l.12,.03,.11,.02h.07s.12,.03,.12,.03h.06c.06,.02,.12,.03,.18,.03h.05s.1,.01,.14,.01h.06c.06,0,.13,0,.19,0,.08,0,.15,0,.22,0h.07c.05,0,.1-.01,.15-.02h.08s.09-.02,.14-.03h.08s.09-.03,.13-.04l.08-.02s.09-.02,.13-.03c.03,0,.05-.01,.08-.02,.04-.01,.09-.03,.13-.04l.07-.02s.09-.03,.14-.05l.06-.02s.1-.04,.14-.06l.05-.02c.05-.02,.1-.05,.16-.07l.03-.02c.06-.03,.12-.06,.18-.1h0c.37-.21,.71-.48,1-.79,.67-.73,1.04-1.67,1.03-2.65h0Z" style="fill:#32cd32;"/><path d="M22.94,13.16l-6.82,5.13c-.37,.28-.9,.28-1.27,0L5.54,11.29c-.46-.33-.55-.96-.2-1.4,.34-.44,.99-.53,1.45-.2,0,0,.02,.01,.02,.02l8.68,6.52,6.09-4.58c-1.2-1.88-1.24-4.24-.09-6.15H4.62c-2,0-3.62,1.57-3.62,3.5v15c0,1.93,1.62,3.5,3.62,3.5H26.34c2,0,3.62-1.57,3.62-3.5V13.7c-2.23,1.25-5.03,1.03-7.02-.54Z" style="fill:#fff;"/></svg>