<?xml version="1.0" encoding="UTF-8"?><svg id="Layer_1" xmlns="http://www.w3.org/2000/svg" viewBox="0 0 32 32"><path d="M18.22,25.5L10.95,5.47c-.26-.71-1.03-1.07-1.72-.81-.36,.14-.65,.43-.78,.81L1.17,25.5c-.25,.71,.1,1.5,.8,1.77,.68,.26,1.44-.1,1.7-.8l2.19-6.03s.06-.08,.11-.08h7.44c.05,0,.1,.03,.11,.08l2.19,6.03c.26,.71,1.04,1.06,1.72,.79,.68-.27,1.02-1.05,.77-1.76ZM6.95,17.43l2.63-7.24c.02-.06,.09-.1,.16-.07,.03,.01,.06,.04,.07,.07l2.63,7.24c.02,.06,0,.14-.07,.16-.01,0-.03,0-.04,0H7.07c-.07,0-.12-.06-.12-.13,0-.01,0-.03,0-.04h0Zm17.83-6.84c-2.53-.02-4.8,1.49-5.76,3.84-.29,.7,.03,1.51,.71,1.81,.68,.3,1.46-.03,1.75-.73,.54-1.31,1.81-2.16,3.23-2.17,1.96-.01,3.54,1.66,3.54,3.68,0,.05-.04,.09-.09,.09-1.33,.04-2.91,.13-4.31,.3-3.32,.4-5.3,2.27-5.3,5,0,1.45,.53,2.75,1.5,3.67,.91,.86,2.14,1.33,3.48,1.33,1.88,0,3.5-.5,4.73-1.45h0c0,.76,.59,1.38,1.33,1.38,.74,0,1.34-.61,1.34-1.37v-8.95c0-3.52-2.73-6.42-6.14-6.44h0Zm-1.26,14.08c-1.06,0-2.3-.59-2.3-2.25,0-.67,.23-1.14,.75-1.52,.51-.37,1.29-.64,2.19-.75,1.28-.16,2.72-.24,3.95-.28,.07,0,.12,.06,.12,.13,0,0,0,0,0,0-.16,3.14-1.71,4.66-4.71,4.66Z" style="fill:#fff;"/></svg>