<?xml version="1.0" encoding="UTF-8"?><svg id="Layer_1" xmlns="http://www.w3.org/2000/svg" viewBox="0 0 32 32"><path d="M20.99,4.76V25.26c0,.75-.88,1.04-1.24,.42-2.07-3.59-4.12-5.47-11.3-5.87l2.27,8.2h-3.39l-2.29-8.29c-2.25-.11-4.04-2.18-4.04-4.7s1.9-4.72,4.24-4.72c9.85,0,12.16-1.87,14.51-5.95,.36-.63,1.24-.33,1.24,.42Zm5.83,11.24c0,1.96-.59,3.77-1.49,5.13,0,0-.36,.55-.95,.55s-1.15-.57-1.15-1.29c0-.42,.23-.77,.23-.77,.43-.69,1.05-1.75,1.05-3.62s-.62-2.93-1.05-3.62c0,0-.23-.34-.23-.77,0-.72,.54-1.29,1.15-1.29s.95,.55,.95,.55c.89,1.37,1.49,3.17,1.49,5.13Zm-.86-7.44s-.52-.42-.52-1.07c0-.73,.54-1.29,1.16-1.29,.4,0,.76,.31,.76,.31,1.4,1.16,3.64,4.15,3.64,9.49s-2.24,8.32-3.64,9.49c0,0-.37,.31-.76,.31-.62,0-1.16-.56-1.16-1.29,0-.65,.52-1.07,.52-1.07,1.63-1.34,2.72-4.01,2.72-7.44s-1.09-6.1-2.72-7.44Z" style="fill:#fff;"/></svg>