<?xml version="1.0" encoding="UTF-8"?><svg id="Layer_1" xmlns="http://www.w3.org/2000/svg" viewBox="0 0 32 32"><path d="M16,4.25c2.36,0,4.57,.68,6.49,1.79l-2.74,1.64c-1.14-.46-2.44-.72-3.75-.72-5.77,0-10.45,4.85-10.45,10.83,0,2.99,1.16,5.7,3.06,7.65h.01c.51,.53,.51,1.38,0,1.91s-1.35,.53-1.86,.01c-2.36-2.45-3.83-5.84-3.83-9.57,0-7.48,5.85-13.54,13.07-13.54m13.07,13.54c0,3.74-1.46,7.12-3.83,9.57-.51,.51-1.33,.51-1.84-.01-.51-.53-.51-1.38,0-1.91,1.89-1.96,3.06-4.66,3.06-7.65,0-1.35-.25-2.71-.71-3.93l1.58-2.84c1.08,2.03,1.74,4.31,1.74,6.77Z" style="fill:#fff; stroke:#fff; stroke-miterlimit:4; stroke-width:1.8px;"/><path d="M17.01,20.9c-2.16,0-3.92-1.82-3.92-4.06,0-1.52,.8-2.84,1.96-3.53l12.69-7.61-7.23,12.97c-.65,1.33-1.97,2.23-3.5,2.23" style="fill:#32cd32;"/></svg>