<?xml version="1.0" encoding="UTF-8"?><svg id="Layer_1" xmlns="http://www.w3.org/2000/svg" viewBox="0 0 32 32"><path d="M16,4.25c7.22,0,13.07,6.06,13.07,13.54,0,3.74-1.46,7.12-3.83,9.57-.51,.51-1.35,.51-1.86-.01s-.51-1.38,0-1.91h.01c1.89-1.95,3.06-4.66,3.06-7.65,0-5.98-4.68-10.83-10.45-10.83-1.31,0-2.61,.26-3.75,.72l-2.74-1.64c1.92-1.11,4.13-1.79,6.49-1.79M4.67,11.02l1.58,2.84c-.46,1.22-.71,2.57-.71,3.93,0,2.99,1.16,5.69,3.06,7.65,.51,.53,.51,1.38,0,1.91-.51,.53-1.33,.53-1.84,.01-2.36-2.45-3.83-5.84-3.83-9.57,0-2.46,.65-4.74,1.74-6.77Z" style="fill:#fff; stroke:#fff; stroke-miterlimit:4; stroke-width:1.8px;"/><path d="M14.99,20.9c-1.53,0-2.85-.91-3.5-2.23L4.26,5.69l12.69,7.61c1.16,.69,1.96,2.02,1.96,3.53,0,2.24-1.75,4.06-3.92,4.06" style="fill:red;"/></svg>