<?xml version="1.0" encoding="UTF-8"?><svg id="Layer_1" xmlns="http://www.w3.org/2000/svg" viewBox="0 0 32 32"><path d="M14.67,16.02L4.05,6.46c-.73-.66-.73-1.73,0-2.38l1.77-1.59c.73-.66,1.92-.66,2.65,0l7.53,6.77,7.53-6.77c.73-.66,1.92-.66,2.65,0l1.78,1.58c.73,.66,.73,1.73,0,2.38l-10.62,9.55c-.73,.67-1.92,.67-2.66,0h0Zm2.66,13.49l10.62-9.55c.73-.66,.73-1.73,0-2.38l-1.77-1.59c-.73-.66-1.92-.66-2.65,0l-7.54,6.76-7.53-6.77c-.73-.66-1.92-.66-2.65,0l-1.77,1.59c-.73,.66-.73,1.73,0,2.38l10.62,9.55c.73,.67,1.92,.67,2.66,0h0Z" style="fill:#969696;"/></svg>