<svg viewBox="0 0 32 32" xmlns="http://www.w3.org/2000/svg"><path d="m28.12 8.97c-1.25-2.14-2.95-3.84-5.09-5.09-2.15-1.25-4.49-1.88-7.03-1.88s-4.88.63-7.03 1.88-3.84 2.95-5.1 5.09c-1.25 2.15-1.88 4.49-1.88 7.03s.63 4.88 1.88 7.03c1.25 2.14 2.95 3.84 5.1 5.09s4.49 1.88 7.03 1.88 4.88-.63 7.03-1.88c2.14-1.25 3.84-2.95 5.09-5.09 1.25-2.15 1.88-4.49 1.88-7.03s-.63-4.88-1.88-7.03zm-5.52 10.33c.23.23.35.5.35.82s-.12.61-.35.84l-1.64 1.64c-.23.23-.51.35-.84.35s-.59-.12-.82-.35l-3.3-3.3-3.3 3.3c-.23.23-.5.35-.82.35s-.61-.12-.84-.35l-1.64-1.64c-.23-.23-.35-.51-.35-.84s.12-.59.35-.82l3.3-3.3-3.3-3.3c-.23-.23-.35-.5-.35-.82s.12-.61.35-.84l1.64-1.64c.23-.23.51-.35.84-.35s.59.12.82.35l3.3 3.3 3.3-3.3c.23-.23.5-.35.82-.35s.61.12.84.35l1.64 1.64c.23.23.35.51.35.84s-.12.59-.35.82l-3.3 3.3z" fill="#f00"/></svg>