<?xml version="1.0" encoding="UTF-8"?><svg id="Layer_1" xmlns="http://www.w3.org/2000/svg" viewBox="0 0 32 32"><path d="M16,2c-7.76,0-14,6.24-14,14s6.24,14,14,14,14-6.24,14-14S23.76,2,16,2Zm5.61,8c.28,0,.51,.09,.7,.28l1.4,1.37c.19,.19,.29,.42,.29,.69,0,.27-.1,.5-.29,.69l-7.47,7.31-1.4,1.37c-.19,.19-.43,.28-.7,.28s-.51-.09-.7-.28l-1.4-1.37-3.74-3.66c-.19-.19-.29-.42-.29-.69s.1-.5,.29-.69l1.4-1.38c.19-.19,.43-.28,.7-.28s.51,.09,.7,.28l3.03,2.98,6.77-6.64c.19-.19,.43-.28,.7-.28Z" style="fill:#fff;"/></svg>