<?xml version="1.0" encoding="UTF-8"?><svg id="Layer_1" xmlns="http://www.w3.org/2000/svg" viewBox="0 0 32 32"><path d="M5.86,3.84h3.18c.88,0,1.59,.71,1.59,1.6V26.56c0,.89-.71,1.6-1.59,1.6h-3.18c-.88,0-1.59-.71-1.59-1.6V5.44c0-.89,.71-1.6,1.59-1.6Z" style="fill:#fff; stroke:#fff; stroke-linecap:round; stroke-linejoin:round; stroke-width:3px;"/><path d="M22.96,3.84h3.18c.88,0,1.59,.71,1.59,1.6V26.56c0,.89-.71,1.6-1.59,1.6h-3.18c-.88,0-1.59-.71-1.59-1.6V5.44c0-.89,.71-1.6,1.59-1.6Z" style="fill:#fff; stroke:#fff; stroke-linecap:round; stroke-linejoin:round; stroke-width:3px;"/></svg>