<?xml version="1.0" encoding="UTF-8"?><svg id="Layer_1" xmlns="http://www.w3.org/2000/svg" viewBox="0 0 32 32"><path d="M4.78,5.45c.78,.01,1.57,0,2.35,0s1.57,0,2.35,0c.26,0,.36,.08,.36,.35,0,1.39,0,2.78,0,4.16,0,.25-.1,.33-.34,.33-1.57,0-3.14,0-4.71,0-.24,0-.34-.07-.34-.32,0-1.38-.03-2.75-.05-4.13,0-.29,.09-.39,.38-.38Z" style="fill:#fff;"/><path d="M27.54,9.97c0,.23-.08,.32-.32,.32-1.59,0-3.18,0-4.77,0-.22,0-.3-.08-.3-.3,0-1.41,0-2.82,0-4.22,0-.24,.11-.31,.33-.31,.8,0,1.59,0,2.39,0s1.55,.01,2.32,0c.29,0,.41,.07,.41,.39-.03,1.38-.04,2.75-.05,4.13h0Z" style="fill:#fff;"/><g><path d="M2.05,15.53l.55,5.47,8.84-.69-.55-5.47c-.01-.13-.02-.27-.02-.4,0-2.51,2.3-4.55,5.12-4.55s5.12,2.04,5.12,4.55c0,.13,0,.27-.02,.4l-.55,5.47,8.84,.69,.55-5.47c.03-.36,.05-.72,.05-1.08,0-6.86-6.28-12.45-14-12.45S2,7.58,2,14.45c0,.36,.02,.72,.05,1.08Z" style="fill:#fff;"/><path d="M19.7,28.37c-.05,.53,.37,1.01,.93,1.06l6.8,.57c.56,.05,1.06-.35,1.11-.89l.53-5.69-8.84-.74-.53,5.69ZM2.93,23.42l.53,5.69c.05,.53,.55,.93,1.11,.89l6.8-.57c.56-.05,.98-.52,.93-1.06l-.53-5.69-8.84,.74Z" style="fill:#969696;"/></g></svg>