<?xml version="1.0" encoding="UTF-8"?><svg id="Layer_1" xmlns="http://www.w3.org/2000/svg" viewBox="0 0 32 32"><path d="M4.14,22.31c-.39,0-.75-.23-.91-.59-3.16-7.06,0-15.34,7.06-18.5,1.8-.81,3.75-1.22,5.72-1.22,.55,0,1,.45,1,1V16c0,.39-.23,.75-.59,.91l-11.87,5.31c-.13,.06-.27,.09-.41,.09Z" style="fill:#969696;"/><path d="M19.6,4.26c-.27-.05-.53,.12-.59,.39,0,.03,0,.07,0,.1V16c0,1.18-.7,2.25-1.77,2.74l-10.78,4.82c-.25,.11-.37,.41-.25,.66,.01,.03,.03,.05,.04,.08,.82,1.21,1.85,2.28,3.03,3.15,2.23,1.66,4.95,2.56,7.73,2.55,7.17,0,13-5.83,13-13,0-6.28-4.47-11.53-10.4-12.74Z" style="fill:#fff;"/></svg>