<?xml version="1.0" encoding="UTF-8"?><svg id="Layer_1" xmlns="http://www.w3.org/2000/svg" viewBox="0 0 32 32"><path d="M10.5,3c-.14,0-.25,.05-.35,.15-.1,.1-.15,.21-.15,.35v3c0,.14,.05,.25,.15,.35,.1,.1,.22,.15,.35,.15H29.5c.14,0,.25-.05,.35-.15,.1-.1,.15-.22,.15-.35V3.5c0-.14-.05-.25-.15-.35-.1-.1-.22-.15-.35-.15H10.5Zm0,10.97c-.14,0-.25,.05-.35,.15-.1,.1-.15,.22-.15,.35v2.99c0,.14,.05,.25,.15,.35,.1,.1,.22,.15,.35,.15H29.5c.14,0,.25-.05,.35-.15,.1-.1,.15-.22,.15-.35v-2.99c0-.14-.05-.25-.15-.35-.1-.1-.22-.15-.35-.15H10.5Zm0,11.04c-.14,0-.25,.05-.35,.15-.1,.1-.15,.22-.15,.35v3c0,.14,.05,.25,.15,.35,.1,.1,.22,.15,.35,.15H29.5c.14,0,.25-.05,.35-.15,.1-.1,.15-.21,.15-.35v-3c0-.14-.05-.25-.15-.35-.1-.1-.22-.15-.35-.15H10.5Z" style="fill:#fff;"/><path d="M5,2c-.83,0-1.54,.29-2.13,.87-.58,.58-.87,1.29-.87,2.12s.29,1.54,.87,2.12c.58,.58,1.29,.87,2.13,.87s1.54-.29,2.13-.87c.58-.58,.88-1.29,.88-2.12s-.29-1.54-.88-2.12c-.58-.58-1.29-.88-2.13-.87Zm0,10.97c-.83,0-1.54,.29-2.13,.88-.58,.58-.87,1.29-.87,2.12s.29,1.54,.87,2.12,1.29,.88,2.13,.88,1.54-.29,2.13-.88c.58-.58,.88-1.29,.88-2.12s-.29-1.54-.88-2.12c-.58-.58-1.29-.88-2.13-.88Zm0,11.04c-.83,0-1.54,.29-2.13,.87s-.87,1.29-.87,2.12,.29,1.54,.87,2.12c.58,.58,1.29,.88,2.13,.88s1.54-.29,2.13-.88c.58-.58,.88-1.29,.88-2.12s-.29-1.54-.88-2.12-1.29-.87-2.13-.87Z" style="fill:#fff;"/></svg>