<?xml version="1.0" encoding="UTF-8"?><svg id="Layer_1" xmlns="http://www.w3.org/2000/svg" viewBox="0 0 32 32"><path d="M22.52,2c-3.24,0-5.38,2.15-6.52,3.72-1.14-1.57-3.29-3.72-6.52-3.72C5.4,2,2.04,5.68,2,10.21c-.04,3.95,1.25,7.6,3.94,11.16,1.26,1.67,3.55,4.34,8.84,8.22,.73,.54,1.69,.54,2.42,0,5.29-3.89,7.58-6.56,8.84-8.22,2.69-3.55,3.98-7.2,3.94-11.16-.04-4.53-3.4-8.21-7.48-8.21Zm-6.52,25.66V12.47c0-1.43,.35-2.83,.96-4.1,0,0,0,0,0-.01,.39-.77,.89-1.47,1.47-2.08,1.22-1.29,2.6-1.95,4.1-1.95,2.9,0,5.29,2.65,5.32,5.91,.07,7.63-5.95,13.09-11.84,17.43Z" style="fill:#fff;"/></svg>