<?xml version="1.0" encoding="UTF-8"?><svg id="Layer_1" xmlns="http://www.w3.org/2000/svg" viewBox="0 0 36 36"><path d="M27.9,25.08c.28-.39,.03-.93-.44-.97-6.29-.52-11.23-5.79-11.23-12.22,0-1.87,.43-3.64,1.18-5.22,.2-.43-.13-.92-.61-.88-6.71,.6-11.86,6.59-11.08,13.61,.69,6.21,6.68,11.17,12.92,10.85,5.09-.27,8.09-3.53,9.27-5.18Z" style="fill:#1e90ff;"/><path d="M18,1.8c8.93,0,16.2,7.27,16.2,16.2s-7.27,16.2-16.2,16.2S1.8,26.93,1.8,18,9.07,1.8,18,1.8m0-1.8C8.06,0,0,8.06,0,18s8.06,18,18,18,18-8.06,18-18S27.94,0,18,0h0Z" style="fill:#1e90ff;"/></svg>