<svg viewBox="0 0 32 32" xmlns="http://www.w3.org/2000/svg"><path d="m9.1 4.1a13.67 13.67 0 0 1 6.9-1.8 13.67 13.67 0 0 1 6.9 1.8 13.33 13.33 0 0 1 5 5 13.67 13.67 0 0 1 1.8 6.9 13.67 13.67 0 0 1 -1.8 6.9 13.33 13.33 0 0 1 -5 5 13.67 13.67 0 0 1 -6.9 1.8 13.67 13.67 0 0 1 -6.9-1.8 13.33 13.33 0 0 1 -5-5 13.67 13.67 0 0 1 -1.8-6.9 13.67 13.67 0 0 1 1.8-6.9 13.33 13.33 0 0 1 5-5zm11.8 7.5-.2.2-.2.2a.1.1 0 0 0 .1-.1c0-.1.1-.1.1-.2a.1.1 0 0 1 .1-.1 1.38 1.38 0 0 1 .4-.3 6.37 6.37 0 0 1 .9-.2.9.9 0 0 1 .9.2s0-.1.2-.2.2-.2.3-.2a.44.44 0 0 1 .3-.1c.1 0 .2-.1.3-.1v-.4a.37.37 0 0 1 -.3-.1c-.1-.1-.1-.2-.1-.4a.1.1 0 0 1 -.1.1c0-.1 0-.1-.1-.1h-.4c-.1 0-.2-.1-.3-.1a.37.37 0 0 1 -.1-.3c0-.1-.1-.2-.1-.3s-.1-.1-.2-.2l-.2-.2v-.1a.1.1 0 0 0 -.1-.1.1.1 0 0 0 -.1-.1h-.1a.1.1 0 0 0 -.1.1c0 .1-.1.1-.1.2a.1.1 0 0 1 -.1.1h-.2l-.1.1-.1.1a.31.31 0 0 0 -.2.1h-.2c.2-.1.2-.1 0-.2s-.2-.1-.3-.1c.1 0 .2-.1.1-.2s-.1-.2-.2-.3h.1l-.2-.2c-.1-.1-.2-.1-.3-.2a.35.35 0 0 1 -.2-.1c-.1-.1-.3-.1-.6-.2s-.5-.1-.6 0-.1.1-.1.2 0 .1.1.3a.35.35 0 0 0 .1.2c0 .1 0 .1-.1.2a.31.31 0 0 0 -.1.2q0 .15.3.3c.2 0 .3.1.2.3s-.1.2-.3.3a1.24 1.24 0 0 0 -.3.2.19.19 0 0 0 0 .3c0 .1.1.2.2.3v.1a.1.1 0 0 1 -.1.1l-.1.1a.1.1 0 0 0 -.1.1h-.1c-.1.1-.3 0-.4-.1a.76.76 0 0 1 -.2-.5c-.1-.3-.2-.5-.3-.5-.3-.1-.4-.1-.5 0-.1-.2-.3-.3-.7-.5a3.08 3.08 0 0 0 -1-.1q.15 0 0-.3c-.1-.2-.2-.3-.3-.2 0-.1.1-.2.1-.3v-.2a.52.52 0 0 1 .2-.4.35.35 0 0 0 .1-.2c.1-.1.1-.2.2-.2v-.1c.4 0 .7 0 .9-.2s.1-.2.2-.3.1-.2.2-.3a.37.37 0 0 1 .3-.1c.1 0 .1 0 .3.1a.37.37 0 0 0 .3.1c.2 0 .3-.1.3-.2a.6.6 0 0 0 -.1-.4c.1 0 .2-.1.1-.3s-.1-.1-.1-.2a1.09 1.09 0 0 0 -.5.1c-.1 0-.1.1 0 .1l-.2.2-.3.3c-.1.1-.2 0-.3-.1a.31.31 0 0 0 -.1-.2c-.1-.1-.1-.2-.2-.2s-.2.1-.3.3c0-.1 0-.2-.2-.3a.76.76 0 0 0 -.4-.1c0-.2 0-.4-.3-.5-.1 0-.2-.1-.4-.1s-.3 0-.3.1a.31.31 0 0 0 -.1.2c0 .1 0 .1.1.1s.1.1.2.1.1 0 .2.1.1 0 .2.1.1.1 0 .2a.31.31 0 0 0 -.2.1c-.1 0-.1.1-.2.1s-.1 0-.1.1v.6c-.1-.1-.1-.2-.2-.3s-.1-.2-.1-.3 0-.1-.4-.1h-.9a.35.35 0 0 1 -.2-.1v-.4s0-.1.1 0l-.2-.2-.2-.2c-.5.2-1.1.4-1.7.7h.2c.1 0 .1-.1.2-.1a.31.31 0 0 1 .2-.1c.4-.2.7-.2.8-.1l.1-.1.4.4c-.1 0-.3-.1-.5 0s-.4.1-.4.2a.49.49 0 0 1 .1.3l-.2-.2c-.1-.1-.2-.1-.3-.2a.19.19 0 0 1 -.3 0h-.4a12.35 12.35 0 0 0 -4.2 4 .31.31 0 0 0 .2.1.35.35 0 0 1 .1.2v.2a.31.31 0 0 0 .2-.1c.2.2.2.3.1.4a3 3 0 0 1 .8.5c.2.2.4.3.4.4s0 .2-.2.3l-.2-.2c-.1-.1-.1-.1-.2-.1v.3c0 .2.1.2.2.2-.1 0-.1.1-.2.3v1a1.76 1.76 0 0 0 .1.6c.1.3.2.4.4.3-.2 0 0 .3.4.8.1.1.1.1.1.2a.35.35 0 0 0 .2.1c.2.3.3.3.3.4l.2.2c0 .1.1.2.2.4a1.38 1.38 0 0 0 .3.4c0 .1 0 .2.2.4s.2.3.2.4.1.2.3.3.2.2.3.2v.2c0 .1 0 .1.1.2s.1.1.1 0a2.43 2.43 0 0 0 -.4-1.1 5.2 5.2 0 0 1 -.3-.5c0-.1-.1-.2-.1-.3s-.1-.2-.1-.3h.1a.31.31 0 0 1 .2.1c.1 0 .1 0 .1.1v.4c.1.1.1.2.2.3l.3.3.2.2.3.3c.1.2.1.2 0 .2.1 0 .2.1.4.2a1.38 1.38 0 0 1 .3.4 1.08 1.08 0 0 0 -.1.6 1 1 0 0 0 .1.4.22.22 0 0 0 .2.2.22.22 0 0 1 .2.2c.1 0 .2.1.3.1a.31.31 0 0 0 .2.1c.1 0 .2.1.3.2s.3.2.4.2.2.1.3.1h.3a.35.35 0 0 0 .2-.1.55.55 0 0 1 .5.3l.4.4a1.36 1.36 0 0 0 1 .2v.1c0 .1.1.2.1.3s.1.2.2.3.1.1.1.2l.3.3q.3.15.3.3c.1 0 .1-.1.1-.2a.76.76 0 0 0 .1.4c.1.1.2.2.3.2s.3-.2.3-.6a.59.59 0 0 1 -.9-.3v-.1c0-.1-.1-.1-.1-.2v-.3a.1.1 0 0 1 .1-.1c.1 0 .2 0 .2-.1v-.2a.35.35 0 0 0 -.1-.2c0-.1-.1-.2-.2-.4s-.2-.2-.2-.3c-.1.1-.2.2-.3.1s-.2-.1-.3-.2v.2h-.3v-.3c0-.2 0-.3.1-.4a.31.31 0 0 1 .1-.2.37.37 0 0 0 .1-.3.35.35 0 0 1 .1-.2c0-.1 0-.1-.1-.2s-.2-.1-.3 0a.51.51 0 0 0 -.5.4.31.31 0 0 1 -.1.2.31.31 0 0 0 -.1.2.35.35 0 0 1 -.2.1h-.4c-.2 0-.3 0-.4-.1a1 1 0 0 1 -.4-.5 2.54 2.54 0 0 1 -.2-.7v-.5c0-.2 0-.3.1-.4a.76.76 0 0 0 -.1-.4l.2-.2c.1-.1.1-.2.2-.2h.3a.1.1 0 0 1 .1-.1l-.1-.1-.1-.1h.5a.78.78 0 0 1 .5 0c.2.1.3.1.4 0v-.4c.1.3.2.4.5.2a.44.44 0 0 0 .3.1 1 1 0 0 1 .3.1l.1.1.1.1h.1a.35.35 0 0 1 .2-.1c.1.2.2.3.2.4a1.58 1.58 0 0 0 .3.8h.2a.35.35 0 0 0 .1-.2v-1c-.2 0-.3-.1-.3-.2v-.3c.1-.1.1-.2.3-.3a.1.1 0 0 0 .1-.1c.1 0 .2-.1.3-.1a.35.35 0 0 0 .2-.1.6.6 0 0 0 .3-.6c.1 0 .1-.1.2-.2l-.1-.1-.1-.1h-.1a.19.19 0 0 0 0-.3c.1 0 .1-.1.1-.2a.35.35 0 0 1 .1-.2c.1.1.2.2.4 0a.19.19 0 0 0 0-.3c.1-.1.2-.1.4-.2s.3-.1.3-.2h.1v-.2c0-.1 0-.2.1-.2s.1-.1.3-.2a.35.35 0 0 0 .2-.1l.3-.2v-.1a.73.73 0 0 0 .6-.2.25.25 0 0 0 -.1-.4c0-.1 0-.1-.1-.2s-.2-.1-.3-.1h.4c.2-.1.1-.2-.1-.3a1.6 1.6 0 0 0 -.8.3zm-2.9 15.7a11.21 11.21 0 0 0 6.3-3.4.35.35 0 0 0 -.2-.1c-.1 0-.2 0-.2-.1a1 1 0 0 0 -.4-.1v-.2c0-.1-.1-.1-.1-.2s-.1-.1-.2-.1a.31.31 0 0 0 -.2-.1l-.1-.1a.1.1 0 0 1 -.1-.1.1.1 0 0 1 -.1-.1h-.6a.1.1 0 0 0 -.1.1c0 .1-.1 0-.1.1a5.92 5.92 0 0 1 -.6-.4c-.1 0-.1 0-.2-.1s-.1-.1-.2-.1h-.2c-.1 0-.1.1-.2.1s-.1.1-.1.3v.2a.19.19 0 0 1 0-.3c.1-.1.1-.3 0-.3s-.1-.1-.2-.1-.2 0-.2.1-.1.1-.2.2-.1.1-.2.1a.31.31 0 0 0 -.2.1c-.1.1-.1.1-.2.1a.35.35 0 0 0 -.1.2.35.35 0 0 1 -.1.2.35.35 0 0 0 -.2-.1.35.35 0 0 1 -.2-.1 1.76 1.76 0 0 0 .1.6c0 .3.1.5.1.7a.9.9 0 0 1 -.2.9c-.3.3-.5.5-.5.7s0 .4.2.5a.76.76 0 0 1 -.1.4.76.76 0 0 0 -.1.4c-.2-.1-.1 0-.1.1z" fill="#2485ce"/></svg>