<svg viewBox="0 0 32 32" xmlns="http://www.w3.org/2000/svg"><path d="m28.8 18.6c0 .2-.1.3-.2.5a.76.76 0 0 0 .2-.5" fill="#fff"/><path d="m26.7 14.5v3.1a.37.37 0 0 1 -.1.3c-.1.1-.2.2-.3.2l-2.6.4a11.22 11.22 0 0 0 -.5 1.3 14.94 14.94 0 0 0 1.5 1.9.5.5 0 0 1 0 .6c-.3.3-.7.8-1.4 1.5s-1.1 1-1.3 1a.76.76 0 0 1 -.4-.1l-1.9-1.5a5 5 0 0 1 -1.3.5 18 18 0 0 1 -.4 2.6c-.1.3-.2.4-.5.4h-3.1a.37.37 0 0 1 -.3-.1c-.1-.1-.2-.2-.2-.3l-.4-2.6a5 5 0 0 1 -1.3-.5l-2 1.5a.37.37 0 0 1 -.3.1c-.1 0-.2-.1-.3-.2a23.67 23.67 0 0 1 -2.3-2.3.5.5 0 0 1 0-.6c.1-.2.4-.5.7-.9a11.49 11.49 0 0 1 .8-1 8.43 8.43 0 0 1 -.6-1.4l-2.5-.4c-.1 0-.2-.1-.3-.2a.37.37 0 0 1 -.1-.3v-3.1a.37.37 0 0 1 .1-.3c.1-.1.2-.2.3-.2l2.6-.4a6.94 6.94 0 0 1 .5-1.3c-.4-.5-.9-1.2-1.5-1.9a.5.5 0 0 1 0-.6 6 6 0 0 1 1.4-1.5c.7-.7 1.1-1 1.3-1a.76.76 0 0 1 .4.1l1.9 1.5a5 5 0 0 1 1.3-.5 18 18 0 0 1 .4-2.6c.1-.3.2-.4.5-.4h3.1a.37.37 0 0 1 .3.1c.1.1.1.2.2.3l.4 2.6a5 5 0 0 1 1.3.5l2-1.5a.5.5 0 0 1 .6 0 14.86 14.86 0 0 1 2.3 2.4.5.5 0 0 1 0 .6c-.1.2-.4.5-.7.9a11.49 11.49 0 0 1 -.8 1c.2.5.4.9.6 1.4l2.6.4c.1 0 .2.1.3.2zm-8.2 4a3.32 3.32 0 0 0 1-2.5 3.42 3.42 0 0 0 -3.5-3.5 3.42 3.42 0 0 0 -3.5 3.5 3.42 3.42 0 0 0 3.5 3.5 3.32 3.32 0 0 0 2.5-1z" fill="#2485ce"/></svg>