<svg id="Layer_1" data-name="Layer 1" xmlns="http://www.w3.org/2000/svg" viewBox="0 0 32 32"><defs><style>.cls-1{fill:#dd9445;}</style></defs><path class="cls-1" d="M17.7,4.6,29.2,25.7a2.12,2.12,0,0,1,0,1.9,2.34,2.34,0,0,1-.7.7,1.61,1.61,0,0,1-.9.3H4.6a1.4,1.4,0,0,1-.9-.3c-.2-.2-.7-.5-.8-.8a1.65,1.65,0,0,1,0-1.9l11.4-21a2.7,2.7,0,0,1,.7-.8,1.69,1.69,0,0,1,1-.3,1.93,1.93,0,0,1,1,.3A2.7,2.7,0,0,1,17.7,4.6Zm.2,13.9.3-6.9a.37.37,0,0,0-.1-.3.52.52,0,0,0-.4-.2H14.4c-.1,0-.2.1-.4.2a.37.37,0,0,0-.1.3l.3,6.8c0,.1,0,.2.1.2s.2.1.4.1h2.8a.6.6,0,0,0,.4-.1C17.8,18.7,17.9,18.6,17.9,18.5Zm0,5.6V21.3a.6.6,0,0,0-.1-.4.37.37,0,0,0-.3-.1H14.6a.37.37,0,0,0-.3.1c-.1.1-.1.2-.1.4v2.8a.6.6,0,0,0,.1.4.37.37,0,0,0,.3.1h2.9a.37.37,0,0,0,.3-.1C17.9,24.4,17.9,24.3,17.9,24.1Z"/></svg>