<svg viewBox="0 0 32 32" xmlns="http://www.w3.org/2000/svg"><g fill="#2485ce"><path d="m29.2 10.1a4.37 4.37 0 0 0 -.6-1l-4.2-4.2a2.07 2.07 0 0 0 -1-.6 2.66 2.66 0 0 0 -1.2-.3h-12a1 1 0 0 0 -.9.4 1.8 1.8 0 0 0 -.4.9v6.2a4.8 4.8 0 0 1 1.7-.5v-5.3h10.3v5.6a1 1 0 0 0 .4.9 1.22 1.22 0 0 0 .9.4h5.6v13.7h-17.2v-5.5a4.8 4.8 0 0 1 -1.7-.5v6.4a1 1 0 0 0 .4.9 1.8 1.8 0 0 0 .9.4h18a1 1 0 0 0 .9-.4 1.8 1.8 0 0 0 .4-.9v-15.4a2.66 2.66 0 0 0 -.3-1.2zm-6.6.8v-5a1.07 1.07 0 0 1 .5.3l4.2 4.2a2.19 2.19 0 0 1 .3.5z"/><path d="m2.5 22.6 3.2-3.2a6.36 6.36 0 0 1 -1.2-3.8 7.51 7.51 0 0 1 .5-2.6 6 6 0 0 1 1.4-2.1 6 6 0 0 1 2.1-1.4 7.51 7.51 0 0 1 2.6-.5 7.51 7.51 0 0 1 2.6.5 6 6 0 0 1 2.1 1.4 6 6 0 0 1 1.4 2.1 7.51 7.51 0 0 1 .5 2.6 7.51 7.51 0 0 1 -.5 2.6 6 6 0 0 1 -1.4 2.1 6 6 0 0 1 -2.1 1.4 7.51 7.51 0 0 1 -2.6.5 6.58 6.58 0 0 1 -3.8-1.2l-3.2 3.2a1.23 1.23 0 0 1 -.8.4.91.91 0 0 1 -.8-.4c-.2-.3-.4-.5-.4-.8a.91.91 0 0 1 .4-.8zm8.6-2.8a4.1 4.1 0 0 0 4.2-4.2 4.1 4.1 0 0 0 -4.2-4.2 4.1 4.1 0 0 0 -4.2 4.2 4.07 4.07 0 0 0 1.2 3 4.23 4.23 0 0 0 3 1.2z"/></g></svg>