<svg viewBox="0 0 32 32" xmlns="http://www.w3.org/2000/svg" xmlns:xlink="http://www.w3.org/1999/xlink"><filter id="a" color-interpolation-filters="sRGB" filterUnits="userSpaceOnUse" height="24" width="29.4" x=".1" y="4"><feFlood flood-color="#fff" result="bg"/><feBlend in="SourceGraphic" in2="bg"/></filter><mask id="b" height="24" maskUnits="userSpaceOnUse" width="29.4" x=".1" y="4"><g filter="url(#a)"><path d="m3.3 25.6a1.89 1.89 0 0 1 -1.63-.84l-.11-.15a2 2 0 0 1 -.46-1.21 1.93 1.93 0 0 1 .75-1.57l2.58-2.57a7.46 7.46 0 0 1 -.93-3.66 8.69 8.69 0 0 1 .56-2.95 7 7 0 0 1 1.63-2.46 7 7 0 0 1 2.46-1.63 8.69 8.69 0 0 1 2.95-.56 8.69 8.69 0 0 1 3 .56 7.42 7.42 0 0 1 4.09 4.09 8.69 8.69 0 0 1 .56 2.95 8.69 8.69 0 0 1 -.56 3 7.42 7.42 0 0 1 -4.09 4.09 8.69 8.69 0 0 1 -3 .56 7.36 7.36 0 0 1 -3.65-.94l-2.64 2.6a2.21 2.21 0 0 1 -1.51.69z"/><path d="m11.1 9a7.51 7.51 0 0 1 2.6.5 6 6 0 0 1 2.1 1.4 6 6 0 0 1 1.4 2.1 7.51 7.51 0 0 1 .5 2.6 7.51 7.51 0 0 1 -.5 2.6 6 6 0 0 1 -1.4 2.1 6 6 0 0 1 -2.1 1.4 7.51 7.51 0 0 1 -2.6.5 6.58 6.58 0 0 1 -3.8-1.2l-3.2 3.2a1.23 1.23 0 0 1 -.8.4.91.91 0 0 1 -.8-.4c-.2-.3-.4-.5-.4-.8a.91.91 0 0 1 .4-.8l3.2-3.2a6.36 6.36 0 0 1 -1.2-3.8 7.51 7.51 0 0 1 .5-2.6 6 6 0 0 1 1.4-2.1 6 6 0 0 1 2.1-1.4 7.51 7.51 0 0 1 2.6-.5m0-2a9.5 9.5 0 0 0 -3.3.63 7.83 7.83 0 0 0 -2.8 1.86 7.83 7.83 0 0 0 -1.87 2.81 9.5 9.5 0 0 0 -.63 3.3 8.57 8.57 0 0 0 .71 3.46l-2 2a2.92 2.92 0 0 0 -1.11 2.34 3 3 0 0 0 .65 1.79l.09.12a2.89 2.89 0 0 0 2.46 1.29 3.16 3.16 0 0 0 2.21-1l2.14-2.14a8.35 8.35 0 0 0 3.45.73 9.5 9.5 0 0 0 3.3-.63 7.83 7.83 0 0 0 2.81-1.86 7.83 7.83 0 0 0 1.86-2.81 9.5 9.5 0 0 0 .63-3.3 9.5 9.5 0 0 0 -.63-3.3 7.83 7.83 0 0 0 -1.86-2.81 7.83 7.83 0 0 0 -2.81-1.85 9.5 9.5 0 0 0 -3.3-.63z"/></g></mask><g mask="url(#b)"><path d="m28.6 9.1a3.33 3.33 0 0 1 .6 1 2.66 2.66 0 0 1 .3 1.2v15.4a1 1 0 0 1 -.4.9 1.8 1.8 0 0 1 -.9.4h-18a1 1 0 0 1 -.9-.4 1.8 1.8 0 0 1 -.4-.9v-21.4a1 1 0 0 1 .4-.9 1.8 1.8 0 0 1 .9-.4h12a2.66 2.66 0 0 1 1.2.3 4.37 4.37 0 0 1 1 .6z" fill="#fff"/></g><path d="m2.5 22.6 3.2-3.2a6.36 6.36 0 0 1 -1.2-3.8 7.51 7.51 0 0 1 .5-2.6 6 6 0 0 1 1.4-2.1 6 6 0 0 1 2.1-1.4 7.51 7.51 0 0 1 2.6-.5 7.51 7.51 0 0 1 2.6.5 6 6 0 0 1 2.1 1.4 6 6 0 0 1 1.4 2.1 7.51 7.51 0 0 1 .5 2.6 7.51 7.51 0 0 1 -.5 2.6 6 6 0 0 1 -1.4 2.1 6 6 0 0 1 -2.1 1.4 7.51 7.51 0 0 1 -2.6.5 6.58 6.58 0 0 1 -3.8-1.2l-3.2 3.2a1.23 1.23 0 0 1 -.8.4.91.91 0 0 1 -.8-.4c-.2-.3-.4-.5-.4-.8a.91.91 0 0 1 .4-.8zm8.6-2.8a4.1 4.1 0 0 0 4.2-4.2 4.1 4.1 0 0 0 -4.2-4.2 4.1 4.1 0 0 0 -4.2 4.2 4.07 4.07 0 0 0 1.2 3 4.23 4.23 0 0 0 3 1.2z" fill="#fff"/><path d="m21.69 6.42v5.39h5.38" fill="none" stroke="#121212" stroke-linecap="round" stroke-linejoin="round" stroke-width="1.5"/></svg>