<svg id="Layer_1" data-name="Layer 1" xmlns="http://www.w3.org/2000/svg" viewBox="0 0 32 32"><defs><style>.cls-1{fill:#2485ce;}</style></defs><path class="cls-1" d="M28.5,21.3v4.8a1.37,1.37,0,0,1-1.4,1.4H4.9a1.28,1.28,0,0,1-1-.4,1.28,1.28,0,0,1-.4-1V21.3a1.28,1.28,0,0,1,.4-1,1.28,1.28,0,0,1,1-.4h7l2,2a2.71,2.71,0,0,0,2,.8,2.79,2.79,0,0,0,2-.8l2-2h7a1.28,1.28,0,0,1,1,.4A1.52,1.52,0,0,1,28.5,21.3Zm-4.9-8.6a.91.91,0,0,1-.2,1.1l-6.8,6.8a1,1,0,0,1-1.4,0L8.4,13.8a.89.89,0,0,1-.2-1.1,1,1,0,0,1,.9-.6H13V5.4a.91.91,0,0,1,.3-.7.91.91,0,0,1,.7-.3h3.9a.91.91,0,0,1,.7.3.91.91,0,0,1,.3.7v6.8h3.9A.62.62,0,0,1,23.6,12.7ZM22.5,25.4a1,1,0,1,0-.7.3A1.49,1.49,0,0,0,22.5,25.4Zm3.8,0a1,1,0,1,0-.7.3A4.88,4.88,0,0,0,26.3,25.4Z"/></svg>