<svg viewBox="0 0 32 32" xmlns="http://www.w3.org/2000/svg"><path d="m28.5 21.3v4.8a1.37 1.37 0 0 1 -1.4 1.4h-22.2a1.28 1.28 0 0 1 -1-.4 1.28 1.28 0 0 1 -.4-1v-4.8a1.28 1.28 0 0 1 .4-1 1.28 1.28 0 0 1 1-.4h7l2 2a2.71 2.71 0 0 0 2 .8 2.79 2.79 0 0 0 2-.8l2-2h7a1.28 1.28 0 0 1 1 .4 1.52 1.52 0 0 1 .6 1zm-4.9-8.6a.91.91 0 0 1 -.2 1.1l-6.8 6.8a1 1 0 0 1 -1.4 0l-6.8-6.8a.89.89 0 0 1 -.2-1.1 1 1 0 0 1 .9-.6h3.9v-6.7a.91.91 0 0 1 .3-.7.91.91 0 0 1 .7-.3h3.9a.91.91 0 0 1 .7.3.91.91 0 0 1 .3.7v6.8h3.9a.62.62 0 0 1 .8.5zm-1.1 12.7a1 1 0 1 0 -.7.3 1.49 1.49 0 0 0 .7-.3zm3.8 0a1 1 0 1 0 -.7.3 4.88 4.88 0 0 0 .7-.3z" fill="#2485ce"/></svg>