<svg viewBox="0 0 32 32" xmlns="http://www.w3.org/2000/svg"><path d="m23.2 19.2v2.7a3.63 3.63 0 0 1 -1.2 2.8 4.2 4.2 0 0 1 -2.8 1.2h-11.6a3.63 3.63 0 0 1 -2.8-1.2 4.2 4.2 0 0 1 -1.2-2.8v-11.7a3.63 3.63 0 0 1 1.2-2.8 4.2 4.2 0 0 1 2.8-1.2h11.6a4.15 4.15 0 0 1 1.6.3c.2.1.2.2.3.3s0 .3-.1.4l-.7.7c-.2.2-.3.2-.5.1h-12.2a2.27 2.27 0 0 0 -1.6.6 2.36 2.36 0 0 0 -.7 1.6v11.6a2.13 2.13 0 0 0 .7 1.6 2.27 2.27 0 0 0 1.6.6h11.6a2.13 2.13 0 0 0 1.6-.7 2.36 2.36 0 0 0 .7-1.6v-1.7a.37.37 0 0 1 .1-.3l.9-.9a.44.44 0 0 1 .5-.1.76.76 0 0 1 .2.5zm-1.3-10.3 4 4-9.4 9.4h-4v-4zm-6 12 1.6-1.6-2.1-2.1-1.6 1.6v.8h1.3v1.3zm6.2-10a.45.45 0 0 0 -.5 0l-4.9 4.9c-.2.2-.2.3 0 .5a.45.45 0 0 0 .5 0l4.9-4.9a.45.45 0 0 0 0-.5zm6-.2-1.3 1.3-4-4 1.2-1.3a1.22 1.22 0 0 1 .9-.4 1 1 0 0 1 .9.4l2.1 2.1a1.22 1.22 0 0 1 .4.9 1.8 1.8 0 0 1 -.2 1z" fill="#2485ce"/></svg>