<svg id="Layer_1" data-name="Layer 1" xmlns="http://www.w3.org/2000/svg" viewBox="0 0 32 32"><defs><style>.cls-1{fill:#2485ce;}</style></defs><path class="cls-1" d="M27.6,25.8a2.11,2.11,0,0,1-.5,1.3,1.66,1.66,0,0,1-1.3.5,2.11,2.11,0,0,1-1.3-.5l-4.8-4.8A9.27,9.27,0,0,1,14.1,24a10,10,0,0,1-3.8-.8,9.27,9.27,0,0,1-3-2A10.46,10.46,0,0,1,5.2,18a10,10,0,0,1-.8-3.8,10,10,0,0,1,.8-3.8A8.51,8.51,0,0,1,7.3,7.3a11.29,11.29,0,0,1,3.1-2.1,10,10,0,0,1,3.8-.8,10,10,0,0,1,3.8.8,8.51,8.51,0,0,1,3.1,2.1,11.29,11.29,0,0,1,2.1,3.1,10,10,0,0,1,.8,3.8,10.23,10.23,0,0,1-1.7,5.6l4.8,4.8A1.66,1.66,0,0,1,27.6,25.8Zm-9-7.2a6,6,0,0,0,1.8-4.4A6.15,6.15,0,0,0,14.2,8,6.15,6.15,0,0,0,8,14.2a6.15,6.15,0,0,0,6.2,6.2A5.67,5.67,0,0,0,18.6,18.6Z"/></svg>