<svg viewBox="0 0 32 32" xmlns="http://www.w3.org/2000/svg"><path d="m28 23.23a2.17 2.17 0 0 1 -.53 1.41l-2.73 2.74a1.9 1.9 0 0 1 -1.42.53 2.17 2.17 0 0 1 -1.41-.53l-5.91-6-5.91 5.91a1.88 1.88 0 0 1 -1.41.53 2.22 2.22 0 0 1 -1.42-.53l-2.73-2.74a1.86 1.86 0 0 1 -.53-1.41 2 2 0 0 1 .53-1.41l5.91-5.91-5.82-5.82a1.75 1.75 0 0 1 -.62-1.42 2.17 2.17 0 0 1 .53-1.41l2.82-2.65a1.89 1.89 0 0 1 1.41-.52 2.2 2.2 0 0 1 1.42.53l5.82 5.91 5.91-5.92a1.88 1.88 0 0 1 1.41-.52 2.22 2.22 0 0 1 1.42.53l2.73 2.74a1.86 1.86 0 0 1 .53 1.4 2.17 2.17 0 0 1 -.53 1.41l-5.91 5.92 5.91 5.92a1.79 1.79 0 0 1 .53 1.31z" fill="#fff"/></svg>