<svg id="Layer_1" data-name="Layer 1" xmlns="http://www.w3.org/2000/svg" viewBox="0 0 32 32"><defs><style>.cls-1{fill:#aa3535;}</style></defs><path class="cls-1" d="M29.6,24.2a2.45,2.45,0,0,1-.6,1.6l-3.1,3.1a2.11,2.11,0,0,1-1.6.6,2.45,2.45,0,0,1-1.6-.6L16,22.1,9.3,28.8a2.11,2.11,0,0,1-1.6.6,2.45,2.45,0,0,1-1.6-.6L3,25.7a2.11,2.11,0,0,1-.6-1.6A2.27,2.27,0,0,1,3,22.5l6.7-6.7L3.1,9.2a2,2,0,0,1-.7-1.6A2.45,2.45,0,0,1,3,6L6.2,3a2.11,2.11,0,0,1,1.6-.6A2.45,2.45,0,0,1,9.4,3L16,9.7,22.7,3a2.11,2.11,0,0,1,1.6-.6,2.45,2.45,0,0,1,1.6.6L29,6.1a2.11,2.11,0,0,1,.6,1.6A2.45,2.45,0,0,1,29,9.3L22.3,16,29,22.7A2,2,0,0,1,29.6,24.2Z"/></svg>