<svg viewBox="0 0 32 32" xmlns="http://www.w3.org/2000/svg" xmlns:xlink="http://www.w3.org/1999/xlink"><filter id="a" color-interpolation-filters="sRGB" filterUnits="userSpaceOnUse" height="27.9" width="15.23" x="8.87" y="2"><feFlood flood-color="#fff" result="bg"/><feBlend in="SourceGraphic" in2="bg"/></filter><mask id="b" height="27.9" maskUnits="userSpaceOnUse" width="15.23" x="8.87" y="2"><path d="m21.4 19.7c.2 0 .3.1.5.2l1 1c.1 0 .2.2.2.4a1.69 1.69 0 0 1 -.2.5l-2.2 2.1 2.1 2.2a.76.76 0 0 1 .2.5c0 .2-.1.3-.2.5l-1 1a.76.76 0 0 1 -.5.2c-.2 0-.3-.1-.5-.2l-2-2.2-2.2 2.1a.76.76 0 0 1 -.5.2c-.2 0-.3-.1-.5-.2l-1-1a.76.76 0 0 1 -.2-.5c0-.2.1-.3.2-.5l2.1-2.1-2.1-2.1c-.2-.1-.2-.3-.2-.5s.1-.3.2-.5l1-.9a.76.76 0 0 1 .5-.2c.2 0 .3.1.5.2l2.2 2.1 2.1-2.1c.1-.2.3-.2.5-.2m0-1a1.48 1.48 0 0 0 -1.29.58l-1.33 1.32-1.49-1.42a.81.81 0 0 0 -.24-.17l-.05-.01a1.62 1.62 0 0 0 -.86-.26 1.75 1.75 0 0 0 -1.18.47l-1 .89a.89.89 0 0 0 -.22.29l-.05.09a1.62 1.62 0 0 0 -.26.86 1.48 1.48 0 0 0 .57 1.25l1.31 1.31-1.4 1.39a1.1 1.1 0 0 0 -.18.26l-.05.09a1.62 1.62 0 0 0 -.26.86 1.8 1.8 0 0 0 .49 1.21l1 1a1.1 1.1 0 0 0 .26.18l.09.05a1.62 1.62 0 0 0 .86.26 1.8 1.8 0 0 0 1.21-.49l1.44-1.38 1.31 1.44a.89.89 0 0 0 .29.22l.09.05a1.62 1.62 0 0 0 .86.26 1.8 1.8 0 0 0 1.21-.49l1-1a1.1 1.1 0 0 0 .18-.26v-.09a1.62 1.62 0 0 0 .29-.86 1.8 1.8 0 0 0 -.49-1.21l-1.4-1.46 1.48-1.41a1.05 1.05 0 0 0 .2-.27 2.13 2.13 0 0 0 .31-.95 1.45 1.45 0 0 0 -.61-1.23l-.88-.88a1.1 1.1 0 0 0 -.26-.18l-.09-.01a1.62 1.62 0 0 0 -.86-.26z" filter="url(#a)"/></mask><path d="m22.9 21.8c.1-.2.2-.3.2-.5 0 .2-.1.3-.2.5z" fill="none"/><g mask="url(#b)"><path d="m14.8 15a.47.47 0 0 1 -.5.5h-.8a.47.47 0 0 1 -.5-.5v-12.5a.47.47 0 0 1 .5-.5h.8a.47.47 0 0 1 .5.5zm.7 2.4c.3 0 .4-.2.2-.4l-.5-.7a1.23 1.23 0 0 0 -.8-.4h-1.2a1.23 1.23 0 0 0 -.8.4l-.3.7c-.2.2-.1.4.2.4z" fill="#2485ce"/><path d="m16.9 28a1 1 0 0 1 -1.4 0l-1-1a1 1 0 0 1 0-1.4l1.9-1.9-1.6-1.6h-3.7a.56.56 0 0 0 -.6.5l-1.6 6.8c-.1.3.1.5.4.5h9.4c.3 0 .4-.2.4-.5l-.7-3zm-2.7-6.8a.91.91 0 0 1 .3-.7l1-.9a1.07 1.07 0 0 1 1.2-.2l-.3-1.1a.63.63 0 0 0 -.6-.5h-3.8a.56.56 0 0 0 -.6.5l-.7 3c-.1.3.1.5.4.5h3.3a.85.85 0 0 1 -.2-.6z" fill="#2485ce"/><path d="m20.7 23.9 2.2-2.1a1.69 1.69 0 0 0 .2-.5c0-.2-.1-.4-.2-.4l-1-1c-.2-.1-.3-.2-.5-.2s-.4 0-.5.2l-2.1 2.1-2.2-2.1c-.2-.1-.3-.2-.5-.2a.76.76 0 0 0 -.5.2l-1 .9c-.1.2-.2.3-.2.5s0 .4.2.5l2.1 2.1-2.1 2.1c-.1.2-.2.3-.2.5a.76.76 0 0 0 .2.5l1 1c.2.1.3.2.5.2a.76.76 0 0 0 .5-.2l2.2-2.1 2 2.2c.2.1.3.2.5.2a.76.76 0 0 0 .5-.2l1-1c.1-.2.2-.3.2-.5a.76.76 0 0 0 -.2-.5z" fill="#aa3535"/></g></svg>