<svg id="Layer_1" data-name="Layer 1" xmlns="http://www.w3.org/2000/svg" viewBox="0 0 32 32"><defs><style>.cls-1{fill:#2485ce;}</style></defs><path class="cls-1" d="M23.2,19.2v2.7A3.63,3.63,0,0,1,22,24.7a4.2,4.2,0,0,1-2.8,1.2H7.6a3.63,3.63,0,0,1-2.8-1.2,4.2,4.2,0,0,1-1.2-2.8V10.2A3.63,3.63,0,0,1,4.8,7.4,4.2,4.2,0,0,1,7.6,6.2H19.2a4.15,4.15,0,0,1,1.6.3c.2.1.2.2.3.3s0,.3-.1.4l-.7.7c-.2.2-.3.2-.5.1H7.6A2.27,2.27,0,0,0,6,8.6a2.36,2.36,0,0,0-.7,1.6V21.8A2.13,2.13,0,0,0,6,23.4a2.27,2.27,0,0,0,1.6.6H19.2a2.13,2.13,0,0,0,1.6-.7,2.36,2.36,0,0,0,.7-1.6V20a.37.37,0,0,1,.1-.3l.9-.9a.44.44,0,0,1,.5-.1A.76.76,0,0,1,23.2,19.2ZM21.9,8.9l4,4-9.4,9.4h-4v-4Zm-6,12,1.6-1.6-2.1-2.1-1.6,1.6v.8h1.3v1.3Zm6.2-10a.45.45,0,0,0-.5,0l-4.9,4.9c-.2.2-.2.3,0,.5a.45.45,0,0,0,.5,0l4.9-4.9A.45.45,0,0,0,22.1,10.9Zm6-.2L26.8,12l-4-4L24,6.7a1.22,1.22,0,0,1,.9-.4,1,1,0,0,1,.9.4l2.1,2.1a1.22,1.22,0,0,1,.4.9A1.8,1.8,0,0,1,28.1,10.7Z"/></svg>