<svg id="Layer_1" data-name="Layer 1" xmlns="http://www.w3.org/2000/svg" viewBox="0 0 32 32"><defs><style>.cls-1{fill:#2485ce;}</style></defs><path class="cls-1" d="M28.8,18.6h0c0,.2-.1.3-.2.5a.76.76,0,0,0,.2-.5"/><path class="cls-1" d="M27.2,8.9a1,1,0,0,1,.9.4,1.8,1.8,0,0,1,.4.9v17a1,1,0,0,1-.4.9,1.8,1.8,0,0,1-.9.4H13.8a1,1,0,0,1-.9-.4,1.22,1.22,0,0,1-.4-.9v-4H4.8a1,1,0,0,1-.9-.4,1.8,1.8,0,0,1-.4-.9V12.5a2.66,2.66,0,0,1,.3-1.2,4.13,4.13,0,0,1,.7-1.1l5.7-5.7a3,3,0,0,1,1.1-.7,3,3,0,0,1,1.2-.3h5.8a1,1,0,0,1,.9.4,1.22,1.22,0,0,1,.4.9V9.4a3.23,3.23,0,0,1,1.8-.6h5.8ZM13.4,15.5l4.4-4.4V5.3H12.4v5.8a1,1,0,0,1-.4.9,1.22,1.22,0,0,1-.9.4H5.3v8.9h7.1V17.7a2.66,2.66,0,0,1,.3-1.2A3.59,3.59,0,0,1,13.4,15.5Zm-2.8-9L6.4,10.7h4.2ZM26.7,26.7V10.6H21.3v5.8a1,1,0,0,1-.4.9,1.22,1.22,0,0,1-.9.4H14.2v8.9H26.7ZM19.6,11.8,15.4,16h4.2Z"/></svg>