<svg viewBox="0 0 32 32" xmlns="http://www.w3.org/2000/svg"><g fill="#2485ce"><path d="m28.8 18.6c0 .2-.1.3-.2.5a.76.76 0 0 0 .2-.5"/><path d="m27.2 8.9a1 1 0 0 1 .9.4 1.8 1.8 0 0 1 .4.9v17a1 1 0 0 1 -.4.9 1.8 1.8 0 0 1 -.9.4h-13.4a1 1 0 0 1 -.9-.4 1.22 1.22 0 0 1 -.4-.9v-4h-7.7a1 1 0 0 1 -.9-.4 1.8 1.8 0 0 1 -.4-.9v-9.4a2.66 2.66 0 0 1 .3-1.2 4.13 4.13 0 0 1 .7-1.1l5.7-5.7a3 3 0 0 1 1.1-.7 3 3 0 0 1 1.2-.3h5.8a1 1 0 0 1 .9.4 1.22 1.22 0 0 1 .4.9v4.6a3.23 3.23 0 0 1 1.8-.6h5.8zm-13.8 6.6 4.4-4.4v-5.8h-5.4v5.8a1 1 0 0 1 -.4.9 1.22 1.22 0 0 1 -.9.4h-5.8v8.9h7.1v-3.6a2.66 2.66 0 0 1 .3-1.2 3.59 3.59 0 0 1 .7-1zm-2.8-9-4.2 4.2h4.2zm16.1 20.2v-16.1h-5.4v5.8a1 1 0 0 1 -.4.9 1.22 1.22 0 0 1 -.9.4h-5.8v8.9h12.5zm-7.1-14.9-4.2 4.2h4.2z"/></g></svg>