<svg id="Layer_1" data-name="Layer 1" xmlns="http://www.w3.org/2000/svg" xmlns:xlink="http://www.w3.org/1999/xlink" viewBox="0 0 32 32"><defs><style>.cls-1{filter:url(#luminosity-noclip);}.cls-2{fill:none;}.cls-3{mask:url(#mask);}.cls-4{fill:#2485ce;}.cls-5{fill:#aa3535;}</style><filter id="luminosity-noclip" x="8.87" y="2" width="15.23" height="27.9" filterUnits="userSpaceOnUse" color-interpolation-filters="sRGB"><feFlood flood-color="#fff" result="bg"/><feBlend in="SourceGraphic" in2="bg"/></filter><mask id="mask" x="8.87" y="2" width="15.23" height="27.9" maskUnits="userSpaceOnUse"><path class="cls-1" d="M21.4,19.7c.2,0,.3.1.5.2l1,1c.1,0,.2.2.2.4a1.69,1.69,0,0,1-.2.5l-2.2,2.1h0l2.1,2.2a.76.76,0,0,1,.2.5c0,.2-.1.3-.2.5l-1,1a.76.76,0,0,1-.5.2c-.2,0-.3-.1-.5-.2l-2-2.2L16.6,28a.76.76,0,0,1-.5.2c-.2,0-.3-.1-.5-.2l-1-1a.76.76,0,0,1-.2-.5c0-.2.1-.3.2-.5l2.1-2.1-2.1-2.1c-.2-.1-.2-.3-.2-.5s.1-.3.2-.5l1-.9a.76.76,0,0,1,.5-.2c.2,0,.3.1.5.2L18.8,22l2.1-2.1c.1-.2.3-.2.5-.2m0-1a1.48,1.48,0,0,0-1.29.58L18.78,20.6l-1.49-1.42a.81.81,0,0,0-.24-.17L17,19a1.62,1.62,0,0,0-.86-.26,1.75,1.75,0,0,0-1.18.47l-1,.89a.89.89,0,0,0-.22.29l-.05.09a1.62,1.62,0,0,0-.26.86A1.48,1.48,0,0,0,14,22.59l1.31,1.31-1.4,1.39a1.1,1.1,0,0,0-.18.26l-.05.09a1.62,1.62,0,0,0-.26.86,1.8,1.8,0,0,0,.49,1.21l1,1a1.1,1.1,0,0,0,.26.18l.09.05a1.62,1.62,0,0,0,.86.26,1.8,1.8,0,0,0,1.21-.49l1.44-1.38,1.31,1.44a.89.89,0,0,0,.29.22l.09.05a1.62,1.62,0,0,0,.86.26,1.8,1.8,0,0,0,1.21-.49l1-1a1.1,1.1,0,0,0,.18-.26l0-.09A1.62,1.62,0,0,0,24,26.6a1.8,1.8,0,0,0-.49-1.21l-1.4-1.46,1.48-1.41a1.05,1.05,0,0,0,.2-.27,2.13,2.13,0,0,0,.31-.95,1.45,1.45,0,0,0-.61-1.23l-.88-.88a1.1,1.1,0,0,0-.26-.18L22.26,19a1.62,1.62,0,0,0-.86-.26Z"/></mask></defs><path class="cls-2" d="M22.9,21.8c.1-.2.2-.3.2-.5C23.1,21.5,23,21.6,22.9,21.8Z"/><g class="cls-3"><path class="cls-4" d="M14.8,15a.47.47,0,0,1-.5.5h-.8A.47.47,0,0,1,13,15V2.5a.47.47,0,0,1,.5-.5h.8a.47.47,0,0,1,.5.5Zm.7,2.4c.3,0,.4-.2.2-.4l-.5-.7a1.23,1.23,0,0,0-.8-.4H13.2a1.23,1.23,0,0,0-.8.4l-.3.7c-.2.2-.1.4.2.4Z"/><path class="cls-4" d="M16.9,28a1,1,0,0,1-1.4,0l-1-1a1,1,0,0,1,0-1.4l1.9-1.9-1.6-1.6H11.1a.56.56,0,0,0-.6.5L8.9,29.4c-.1.3.1.5.4.5h9.4c.3,0,.4-.2.4-.5l-.7-3L16.9,28Zm-2.7-6.8a.91.91,0,0,1,.3-.7l1-.9a1.07,1.07,0,0,1,1.2-.2l-.3-1.1a.63.63,0,0,0-.6-.5H12a.56.56,0,0,0-.6.5l-.7,3c-.1.3.1.5.4.5h3.3A.85.85,0,0,1,14.2,21.2Z"/><path class="cls-5" d="M20.7,23.9l2.2-2.1a1.69,1.69,0,0,0,.2-.5c0-.2-.1-.4-.2-.4l-1-1c-.2-.1-.3-.2-.5-.2s-.4,0-.5.2L18.8,22l-2.2-2.1c-.2-.1-.3-.2-.5-.2a.76.76,0,0,0-.5.2l-1,.9c-.1.2-.2.3-.2.5s0,.4.2.5l2.1,2.1L14.6,26c-.1.2-.2.3-.2.5a.76.76,0,0,0,.2.5l1,1c.2.1.3.2.5.2a.76.76,0,0,0,.5-.2l2.2-2.1,2,2.2c.2.1.3.2.5.2a.76.76,0,0,0,.5-.2l1-1c.1-.2.2-.3.2-.5a.76.76,0,0,0-.2-.5l-2.1-2.2Z"/></g></svg>