<svg viewBox="0 0 32 32" xmlns="http://www.w3.org/2000/svg"><path d="m29.6 24.2a2.45 2.45 0 0 1 -.6 1.6l-3.1 3.1a2.11 2.11 0 0 1 -1.6.6 2.45 2.45 0 0 1 -1.6-.6l-6.7-6.8-6.7 6.7a2.11 2.11 0 0 1 -1.6.6 2.45 2.45 0 0 1 -1.6-.6l-3.1-3.1a2.11 2.11 0 0 1 -.6-1.6 2.27 2.27 0 0 1 .6-1.6l6.7-6.7-6.6-6.6a2 2 0 0 1 -.7-1.6 2.45 2.45 0 0 1 .6-1.6l3.2-3a2.11 2.11 0 0 1 1.6-.6 2.45 2.45 0 0 1 1.6.6l6.6 6.7 6.7-6.7a2.11 2.11 0 0 1 1.6-.6 2.45 2.45 0 0 1 1.6.6l3.1 3.1a2.11 2.11 0 0 1 .6 1.6 2.45 2.45 0 0 1 -.6 1.6l-6.7 6.7 6.7 6.7a2 2 0 0 1 .6 1.5z" fill="#aa3535"/></svg>