<svg viewBox="0 0 32 32" xmlns="http://www.w3.org/2000/svg"><path d="m27.6 25.8a2.11 2.11 0 0 1 -.5 1.3 1.66 1.66 0 0 1 -1.3.5 2.11 2.11 0 0 1 -1.3-.5l-4.8-4.8a9.27 9.27 0 0 1 -5.6 1.7 10 10 0 0 1 -3.8-.8 9.27 9.27 0 0 1 -3-2 10.46 10.46 0 0 1 -2.1-3.2 10 10 0 0 1 -.8-3.8 10 10 0 0 1 .8-3.8 8.51 8.51 0 0 1 2.1-3.1 11.29 11.29 0 0 1 3.1-2.1 10 10 0 0 1 3.8-.8 10 10 0 0 1 3.8.8 8.51 8.51 0 0 1 3.1 2.1 11.29 11.29 0 0 1 2.1 3.1 10 10 0 0 1 .8 3.8 10.23 10.23 0 0 1 -1.7 5.6l4.8 4.8a1.66 1.66 0 0 1 .5 1.2zm-9-7.2a6 6 0 0 0 1.8-4.4 6.15 6.15 0 0 0 -6.2-6.2 6.15 6.15 0 0 0 -6.2 6.2 6.15 6.15 0 0 0 6.2 6.2 5.67 5.67 0 0 0 4.4-1.8z" fill="#2485ce"/></svg>