<svg viewBox="0 0 32 32" xmlns="http://www.w3.org/2000/svg" xmlns:xlink="http://www.w3.org/1999/xlink"><filter id="a" color-interpolation-filters="sRGB" filterUnits="userSpaceOnUse" height="26.53" width="26.5" x="3.5" y="3.5"><feFlood flood-color="#fff" result="bg"/><feBlend in="SourceGraphic" in2="bg"/></filter><mask id="b" height="26.53" maskUnits="userSpaceOnUse" width="26.5" x="3.5" y="3.5"><path d="m27.48 8.73a1.41 1.41 0 0 1 .71.32.76.76 0 0 1 .31.7v17.77a1.45 1.45 0 0 1 -.31.7.77.77 0 0 1 -.71.31h-14.1a1.36 1.36 0 0 1 -.7-.31.76.76 0 0 1 -.32-.7v-13.07a2.08 2.08 0 0 1 .24-.94 2.54 2.54 0 0 1 .47-.78l3.29-3.29a3.32 3.32 0 0 1 .78-.44 2.05 2.05 0 0 1 .94-.24h9.4m0-1.5h-9.4a3.58 3.58 0 0 0 -1.61.4 4.25 4.25 0 0 0 -1.17.75l-3.3 3.26-.11.1-.08.13-.09.11a3.59 3.59 0 0 0 -.54 1 3.54 3.54 0 0 0 -.33 1.48v13.03a2.23 2.23 0 0 0 1 1.95 2.77 2.77 0 0 0 1.54.56h14.1a2.18 2.18 0 0 0 1.95-1 2.63 2.63 0 0 0 .56-1.51v-17.77a2.21 2.21 0 0 0 -1-1.95 2.7 2.7 0 0 0 -1.54-.57z" filter="url(#a)"/></mask><g mask="url(#b)"><path d="m18.1 5v5.15l-4.85 4.79a5 5 0 0 0 -1.09 2.85v3.91h-7.16v-16.7zm.2-1.5h-13.5a1 1 0 0 0 -.9.4 1.8 1.8 0 0 0 -.4.9v17.1a1.8 1.8 0 0 0 .4.9 1 1 0 0 0 .9.4h8.9v-5.42a3.85 3.85 0 0 1 .61-1.78l5.29-5.22v-6a1.22 1.22 0 0 0 -.4-.9 1 1 0 0 0 -.9-.4z" fill="#fff"/></g><path d="m19.6 11.8-4.2 4.2h4.2z" fill="#fff"/><path d="m13.07 12.73 3.29-3.29a3.32 3.32 0 0 1 .78-.44 2.05 2.05 0 0 1 .94-.24h9.4a1.41 1.41 0 0 1 .71.32.76.76 0 0 1 .31.7v17.74a1.45 1.45 0 0 1 -.31.7.77.77 0 0 1 -.71.31h-14.1a1.36 1.36 0 0 1 -.7-.31.76.76 0 0 1 -.32-.7v-13.07a2.08 2.08 0 0 1 .24-.94 2.54 2.54 0 0 1 .47-.78z" fill="#fff"/><path d="m14.26 14.85h4.22v-4.22" fill="none" stroke="#121212" stroke-linecap="round" stroke-linejoin="round" stroke-width="1.5"/></svg>