<svg viewBox="0 0 32 32" xmlns="http://www.w3.org/2000/svg"><path d="m25.8 27.2v.9a.35.35 0 0 1 -.4.4h-18.8a.35.35 0 0 1 -.4-.4v-.9a.35.35 0 0 1 .4-.4h18.8a.37.37 0 0 1 .3.1c.1 0 .1.1.1.3zm-3.5-14.8a6.45 6.45 0 0 1 -.3 2 4.35 4.35 0 0 1 -1 1.6l-1.2 1.2c-.4.4-.9.7-1.3 1.1a12.7 12.7 0 0 0 -1.2 1 3.13 3.13 0 0 0 -.9 1.1 3.08 3.08 0 0 0 -.3 1.3 7.07 7.07 0 0 0 .9 3.1h-.1a21.82 21.82 0 0 1 -2.2-1.2 23.07 23.07 0 0 1 -1.9-1.4 8.52 8.52 0 0 1 -1.6-1.7 6.81 6.81 0 0 1 -1-2.1 7.46 7.46 0 0 1 -.4-2.6 6.45 6.45 0 0 1 .3-2 5.07 5.07 0 0 1 .9-1.6l1.2-1.2c.4-.4.9-.7 1.3-1.1a12.7 12.7 0 0 0 1.2-1 3.13 3.13 0 0 0 .9-1.1 1.59 1.59 0 0 0 .4-1.2 7.07 7.07 0 0 0 -.9-3.1 21.82 21.82 0 0 1 2.2 1.2 8.11 8.11 0 0 1 2 1.4 8.32 8.32 0 0 1 1.6 1.7 6.81 6.81 0 0 1 1 2.1 10.05 10.05 0 0 1 .4 2.5z" fill="#dd9445"/></svg>