<svg id="Layer_1" data-name="Layer 1" xmlns="http://www.w3.org/2000/svg" viewBox="0 0 32 32"><defs><style>.cls-1{fill:#dd9445;}</style></defs><path class="cls-1" d="M25.8,27.2v.9a.35.35,0,0,1-.4.4H6.6a.35.35,0,0,1-.4-.4v-.9a.35.35,0,0,1,.4-.4H25.4a.37.37,0,0,1,.3.1C25.8,26.9,25.8,27,25.8,27.2ZM22.3,12.4a6.45,6.45,0,0,1-.3,2A4.35,4.35,0,0,1,21,16l-1.2,1.2c-.4.4-.9.7-1.3,1.1a12.7,12.7,0,0,0-1.2,1,3.13,3.13,0,0,0-.9,1.1,3.08,3.08,0,0,0-.3,1.3,7.07,7.07,0,0,0,.9,3.1h-.1a21.82,21.82,0,0,1-2.2-1.2,23.07,23.07,0,0,1-1.9-1.4,8.52,8.52,0,0,1-1.6-1.7,6.81,6.81,0,0,1-1-2.1,7.46,7.46,0,0,1-.4-2.6,6.45,6.45,0,0,1,.3-2,5.07,5.07,0,0,1,.9-1.6L12.2,11c.4-.4.9-.7,1.3-1.1a12.7,12.7,0,0,0,1.2-1,3.13,3.13,0,0,0,.9-1.1A1.59,1.59,0,0,0,16,6.6a7.07,7.07,0,0,0-.9-3.1,21.82,21.82,0,0,1,2.2,1.2,8.11,8.11,0,0,1,2,1.4,8.32,8.32,0,0,1,1.6,1.7,6.81,6.81,0,0,1,1,2.1A10.05,10.05,0,0,1,22.3,12.4Z"/></svg>