<svg viewBox="0 0 32 32" xmlns="http://www.w3.org/2000/svg" xmlns:xlink="http://www.w3.org/1999/xlink"><filter id="a" color-interpolation-filters="sRGB" filterUnits="userSpaceOnUse" height="27.4" width="27.8" x="2.6" y="2.9"><feFlood flood-color="#fff" result="bg"/><feBlend in="SourceGraphic" in2="bg"/></filter><mask id="b" height="27.4" maskUnits="userSpaceOnUse" width="27.8" x="2.6" y="2.9"><g filter="url(#a)"><path d="m21.1 29.8a1.39 1.39 0 0 1 -1.05-.45 1.59 1.59 0 0 1 -.45-1.05v-3.7h-3.7a1.39 1.39 0 0 1 -1.05-.45 1.59 1.59 0 0 1 -.45-1v-2a1.39 1.39 0 0 1 .45-1.05 1.59 1.59 0 0 1 1.05-.45h3.7v-3.75a1.39 1.39 0 0 1 .45-1.05 1.59 1.59 0 0 1 1.05-.45h2a1.39 1.39 0 0 1 1 .45 1.59 1.59 0 0 1 .45 1.05v3.7h3.7a1.43 1.43 0 0 1 1 .37 1.19 1.19 0 0 1 .62 1.13v2a1.39 1.39 0 0 1 -.45 1 1.59 1.59 0 0 1 -1.05.45h-3.77v3.7a1.39 1.39 0 0 1 -.45 1.05 1.59 1.59 0 0 1 -1 .45z"/><path d="m23.1 14.9a.91.91 0 0 1 .7.3 1.14 1.14 0 0 1 .3.7v4.2h4.2a.91.91 0 0 1 .7.3.67.67 0 0 1 .4.7v2a.91.91 0 0 1 -.3.7 1.14 1.14 0 0 1 -.7.3h-4.3v4.2a.91.91 0 0 1 -.3.7 1.14 1.14 0 0 1 -.7.3h-2a.91.91 0 0 1 -.7-.3 1.14 1.14 0 0 1 -.3-.7v-4.2h-4.2a.91.91 0 0 1 -.7-.3 1.14 1.14 0 0 1 -.3-.7v-2a.91.91 0 0 1 .3-.7 1.14 1.14 0 0 1 .7-.3h4.2v-4.2a.91.91 0 0 1 .3-.7 1.14 1.14 0 0 1 .7-.3zm0-1h-2a2.16 2.16 0 0 0 -1.41.59 1.9 1.9 0 0 0 -.59 1.41v3.2h-3.2a2.16 2.16 0 0 0 -1.41.59 1.9 1.9 0 0 0 -.59 1.41v2a2.16 2.16 0 0 0 .59 1.41 1.9 1.9 0 0 0 1.41.59h3.2v3.2a2.16 2.16 0 0 0 .59 1.41 1.9 1.9 0 0 0 1.41.59h2a2.16 2.16 0 0 0 1.41-.59 1.9 1.9 0 0 0 .59-1.41v-3.2h3.3a2.16 2.16 0 0 0 1.41-.59 1.9 1.9 0 0 0 .59-1.41v-2a1.72 1.72 0 0 0 -.84-1.55 1.93 1.93 0 0 0 -1.26-.45h-3.2v-3.2a2.16 2.16 0 0 0 -.59-1.41 1.9 1.9 0 0 0 -1.41-.59z"/></g></mask><g mask="url(#b)"><path d="m29 13.1a2.19 2.19 0 0 0 -.9-1 3.19 3.19 0 0 0 -1.4-.3h-2.7v-2.2a3.07 3.07 0 0 0 -3.1-3.1h-7.6v-.4a2.94 2.94 0 0 0 -.9-2.2 3.21 3.21 0 0 0 -2.2-1h-4.5a2.94 2.94 0 0 0 -2.2.9 3.17 3.17 0 0 0 -.9 2.3v13.4a2.94 2.94 0 0 0 .9 2.2 2.94 2.94 0 0 0 2.2.9h9l9.16-1-3.1-.26 4.74-1.8 3.1-3.8a2.72 2.72 0 0 0 .6-1.7 2.39 2.39 0 0 0 -.2-.94zm-24.6-7a1 1 0 0 1 .4-.9 1.8 1.8 0 0 1 .9-.4h4.5a1 1 0 0 1 .9.4 1.22 1.22 0 0 1 .4.9v.9a1 1 0 0 0 .4.9 1.22 1.22 0 0 0 .9.4h8a1 1 0 0 1 .9.4 1.22 1.22 0 0 1 .4.9v2.2h-10.6a5.34 5.34 0 0 0 -2 .5 4 4 0 0 0 -1.6 1.2l-3.5 4.5z" fill="#2485ce"/></g><path d="m28.4 18.7c0 .2-.1.3-.2.5a.76.76 0 0 0 .2-.5" fill="#fff"/><path d="m29.4 21.1v2a.91.91 0 0 1 -.3.7 1.14 1.14 0 0 1 -.7.3h-4.3v4.2a.91.91 0 0 1 -.3.7 1.14 1.14 0 0 1 -.7.3h-2a.91.91 0 0 1 -.7-.3 1.14 1.14 0 0 1 -.3-.7v-4.2h-4.2a.91.91 0 0 1 -.7-.3 1.14 1.14 0 0 1 -.3-.7v-2a.91.91 0 0 1 .3-.7 1.14 1.14 0 0 1 .7-.3h4.2v-4.2a.91.91 0 0 1 .3-.7 1.14 1.14 0 0 1 .7-.3h2a.91.91 0 0 1 .7.3 1.14 1.14 0 0 1 .3.7v4.2h4.2a.91.91 0 0 1 .7.3.67.67 0 0 1 .4.7z" fill="#5db634"/></svg>