<svg viewBox="0 0 32 32" xmlns="http://www.w3.org/2000/svg" xmlns:xlink="http://www.w3.org/1999/xlink"><filter id="a" color-interpolation-filters="sRGB" filterUnits="userSpaceOnUse" height="27.9" width="28.3" x="2.6" y="2.9"><feFlood flood-color="#fff" result="bg"/><feBlend in="SourceGraphic" in2="bg"/></filter><mask id="b" height="27.9" maskUnits="userSpaceOnUse" width="28.3" x="2.6" y="2.9"><g filter="url(#a)"><path d="m21.1 30.05a1.64 1.64 0 0 1 -1.23-.52 1.91 1.91 0 0 1 -.52-1.23v-3.45h-3.45a1.61 1.61 0 0 1 -1.23-.52 1.86 1.86 0 0 1 -.52-1.23v-2a1.64 1.64 0 0 1 .52-1.23 1.91 1.91 0 0 1 1.23-.52h3.45v-3.45a1.61 1.61 0 0 1 .52-1.23 1.91 1.91 0 0 1 1.23-.52h2a1.64 1.64 0 0 1 1.23.52 1.91 1.91 0 0 1 .52 1.23v3.45h3.45a1.65 1.65 0 0 1 1.12.41 1.43 1.43 0 0 1 .73 1.34v2a1.65 1.65 0 0 1 -.52 1.23 1.88 1.88 0 0 1 -1.23.52h-3.55v3.45a1.65 1.65 0 0 1 -.52 1.23 1.86 1.86 0 0 1 -1.23.52z"/><path d="m23.1 14.9a.91.91 0 0 1 .7.3 1.14 1.14 0 0 1 .3.7v4.2h4.2a.91.91 0 0 1 .7.3.67.67 0 0 1 .4.7v2a.91.91 0 0 1 -.3.7 1.14 1.14 0 0 1 -.7.3h-4.3v4.2a.91.91 0 0 1 -.3.7 1.14 1.14 0 0 1 -.7.3h-2a.91.91 0 0 1 -.7-.3 1.14 1.14 0 0 1 -.3-.7v-4.2h-4.2a.91.91 0 0 1 -.7-.3 1.14 1.14 0 0 1 -.3-.7v-2a.91.91 0 0 1 .3-.7 1.14 1.14 0 0 1 .7-.3h4.2v-4.2a.91.91 0 0 1 .3-.7 1.14 1.14 0 0 1 .7-.3zm0-1.5h-2a2.64 2.64 0 0 0 -1.76.74 2.41 2.41 0 0 0 -.74 1.76v2.7h-2.7a2.64 2.64 0 0 0 -1.76.74 2.41 2.41 0 0 0 -.74 1.76v2a2.64 2.64 0 0 0 .74 1.76 2.41 2.41 0 0 0 1.76.74h2.7v2.7a2.64 2.64 0 0 0 .74 1.76 2.41 2.41 0 0 0 1.76.74h2a2.64 2.64 0 0 0 1.76-.74 2.41 2.41 0 0 0 .74-1.76v-2.7h2.8a2.64 2.64 0 0 0 1.76-.74 2.41 2.41 0 0 0 .74-1.76v-2a2.16 2.16 0 0 0 -1.07-2 2.35 2.35 0 0 0 -1.53-.54h-2.7v-2.66a2.64 2.64 0 0 0 -.74-1.76 2.41 2.41 0 0 0 -1.76-.74z"/></g></mask><g mask="url(#b)"><path d="m29 13.1a2.19 2.19 0 0 0 -.9-1 3.19 3.19 0 0 0 -1.4-.3h-2.7v-2.2a3.07 3.07 0 0 0 -3.1-3.1h-7.6v-.4a2.94 2.94 0 0 0 -.9-2.2 3.21 3.21 0 0 0 -2.2-1h-4.5a2.94 2.94 0 0 0 -2.2.9 3.17 3.17 0 0 0 -.9 2.3v13.4a2.94 2.94 0 0 0 .9 2.2 2.94 2.94 0 0 0 2.2.9h9l9.16-1-3.1-.26 4.74-1.8 3.1-3.8a2.72 2.72 0 0 0 .6-1.7 2.39 2.39 0 0 0 -.2-.94zm-24.6-7a1 1 0 0 1 .4-.9 1.8 1.8 0 0 1 .9-.4h4.5a1 1 0 0 1 .9.4 1.22 1.22 0 0 1 .4.9v.9a1 1 0 0 0 .4.9 1.22 1.22 0 0 0 .9.4h8a1 1 0 0 1 .9.4 1.22 1.22 0 0 1 .4.9v2.2h-10.6a5.34 5.34 0 0 0 -2 .5 4 4 0 0 0 -1.6 1.2l-3.5 4.5z" fill="#fff"/></g><path d="m29.4 21.1v2a.91.91 0 0 1 -.3.7 1.14 1.14 0 0 1 -.7.3h-4.3v4.2a.91.91 0 0 1 -.3.7 1.14 1.14 0 0 1 -.7.3h-2a.91.91 0 0 1 -.7-.3 1.14 1.14 0 0 1 -.3-.7v-4.2h-4.2a.91.91 0 0 1 -.7-.3 1.14 1.14 0 0 1 -.3-.7v-2a.91.91 0 0 1 .3-.7 1.14 1.14 0 0 1 .7-.3h4.2v-4.2a.91.91 0 0 1 .3-.7 1.14 1.14 0 0 1 .7-.3h2a.91.91 0 0 1 .7.3 1.14 1.14 0 0 1 .3.7v4.2h4.2a.91.91 0 0 1 .7.3.67.67 0 0 1 .4.7z" fill="#76dd40"/></svg>