<svg id="Layer_1" data-name="Layer 1" xmlns="http://www.w3.org/2000/svg" xmlns:xlink="http://www.w3.org/1999/xlink" viewBox="0 0 32 32"><defs><style>.cls-1{mask:url(#mask);}.cls-2{fill:#2485ce;}.cls-3{fill:#fff;}.cls-4{fill:#5db634;}.cls-5{filter:url(#luminosity-noclip);}</style><filter id="luminosity-noclip" x="2.6" y="2.9" width="27.8" height="27.4" filterUnits="userSpaceOnUse" color-interpolation-filters="sRGB"><feFlood flood-color="#fff" result="bg"/><feBlend in="SourceGraphic" in2="bg"/></filter><mask id="mask" x="2.6" y="2.9" width="27.8" height="27.4" maskUnits="userSpaceOnUse"><g class="cls-5"><path d="M21.1,29.8a1.39,1.39,0,0,1-1.05-.45,1.59,1.59,0,0,1-.45-1.05V24.6H15.9a1.39,1.39,0,0,1-1.05-.45,1.59,1.59,0,0,1-.45-1v-2a1.39,1.39,0,0,1,.45-1.05,1.59,1.59,0,0,1,1.05-.45h3.7V15.9a1.39,1.39,0,0,1,.45-1.05,1.59,1.59,0,0,1,1.05-.45h2a1.39,1.39,0,0,1,1,.45,1.59,1.59,0,0,1,.45,1.05v3.7h3.7a1.43,1.43,0,0,1,1,.37,1.19,1.19,0,0,1,.62,1.13v2a1.39,1.39,0,0,1-.45,1,1.59,1.59,0,0,1-1.05.45H24.6v3.7a1.39,1.39,0,0,1-.45,1.05,1.59,1.59,0,0,1-1,.45Z"/><path d="M23.1,14.9a.91.91,0,0,1,.7.3,1.14,1.14,0,0,1,.3.7v4.2h4.2a.91.91,0,0,1,.7.3.67.67,0,0,1,.4.7v2a.91.91,0,0,1-.3.7,1.14,1.14,0,0,1-.7.3H24.1v4.2a.91.91,0,0,1-.3.7,1.14,1.14,0,0,1-.7.3h-2a.91.91,0,0,1-.7-.3,1.14,1.14,0,0,1-.3-.7V24.1H15.9a.91.91,0,0,1-.7-.3,1.14,1.14,0,0,1-.3-.7v-2a.91.91,0,0,1,.3-.7,1.14,1.14,0,0,1,.7-.3h4.2V15.9a.91.91,0,0,1,.3-.7,1.14,1.14,0,0,1,.7-.3h2m0-1h-2a2.16,2.16,0,0,0-1.41.59,1.9,1.9,0,0,0-.59,1.41v3.2H15.9a2.16,2.16,0,0,0-1.41.59,1.9,1.9,0,0,0-.59,1.41v2a2.16,2.16,0,0,0,.59,1.41,1.9,1.9,0,0,0,1.41.59h3.2v3.2a2.16,2.16,0,0,0,.59,1.41,1.9,1.9,0,0,0,1.41.59h2a2.16,2.16,0,0,0,1.41-.59,1.9,1.9,0,0,0,.59-1.41V25.1h3.3a2.16,2.16,0,0,0,1.41-.59,1.9,1.9,0,0,0,.59-1.41v-2a1.72,1.72,0,0,0-.84-1.55,1.93,1.93,0,0,0-1.26-.45H25.1V15.9a2.16,2.16,0,0,0-.59-1.41,1.9,1.9,0,0,0-1.41-.59Z"/></g></mask></defs><g class="cls-1"><path class="cls-2" d="M29,13.1a2.19,2.19,0,0,0-.9-1,3.19,3.19,0,0,0-1.4-.3H24V9.6a3.07,3.07,0,0,0-3.1-3.1H13.3V6.1a2.94,2.94,0,0,0-.9-2.2,3.21,3.21,0,0,0-2.2-1H5.7a2.94,2.94,0,0,0-2.2.9,3.17,3.17,0,0,0-.9,2.3V19.5a2.94,2.94,0,0,0,.9,2.2,2.94,2.94,0,0,0,2.2.9h9l9.16-1-3.1-.26,4.74-1.8,3.1-3.8a2.72,2.72,0,0,0,.6-1.7A2.39,2.39,0,0,0,29,13.1ZM4.4,6.1a1,1,0,0,1,.4-.9,1.8,1.8,0,0,1,.9-.4h4.5a1,1,0,0,1,.9.4,1.22,1.22,0,0,1,.4.9V7a1,1,0,0,0,.4.9,1.22,1.22,0,0,0,.9.4h8a1,1,0,0,1,.9.4,1.22,1.22,0,0,1,.4.9v2.2H11.5a5.34,5.34,0,0,0-2,.5,4,4,0,0,0-1.6,1.2L4.4,18Z"/></g><path class="cls-3" d="M28.4,18.7c0,.2-.1.3-.2.5a.76.76,0,0,0,.2-.5m-2.3-1.6h0"/><path class="cls-4" d="M29.4,21.1v2a.91.91,0,0,1-.3.7,1.14,1.14,0,0,1-.7.3H24.1v4.2a.91.91,0,0,1-.3.7,1.14,1.14,0,0,1-.7.3h-2a.91.91,0,0,1-.7-.3,1.14,1.14,0,0,1-.3-.7V24.1H15.9a.91.91,0,0,1-.7-.3,1.14,1.14,0,0,1-.3-.7v-2a.91.91,0,0,1,.3-.7,1.14,1.14,0,0,1,.7-.3h4.2V15.9a.91.91,0,0,1,.3-.7,1.14,1.14,0,0,1,.7-.3h2a.91.91,0,0,1,.7.3,1.14,1.14,0,0,1,.3.7v4.2h4.2a.91.91,0,0,1,.7.3A.67.67,0,0,1,29.4,21.1Z"/></svg>