<svg id="Layer_1" data-name="Layer 1" xmlns="http://www.w3.org/2000/svg" viewBox="0 0 32 32"><defs><style>.cls-1{fill:#fff;}.cls-2{fill:#2485ce;}</style></defs><path class="cls-1" d="M28.8,18.6h0c0,.2-.1.3-.2.5a.76.76,0,0,0,.2-.5"/><path class="cls-2" d="M5.6,9.1a.91.91,0,0,0-.3.7v1.8a.71.71,0,0,0,.3.6.86.86,0,0,0,.6.3h9.5c-.1,0-.2.1-.3.2L5.5,22.6c-.2.2-.2.3-.2.4a.52.52,0,0,0,.4.2H26.2c.2,0,.4-.1.4-.2s0-.3-.2-.4l-9.9-9.9c-.1-.1-.2-.1-.3-.2h9.5a.71.71,0,0,0,.6-.3.86.86,0,0,0,.3-.6V9.8a.71.71,0,0,0-.3-.6c-.2-.1-.4-.3-.6-.3H6.2C5.9,8.9,5.7,8.9,5.6,9.1Z"/></svg>