<svg id="Layer_1" data-name="Layer 1" xmlns="http://www.w3.org/2000/svg" viewBox="0 0 32 32"><defs><style>.cls-1{fill:#2485ce;}</style></defs><path class="cls-1" d="M28.3,9.2a13.85,13.85,0,0,1,1.9,7.2,13.85,13.85,0,0,1-1.9,7.2,14.4,14.4,0,0,1-5.2,5.2,13.85,13.85,0,0,1-7.2,1.9,13.85,13.85,0,0,1-7.2-1.9,14.4,14.4,0,0,1-5.2-5.2,13.85,13.85,0,0,1-1.9-7.2A13.85,13.85,0,0,1,3.5,9.2,14.4,14.4,0,0,1,8.7,4a13.85,13.85,0,0,1,7.2-1.9A13.85,13.85,0,0,1,23.1,4,13.67,13.67,0,0,1,28.3,9.2ZM20.8,25.3v-3a.52.52,0,0,0-.2-.4.76.76,0,0,0-.4-.2H18.4V12.2a.52.52,0,0,0-.2-.4.76.76,0,0,0-.4-.2H11.9a.52.52,0,0,0-.4.2.76.76,0,0,0-.2.4v3a.52.52,0,0,0,.2.4.76.76,0,0,0,.4.2h1.8v5.9H11.9a.52.52,0,0,0-.4.2.76.76,0,0,0-.2.4v3a.52.52,0,0,0,.2.4.76.76,0,0,0,.4.2h8.3a.71.71,0,0,0,.6-.6ZM18.4,8.7v-3a.52.52,0,0,0-.2-.4.76.76,0,0,0-.4-.2H14.2a.52.52,0,0,0-.4.2.76.76,0,0,0-.2.4v3a.52.52,0,0,0,.2.4.76.76,0,0,0,.4.2h3.6a.52.52,0,0,0,.4-.2A.76.76,0,0,0,18.4,8.7Z"/></svg>