<svg viewBox="0 0 32 32" xmlns="http://www.w3.org/2000/svg"><path d="m8.8 3.9h-.5a2 2 0 0 0 -2 2v20.3a2 2 0 0 0 2 2h.5zm14.9 0h-13.9v24.3h13.9a2 2 0 0 0 2-2v-20.3a2 2 0 0 0 -2-2zm-4.5 18.9a.35.35 0 0 1 -.4.4h-2.8a.35.35 0 0 1 -.4-.4v-2.7a.35.35 0 0 1 .4-.4h2.7a.35.35 0 0 1 .4.4v2.7zm3.4-8.4a2.47 2.47 0 0 1 -.4.9c-.1.2-.4.4-.6.7s-.5.4-.7.5a5.74 5.74 0 0 0 -.7.4 2.7 2.7 0 0 0 -.8.7 1.6 1.6 0 0 0 -.3.8.6.6 0 0 1 -.1.4c-.1.1-.2.2-.3.2h-2.7c-.1 0-.2-.1-.3-.2a.6.6 0 0 1 -.1-.4v-.5a2.74 2.74 0 0 1 .7-1.8 3.57 3.57 0 0 1 1.6-1.2 4.37 4.37 0 0 0 1-.6 1.22 1.22 0 0 0 .3-.9 1 1 0 0 0 -.5-.8 2.84 2.84 0 0 0 -1.2-.4 2.13 2.13 0 0 0 -1.2.3 5.22 5.22 0 0 0 -1.2 1.3.52.52 0 0 1 -.4.2.37.37 0 0 1 -.3-.1l-1.9-1.4c-.1-.1-.2-.2-.2-.3a.37.37 0 0 1 .1-.3 5.8 5.8 0 0 1 5.2-3 3.92 3.92 0 0 1 1.8.4 5.56 5.56 0 0 1 1.7.9 5.26 5.26 0 0 1 1.2 1.4 4.07 4.07 0 0 1 .5 1.8c-.1.3-.1.7-.2 1z" fill="#2485ce"/></svg>