<svg viewBox="0 0 32 32" xmlns="http://www.w3.org/2000/svg"><path d="m28.3 9.2a13.85 13.85 0 0 1 1.9 7.2 13.85 13.85 0 0 1 -1.9 7.2 14.4 14.4 0 0 1 -5.2 5.2 13.85 13.85 0 0 1 -7.2 1.9 13.85 13.85 0 0 1 -7.2-1.9 14.4 14.4 0 0 1 -5.2-5.2 13.85 13.85 0 0 1 -1.9-7.2 13.85 13.85 0 0 1 1.9-7.2 14.4 14.4 0 0 1 5.2-5.2 13.85 13.85 0 0 1 7.2-1.9 13.85 13.85 0 0 1 7.2 1.9 13.67 13.67 0 0 1 5.2 5.2zm-7.5 16.1v-3a.52.52 0 0 0 -.2-.4.76.76 0 0 0 -.4-.2h-1.8v-9.5a.52.52 0 0 0 -.2-.4.76.76 0 0 0 -.4-.2h-5.9a.52.52 0 0 0 -.4.2.76.76 0 0 0 -.2.4v3a.52.52 0 0 0 .2.4.76.76 0 0 0 .4.2h1.8v5.9h-1.8a.52.52 0 0 0 -.4.2.76.76 0 0 0 -.2.4v3a.52.52 0 0 0 .2.4.76.76 0 0 0 .4.2h8.3a.71.71 0 0 0 .6-.6zm-2.4-16.6v-3a.52.52 0 0 0 -.2-.4.76.76 0 0 0 -.4-.2h-3.6a.52.52 0 0 0 -.4.2.76.76 0 0 0 -.2.4v3a.52.52 0 0 0 .2.4.76.76 0 0 0 .4.2h3.6a.52.52 0 0 0 .4-.2.76.76 0 0 0 .2-.4z" fill="#2485ce"/></svg>