<svg id="Layer_1" data-name="Layer 1" xmlns="http://www.w3.org/2000/svg" xmlns:xlink="http://www.w3.org/1999/xlink" viewBox="0 0 32 32"><defs><style>.cls-1{fill:none;stroke:#000;stroke-miterlimit:10;stroke-width:2px;filter:url(#luminosity-noclip);}.cls-2{mask:url(#mask);}.cls-3{fill:#2485ce;}.cls-4{fill:#5db634;}</style><filter id="luminosity-noclip" x="2" y="3.3" width="26.5" height="27" filterUnits="userSpaceOnUse" color-interpolation-filters="sRGB"><feFlood flood-color="#fff" result="bg"/><feBlend in="SourceGraphic" in2="bg"/></filter><mask id="mask" x="2" y="3.3" width="26.5" height="27" maskUnits="userSpaceOnUse"><path class="cls-1" d="M9.2,29.2a1.78,1.78,0,0,1-1-.4,1.53,1.53,0,0,1-.4-1V24.3H4.4a1.78,1.78,0,0,1-1-.4A1.49,1.49,0,0,1,3,23V21.1a1.78,1.78,0,0,1,.4-1,1.53,1.53,0,0,1,1-.4H7.8V16.2a1.78,1.78,0,0,1,.4-1,1.53,1.53,0,0,1,1-.4h1.9a1.78,1.78,0,0,1,1,.4,1.53,1.53,0,0,1,.4,1v3.5h3.4a1.4,1.4,0,0,1,.9.3,1.1,1.1,0,0,1,.6,1v2a1.78,1.78,0,0,1-.4,1,1.53,1.53,0,0,1-1,.4H12.4v3.5a1.78,1.78,0,0,1-.4,1,1.53,1.53,0,0,1-1,.4H9.2Z"/></mask></defs><g class="cls-2"><path class="cls-3" d="M28.5,20.1a3.63,3.63,0,0,1-1.2,2.8l-2.1,2a3.78,3.78,0,0,1-2.8,1.2,3.63,3.63,0,0,1-2.8-1.2L16.7,22a3.78,3.78,0,0,1-1.2-2.8,4,4,0,0,1,1.2-2.9L15.5,15a4,4,0,0,1-2.9,1.2A3.63,3.63,0,0,1,9.8,15L6.9,12.1A3.78,3.78,0,0,1,5.7,9.3,3.63,3.63,0,0,1,6.9,6.5L9,4.5a3.78,3.78,0,0,1,2.8-1.2,3.63,3.63,0,0,1,2.8,1.2l2.9,2.9a3.78,3.78,0,0,1,1.2,2.8,4,4,0,0,1-1.2,2.9l1.2,1.2a4,4,0,0,1,2.9-1.2,3.63,3.63,0,0,1,2.8,1.2l2.9,2.9A4,4,0,0,1,28.5,20.1ZM16,10.2a1,1,0,0,0-.4-.9L12.7,6.4a1.09,1.09,0,0,0-.9-.4,1,1,0,0,0-.9.4l-2.1,2a1.28,1.28,0,0,0-.4,1,1,1,0,0,0,.4.9l2.9,2.9a1.22,1.22,0,0,0,.9.4,1.28,1.28,0,0,0,1-.4l-.3-.3-.3-.3a.77.77,0,0,1-.2-.3c-.1-.1-.1-.2-.2-.4v-.4a1,1,0,0,1,.4-.9,1.22,1.22,0,0,1,.9-.4h.4c.1,0,.2.1.4.2s.2.2.3.2l.3.3.3.3A1.53,1.53,0,0,0,16,10.2Zm9.8,9.9a1,1,0,0,0-.4-.9l-2.9-2.9a1.22,1.22,0,0,0-.9-.4,1.28,1.28,0,0,0-1,.4l.3.3.3.3a.77.77,0,0,1,.2.3c.1.1.1.2.2.4s0,.2,0,.4a1,1,0,0,1-.4.9,1.8,1.8,0,0,1-.9.4h-.4c-.1,0-.2-.1-.4-.2s-.2-.2-.3-.2l-.3-.3-.3-.3a1.39,1.39,0,0,0-.5,1,1,1,0,0,0,.4.9l2.9,2.9a1.22,1.22,0,0,0,.9.4,1,1,0,0,0,.9-.4l2.1-2A1.35,1.35,0,0,0,25.8,20.1Z"/><path class="cls-4" d="M9.2,29.2a1.78,1.78,0,0,1-1-.4,1.53,1.53,0,0,1-.4-1V24.3H4.4a1.78,1.78,0,0,1-1-.4A1.49,1.49,0,0,1,3,23V21.1a1.78,1.78,0,0,1,.4-1,1.53,1.53,0,0,1,1-.4H7.8V16.2a1.78,1.78,0,0,1,.4-1,1.53,1.53,0,0,1,1-.4h1.9a1.78,1.78,0,0,1,1,.4,1.53,1.53,0,0,1,.4,1v3.5h3.4a1.4,1.4,0,0,1,.9.3,1.1,1.1,0,0,1,.6,1v2a1.78,1.78,0,0,1-.4,1,1.53,1.53,0,0,1-1,.4H12.4v3.5a1.78,1.78,0,0,1-.4,1,1.53,1.53,0,0,1-1,.4H9.2Z"/></g></svg>