<svg viewBox="0 0 32 32" xmlns="http://www.w3.org/2000/svg" xmlns:xlink="http://www.w3.org/1999/xlink"><filter id="a" color-interpolation-filters="sRGB" filterUnits="userSpaceOnUse" height="27.5" width="27" x="1.5" y="3.3"><feFlood flood-color="#fff" result="bg"/><feBlend in="SourceGraphic" in2="bg"/></filter><mask id="b" height="27.5" maskUnits="userSpaceOnUse" width="27" x="1.5" y="3.3"><g filter="url(#a)"><path d="m11.1 14.8a1.78 1.78 0 0 1 1 .4 1.53 1.53 0 0 1 .4 1v3.5h3.4a1.4 1.4 0 0 1 .9.3 1.1 1.1 0 0 1 .6 1v2a1.78 1.78 0 0 1 -.4 1 1.53 1.53 0 0 1 -1 .4h-3.6v3.5a1.78 1.78 0 0 1 -.4 1 1.53 1.53 0 0 1 -1 .4h-1.8v-.1a1.78 1.78 0 0 1 -1-.4 1.53 1.53 0 0 1 -.4-1v-3.5h-3.4a1.78 1.78 0 0 1 -1-.4 1.49 1.49 0 0 1 -.4-.9v-1.9a1.78 1.78 0 0 1 .4-1 1.53 1.53 0 0 1 1-.4h3.4v-3.5a1.78 1.78 0 0 1 .4-1 1.53 1.53 0 0 1 1-.4zm0-1.5h-1.9a3 3 0 0 0 -2.06.84l-.11.1-.03.13a3.17 3.17 0 0 0 -.7 1.83v2h-1.9a3 3 0 0 0 -2.06.8l-.11.1-.08.13a3.17 3.17 0 0 0 -.65 1.87v1.9a3 3 0 0 0 .84 2l.1.11.13.08a3.17 3.17 0 0 0 1.83.65h1.9v2a3 3 0 0 0 .84 2.06l.1.11.13.08.33.21v.54h3.3a3 3 0 0 0 2.06-.84l.11-.1.08-.13a3.17 3.17 0 0 0 .65-1.83v-2h2.1a3 3 0 0 0 2.06-.84l.11-.1.08-.13a3.17 3.17 0 0 0 .65-1.87v-2a2.59 2.59 0 0 0 -1.24-2.23 2.93 2.93 0 0 0 -1.76-.57h-1.9v-2a3 3 0 0 0 -.84-2.06l-.1-.11-.13-.03a3.17 3.17 0 0 0 -1.83-.65z"/><path d="m9.2 29.2a1.78 1.78 0 0 1 -1-.4 1.53 1.53 0 0 1 -.4-1v-3.5h-3.4a1.78 1.78 0 0 1 -1-.4 1.49 1.49 0 0 1 -.4-.9v-1.9a1.78 1.78 0 0 1 .4-1 1.53 1.53 0 0 1 1-.4h3.4v-3.5a1.78 1.78 0 0 1 .4-1 1.53 1.53 0 0 1 1-.4h1.9a1.78 1.78 0 0 1 1 .4 1.53 1.53 0 0 1 .4 1v3.5h3.4a1.4 1.4 0 0 1 .9.3 1.1 1.1 0 0 1 .6 1v2a1.78 1.78 0 0 1 -.4 1 1.53 1.53 0 0 1 -1 .4h-3.6v3.5a1.78 1.78 0 0 1 -.4 1 1.53 1.53 0 0 1 -1 .4h-1.8z" fill="#fff"/><path d="m9.2 29.2a1.78 1.78 0 0 1 -1-.4 1.53 1.53 0 0 1 -.4-1v-3.5h-3.4a1.78 1.78 0 0 1 -1-.4 1.49 1.49 0 0 1 -.4-.9v-1.9a1.78 1.78 0 0 1 .4-1 1.53 1.53 0 0 1 1-.4h3.4v-3.5a1.78 1.78 0 0 1 .4-1 1.53 1.53 0 0 1 1-.4h1.9a1.78 1.78 0 0 1 1 .4 1.53 1.53 0 0 1 .4 1v3.5h3.4a1.4 1.4 0 0 1 .9.3 1.1 1.1 0 0 1 .6 1v2a1.78 1.78 0 0 1 -.4 1 1.53 1.53 0 0 1 -1 .4h-3.6v3.5a1.78 1.78 0 0 1 -.4 1 1.53 1.53 0 0 1 -1 .4h-1.8z" fill="none" stroke="#000" stroke-miterlimit="10" stroke-width="2"/></g></mask><g fill="#fff" mask="url(#b)"><path d="m28.5 20.1a3.63 3.63 0 0 1 -1.2 2.8l-2.1 2a3.78 3.78 0 0 1 -2.8 1.2 3.63 3.63 0 0 1 -2.8-1.2l-2.9-2.9a3.78 3.78 0 0 1 -1.2-2.8 4 4 0 0 1 1.2-2.9l-1.2-1.3a4 4 0 0 1 -2.9 1.2 3.63 3.63 0 0 1 -2.8-1.2l-2.9-2.9a3.78 3.78 0 0 1 -1.2-2.8 3.63 3.63 0 0 1 1.2-2.8l2.1-2a3.78 3.78 0 0 1 2.8-1.2 3.63 3.63 0 0 1 2.8 1.2l2.9 2.9a3.78 3.78 0 0 1 1.2 2.8 4 4 0 0 1 -1.2 2.9l1.2 1.2a4 4 0 0 1 2.9-1.2 3.63 3.63 0 0 1 2.8 1.2l2.9 2.9a4 4 0 0 1 1.2 2.9zm-12.5-9.9a1 1 0 0 0 -.4-.9l-2.9-2.9a1.09 1.09 0 0 0 -.9-.4 1 1 0 0 0 -.9.4l-2.1 2a1.28 1.28 0 0 0 -.4 1 1 1 0 0 0 .4.9l2.9 2.9a1.22 1.22 0 0 0 .9.4 1.28 1.28 0 0 0 1-.4l-.3-.3-.3-.3a.77.77 0 0 1 -.2-.3c-.1-.1-.1-.2-.2-.4v-.4a1 1 0 0 1 .4-.9 1.22 1.22 0 0 1 .9-.4h.4c.1 0 .2.1.4.2s.2.2.3.2l.3.3.3.3a1.53 1.53 0 0 0 .4-1zm9.8 9.9a1 1 0 0 0 -.4-.9l-2.9-2.9a1.22 1.22 0 0 0 -.9-.4 1.28 1.28 0 0 0 -1 .4l.3.3.3.3a.77.77 0 0 1 .2.3c.1.1.1.2.2.4s0 .2 0 .4a1 1 0 0 1 -.4.9 1.8 1.8 0 0 1 -.9.4h-.4c-.1 0-.2-.1-.4-.2s-.2-.2-.3-.2l-.3-.3-.3-.3a1.39 1.39 0 0 0 -.5 1 1 1 0 0 0 .4.9l2.9 2.9a1.22 1.22 0 0 0 .9.4 1 1 0 0 0 .9-.4l2.1-2a1.35 1.35 0 0 0 .5-1z"/><path d="m9.2 29.2a1.78 1.78 0 0 1 -1-.4 1.53 1.53 0 0 1 -.4-1v-3.5h-3.4a1.78 1.78 0 0 1 -1-.4 1.49 1.49 0 0 1 -.4-.9v-1.9a1.78 1.78 0 0 1 .4-1 1.53 1.53 0 0 1 1-.4h3.4v-3.5a1.78 1.78 0 0 1 .4-1 1.53 1.53 0 0 1 1-.4h1.9a1.78 1.78 0 0 1 1 .4 1.53 1.53 0 0 1 .4 1v3.5h3.4a1.4 1.4 0 0 1 .9.3 1.1 1.1 0 0 1 .6 1v2a1.78 1.78 0 0 1 -.4 1 1.53 1.53 0 0 1 -1 .4h-3.6v3.5a1.78 1.78 0 0 1 -.4 1 1.53 1.53 0 0 1 -1 .4h-1.8z"/></g></svg>