<svg viewBox="0 0 32 32" xmlns="http://www.w3.org/2000/svg"><g fill="#427337"><path d="m11.64 9.3c0-1.87 0-3.75 0-5.62a1.57 1.57 0 0 1 1.64-1.68h5.44a1.56 1.56 0 0 1 1.63 1.63v11.37c0 .52 0 .53.54.53h5.58a1.46 1.46 0 0 1 1.47.86 1.5 1.5 0 0 1 -.34 1.72l-.12.12-10.29 10.32a1.72 1.72 0 0 1 -1.28.55 1.6 1.6 0 0 1 -1.06-.51q-5.26-5.23-10.47-10.53a1.44 1.44 0 0 1 .49-2.4 1.73 1.73 0 0 1 .61-.09h5.68c.48 0 .48 0 .48-.47z"/><path d="m5.42 30h21.15a1.5 1.5 0 0 0 0-3h-21.15a1.5 1.5 0 0 0 0 3z"/></g></svg>