<svg viewBox="0 0 32 32" xmlns="http://www.w3.org/2000/svg"><g fill="#d1954e"><path d="m20.36 22.7v5.62a1.57 1.57 0 0 1 -1.64 1.68c-1.82-.05-3.63-.05-5.45 0a1.57 1.57 0 0 1 -1.63-1.63c0-3.79 0-7.58 0-11.37 0-.53 0-.53-.54-.53-1.86 0-3.72 0-5.58 0a1.47 1.47 0 0 1 -1.48-.86 1.52 1.52 0 0 1 .35-1.72l.12-.12 10.3-10.32a1.65 1.65 0 0 1 1.28-.55 1.55 1.55 0 0 1 1.06.51q5.27 5.24 10.47 10.53a1.44 1.44 0 0 1 -.49 2.4 1.77 1.77 0 0 1 -.61.09c-1.89 0-3.79 0-5.68 0-.48 0-.48 0-.48.48z"/><path d="m26.58 2h-21.15a1.5 1.5 0 1 0 0 3h21.15a1.5 1.5 0 0 0 0-3z"/></g></svg>