<svg id="Layer_1" data-name="Layer 1" xmlns="http://www.w3.org/2000/svg" viewBox="0 0 32 32"><defs><style>.cls-1{fill:#427337;}</style></defs><path class="cls-1" d="M11.64,9.3c0-1.87,0-3.75,0-5.62A1.57,1.57,0,0,1,13.28,2c1.81,0,3.63,0,5.44,0a1.56,1.56,0,0,1,1.63,1.63c0,3.79,0,7.58,0,11.37,0,.52,0,.53.54.53,1.86,0,3.72,0,5.58,0a1.46,1.46,0,0,1,1.47.86,1.5,1.5,0,0,1-.34,1.72l-.12.12L17.19,28.55a1.72,1.72,0,0,1-1.28.55,1.6,1.6,0,0,1-1.06-.51Q9.59,23.36,4.38,18.06a1.44,1.44,0,0,1,.49-2.4,1.73,1.73,0,0,1,.61-.09h5.68c.48,0,.48,0,.48-.47V9.3Z"/><path class="cls-1" d="M5.42,30H26.57a1.5,1.5,0,0,0,0-3H5.42a1.5,1.5,0,0,0,0,3Z"/></svg>