<svg id="Layer_1" data-name="Layer 1" xmlns="http://www.w3.org/2000/svg" viewBox="0 0 32 32"><defs><style>.cls-1{fill:#2485ce;}.cls-2{fill:#5db634;}</style></defs><path class="cls-1" d="M26,8.4a3.33,3.33,0,0,1,.6,1,2.66,2.66,0,0,1,.3,1.2V26a1,1,0,0,1-.4.9,1.8,1.8,0,0,1-.9.4H7.6a1,1,0,0,1-.9-.4,1.8,1.8,0,0,1-.4-.9V4.6a1,1,0,0,1,.4-.9,1.8,1.8,0,0,1,.9-.4h12a2.66,2.66,0,0,1,1.2.3,4.37,4.37,0,0,1,1,.6L26,8.4Zm-.8,17.2V11.9H19.6a1,1,0,0,1-.9-.4,1.09,1.09,0,0,1-.4-.9V5H8V25.6ZM20,5.2v5h5a1.07,1.07,0,0,0-.3-.5L20.5,5.5C20.5,5.4,20.3,5.3,20,5.2Z"/><path class="cls-2" d="M16,22.5V24a.68.68,0,0,1-.7.7H12v3.2a.68.68,0,0,1-.7.7H9.8a.68.68,0,0,1-.7-.7V24.7H5.9a.68.68,0,0,1-.7-.7V22.5a.68.68,0,0,1,.7-.7H9.1V18.6a.68.68,0,0,1,.7-.7h1.5a.68.68,0,0,1,.7.7v3.2h3.2a.76.76,0,0,1,.5.2A.55.55,0,0,1,16,22.5Z"/><path class="cls-2" d="M16,22.5V24a.68.68,0,0,1-.7.7H12v3.2a.68.68,0,0,1-.7.7H9.8a.68.68,0,0,1-.7-.7V24.7H5.9a.68.68,0,0,1-.7-.7V22.5a.68.68,0,0,1,.7-.7H9.1V18.6a.68.68,0,0,1,.7-.7h1.5a.68.68,0,0,1,.7.7v3.2h3.2a.76.76,0,0,1,.5.2A.55.55,0,0,1,16,22.5Z"/></svg>