<svg viewBox="0 0 32 32" xmlns="http://www.w3.org/2000/svg" xmlns:xlink="http://www.w3.org/1999/xlink"><filter id="a" color-interpolation-filters="sRGB" filterUnits="userSpaceOnUse" height="23.7" width="21.11" x="5.5" y="4.1"><feFlood flood-color="#fff" result="bg"/><feBlend in="SourceGraphic" in2="bg"/></filter><mask id="b" height="23.7" maskUnits="userSpaceOnUse" width="21.11" x="5.5" y="4.1"><g filter="url(#a)"><path d="m20.4 13.63v10.54" fill="none" stroke="#000" stroke-linecap="round" stroke-miterlimit="10" stroke-width="2"/><path d="m16 13.63v10.54" fill="none" stroke="#000" stroke-linecap="round" stroke-miterlimit="10" stroke-width="2"/><path d="m11.55 13.63v10.54" fill="none" stroke="#000" stroke-linecap="round" stroke-miterlimit="10" stroke-width="2"/></g></mask><g mask="url(#b)"><path d="m16 10.25h8.2c.6 0 .7.1.7.8v14.55a2.25 2.25 0 0 1 -1.7 2.2h-14a2.18 2.18 0 0 1 -2.1-2.1v-14.85c0-.5.2-.6.6-.6zm0-1.65h-9.7c-.6 0-.8-.1-.8-.7v-1.1a1.22 1.22 0 0 1 1.2-1.2h4.8a.46.46 0 0 0 .5-.3 2.51 2.51 0 0 1 .4-.7 1.05 1.05 0 0 1 .9-.5h5.5a1.17 1.17 0 0 1 1 .6l.3.6a.46.46 0 0 0 .5.3h4.8a1.15 1.15 0 0 1 1.2 1.2v1.1c0 .5-.2.7-.7.7z" fill="#fff"/></g></svg>