<svg viewBox="0 0 32 32" xmlns="http://www.w3.org/2000/svg"><path d="m16 10h8.2c.6 0 .7.1.7.8v14.8a2.25 2.25 0 0 1 -1.7 2.2h-14a2.18 2.18 0 0 1 -2.1-2.1v-15.1c0-.5.2-.6.6-.6zm-5.2 9v5a.92.92 0 0 0 .7 1c.5 0 .7-.3.8-1v-9.9a.75.75 0 0 0 -.1-.5.62.62 0 0 0 -.6-.4.84.84 0 0 0 -.7.4 1.27 1.27 0 0 0 -.1.6zm4.5 0v4.9a.92.92 0 0 0 .9 1 .8.8 0 0 0 .6-.9v-10a.6.6 0 0 0 -.1-.4.74.74 0 0 0 -1.4 0c0 .2-.1.3-.1.5.1 1.6.1 3.2.1 4.9zm5.9 0v-5c0-.6-.3-1-.8-1s-.7.3-.7 1v9.9a.75.75 0 0 0 .1.5.62.62 0 0 0 .6.4.55.55 0 0 0 .6-.4 1.27 1.27 0 0 0 .1-.6c.1-1.5.1-3.2.1-4.8zm-5.2-10.4h-9.7c-.6 0-.8-.1-.8-.7v-1.1a1.22 1.22 0 0 1 1.2-1.2h4.8a.46.46 0 0 0 .5-.3 2.51 2.51 0 0 1 .4-.7 1.05 1.05 0 0 1 .9-.5h5.5a1.17 1.17 0 0 1 1 .6l.3.6a.46.46 0 0 0 .5.3h4.8a1.15 1.15 0 0 1 1.2 1.2v1.1c0 .5-.2.7-.7.7z" fill="#aa3535"/></svg>