<svg viewBox="0 0 32 32" xmlns="http://www.w3.org/2000/svg" xmlns:xlink="http://www.w3.org/1999/xlink"><filter id="a" color-interpolation-filters="sRGB" filterUnits="userSpaceOnUse" height="27.3" width="23.7" x="3.2" y="3.3"><feFlood flood-color="#fff" result="bg"/><feBlend in="SourceGraphic" in2="bg"/></filter><mask id="b" height="27.3" maskUnits="userSpaceOnUse" width="23.7" x="3.2" y="3.3"><g filter="url(#a)"><path d="m11.3 17.9a.68.68 0 0 1 .7.7v3.2h3.2a.76.76 0 0 1 .5.2.55.55 0 0 1 .3.5v1.5a.68.68 0 0 1 -.7.7h-3.3v3.2a.68.68 0 0 1 -.7.7h-1.5a.68.68 0 0 1 -.7-.7v-3.2h-3.2a.68.68 0 0 1 -.7-.7v-1.5a.68.68 0 0 1 .7-.7h3.2v-3.2a.68.68 0 0 1 .7-.7zm0-2h-1.5a2.7 2.7 0 0 0 -2.7 2.7v1.2h-1.2a2.7 2.7 0 0 0 -2.7 2.7v1.5a2.7 2.7 0 0 0 2.7 2.7h1.2v1.2a2.7 2.7 0 0 0 2.7 2.7h1.5a2.7 2.7 0 0 0 2.7-2.7v-1.2h1.3a2.7 2.7 0 0 0 2.7-2.7v-1.5a2.54 2.54 0 0 0 -1.14-2.13 2.75 2.75 0 0 0 -1.66-.57h-1.2v-1.2a2.7 2.7 0 0 0 -2.7-2.7z"/><path d="m5.52 25.37h2.26v2.95h-2.26z"/><path d="m19.09 5.2v5.91h5.91" fill="none" stroke="#000" stroke-linejoin="round" stroke-width="1.5"/></g></mask><g fill="#fff" mask="url(#b)"><path d="m26 8.4a3.33 3.33 0 0 1 .6 1 2.66 2.66 0 0 1 .3 1.2v15.4a1 1 0 0 1 -.4.9 1.8 1.8 0 0 1 -.9.4h-18a1 1 0 0 1 -.9-.4 1.8 1.8 0 0 1 -.4-.9v-21.4a1 1 0 0 1 .4-.9 1.8 1.8 0 0 1 .9-.4h12a2.66 2.66 0 0 1 1.2.3 4.37 4.37 0 0 1 1 .6z"/><path d="m16 22.5v1.5a.68.68 0 0 1 -.7.7h-3.3v3.2a.68.68 0 0 1 -.7.7h-1.5a.68.68 0 0 1 -.7-.7v-3.2h-3.2a.68.68 0 0 1 -.7-.7v-1.5a.68.68 0 0 1 .7-.7h3.2v-3.2a.68.68 0 0 1 .7-.7h1.5a.68.68 0 0 1 .7.7v3.2h3.2a.76.76 0 0 1 .5.2.55.55 0 0 1 .3.5z"/></g></svg>