<svg id="Layer_1" data-name="Layer 1" xmlns="http://www.w3.org/2000/svg" viewBox="0 0 32 32"><defs><style>.cls-1{fill:#aa3535;}</style></defs><path class="cls-1" d="M16,10h8.2c.6,0,.7.1.7.8V25.6a2.25,2.25,0,0,1-1.7,2.2H9.2a2.18,2.18,0,0,1-2.1-2.1V10.6c0-.5.2-.6.6-.6Zm-5.2,9v5a.92.92,0,0,0,.7,1c.5,0,.7-.3.8-1V14.1a.75.75,0,0,0-.1-.5.62.62,0,0,0-.6-.4.84.84,0,0,0-.7.4,1.27,1.27,0,0,0-.1.6V19Zm4.5,0v4.9a.92.92,0,0,0,.9,1,.8.8,0,0,0,.6-.9V14a.6.6,0,0,0-.1-.4.74.74,0,0,0-1.4,0c0,.2-.1.3-.1.5C15.3,15.7,15.3,17.3,15.3,19Zm5.9,0V14c0-.6-.3-1-.8-1s-.7.3-.7,1v9.9a.75.75,0,0,0,.1.5.62.62,0,0,0,.6.4.55.55,0,0,0,.6-.4,1.27,1.27,0,0,0,.1-.6C21.2,22.3,21.2,20.6,21.2,19ZM16,8.6H6.3c-.6,0-.8-.1-.8-.7V6.8A1.22,1.22,0,0,1,6.7,5.6h4.8a.46.46,0,0,0,.5-.3,2.51,2.51,0,0,1,.4-.7,1.05,1.05,0,0,1,.9-.5h5.5a1.17,1.17,0,0,1,1,.6l.3.6a.46.46,0,0,0,.5.3h4.8a1.15,1.15,0,0,1,1.2,1.2V7.9c0,.5-.2.7-.7.7Z"/></svg>