<svg id="Layer_1" data-name="Layer 1" xmlns="http://www.w3.org/2000/svg" xmlns:xlink="http://www.w3.org/1999/xlink" viewBox="0 0 32 32"><defs><style>.cls-1{mask:url(#mask);}.cls-2{fill:#2485ce;}.cls-3{fill:#5db634;}.cls-4{filter:url(#luminosity-noclip);}</style><filter id="luminosity-noclip" x="3.4" y="5.1" width="28.6" height="24.2" filterUnits="userSpaceOnUse" color-interpolation-filters="sRGB"><feFlood flood-color="#fff" result="bg"/><feBlend in="SourceGraphic" in2="bg"/></filter><mask id="mask" x="3.4" y="5.1" width="28.6" height="24.2" maskUnits="userSpaceOnUse"><g class="cls-4"><path d="M22.1,28.8a1.1,1.1,0,0,1-1-.49l-4.65-4.66a1.39,1.39,0,0,1-.45-1,1.1,1.1,0,0,1,.49-1l1.26-1.25a1.31,1.31,0,0,1,.95-.45,1.1,1.1,0,0,1,1,.49l2.4,2.4,5.75-5.74a1.31,1.31,0,0,1,.95-.45,1.1,1.1,0,0,1,1,.49L31,18.3a1.27,1.27,0,0,1,0,2l-6.76,6.75-1.18,1.29A1.36,1.36,0,0,1,22.1,28.8Z"/><path d="M28.8,17.1a.6.6,0,0,1,.6.3l1.3,1.3a.75.75,0,0,1,0,1.2l-6.8,6.8L22.7,28a.86.86,0,0,1-.6.3.6.6,0,0,1-.6-.3l-1.3-1.3-3.4-3.4a.91.91,0,0,1-.3-.7.6.6,0,0,1,.3-.6l1.3-1.3a.86.86,0,0,1,.6-.3.6.6,0,0,1,.6.3l2.8,2.8,6.1-6.1a.86.86,0,0,1,.6-.3m0-1a1.82,1.82,0,0,0-1.31.59l-5.39,5.4-2-2a1.6,1.6,0,0,0-1.39-.68,1.82,1.82,0,0,0-1.31.59l-1.21,1.22a1.6,1.6,0,0,0-.68,1.39A1.9,1.9,0,0,0,16.09,24l3.4,3.4,1.22,1.21a1.6,1.6,0,0,0,1.39.68,1.82,1.82,0,0,0,1.31-.59l1.22-1.33,6.69-6.69a1.76,1.76,0,0,0,0-2.78l-1.13-1.13a1.6,1.6,0,0,0-1.39-.68Z"/></g></mask></defs><g class="cls-1"><path class="cls-2" d="M27.8,5.8a2.36,2.36,0,0,0-1.6-.7H5.7a2.13,2.13,0,0,0-1.6.7,2.36,2.36,0,0,0-.7,1.6V22.6a2.13,2.13,0,0,0,.7,1.6,2.36,2.36,0,0,0,1.6.7H16.8l5.31-.35-.37.35.92-.39,1.09-.07a1.83,1.83,0,0,0-.55-.16l3.74-1.58c.3-.3,1.16-6.5,1.56-6.5V7.4A2.13,2.13,0,0,0,27.8,5.8ZM5.4,7.1A.37.37,0,0,1,5.7,7H26.4a.1.1,0,0,1,.1.1l.1.1V8A3.49,3.49,0,0,1,26,9.8a5.56,5.56,0,0,1-1.4,1.6c-1.8,1.4-3.7,2.9-5.6,4.4-.1,0-.2.2-.5.4a3.81,3.81,0,0,0-.6.5c-.2.1-.4.3-.6.4a5.74,5.74,0,0,1-.7.4,1.27,1.27,0,0,1-.6.1,1.27,1.27,0,0,1-.6-.1,5.74,5.74,0,0,1-.7-.4,5.92,5.92,0,0,1-.6-.4,2.65,2.65,0,0,1-.6-.5c-.3-.2-.4-.4-.5-.4-1.9-1.5-3.8-3-5.6-4.4a4.89,4.89,0,0,1-2.1-4A.37.37,0,0,1,5.4,7.1Z"/></g><path class="cls-3" d="M31,19.3a.6.6,0,0,1-.3.6l-6.8,6.8L22.7,28a.86.86,0,0,1-.6.3.6.6,0,0,1-.6-.3l-1.3-1.3-3.4-3.4a.91.91,0,0,1-.3-.7.6.6,0,0,1,.3-.6l1.3-1.3a.86.86,0,0,1,.6-.3.6.6,0,0,1,.6.3l2.8,2.8,6.1-6.1a.86.86,0,0,1,.6-.3.6.6,0,0,1,.6.3l1.3,1.3A.6.6,0,0,1,31,19.3Z"/></svg>