<svg viewBox="0 0 32 32" xmlns="http://www.w3.org/2000/svg" xmlns:xlink="http://www.w3.org/1999/xlink"><filter id="a" color-interpolation-filters="sRGB" filterUnits="userSpaceOnUse" height="24.2" width="28.6" x="3.4" y="5.1"><feFlood flood-color="#fff" result="bg"/><feBlend in="SourceGraphic" in2="bg"/></filter><mask id="b" height="24.2" maskUnits="userSpaceOnUse" width="28.6" x="3.4" y="5.1"><g filter="url(#a)"><path d="m22.1 28.8a1.1 1.1 0 0 1 -1-.49l-4.65-4.66a1.39 1.39 0 0 1 -.45-1 1.1 1.1 0 0 1 .49-1l1.26-1.25a1.31 1.31 0 0 1 .95-.45 1.1 1.1 0 0 1 1 .49l2.4 2.4 5.75-5.74a1.31 1.31 0 0 1 .95-.45 1.1 1.1 0 0 1 1 .49l1.2 1.16a1.27 1.27 0 0 1 0 2l-6.76 6.75-1.18 1.29a1.36 1.36 0 0 1 -.96.46z"/><path d="m28.8 17.1a.6.6 0 0 1 .6.3l1.3 1.3a.75.75 0 0 1 0 1.2l-6.8 6.8-1.2 1.3a.86.86 0 0 1 -.6.3.6.6 0 0 1 -.6-.3l-1.3-1.3-3.4-3.4a.91.91 0 0 1 -.3-.7.6.6 0 0 1 .3-.6l1.3-1.3a.86.86 0 0 1 .6-.3.6.6 0 0 1 .6.3l2.8 2.8 6.1-6.1a.86.86 0 0 1 .6-.3m0-1a1.82 1.82 0 0 0 -1.31.59l-5.39 5.4-2-2a1.6 1.6 0 0 0 -1.39-.68 1.82 1.82 0 0 0 -1.31.59l-1.21 1.22a1.6 1.6 0 0 0 -.68 1.39 1.9 1.9 0 0 0 .58 1.39l3.4 3.4 1.22 1.21a1.6 1.6 0 0 0 1.39.68 1.82 1.82 0 0 0 1.31-.59l1.22-1.33 6.69-6.69a1.76 1.76 0 0 0 0-2.78l-1.13-1.13a1.6 1.6 0 0 0 -1.39-.68z"/></g></mask><g mask="url(#b)"><path d="m27.8 5.8a2.36 2.36 0 0 0 -1.6-.7h-20.5a2.13 2.13 0 0 0 -1.6.7 2.36 2.36 0 0 0 -.7 1.6v15.2a2.13 2.13 0 0 0 .7 1.6 2.36 2.36 0 0 0 1.6.7h11.1l5.31-.35-.37.35.92-.39 1.09-.07a1.83 1.83 0 0 0 -.55-.16l3.74-1.58c.3-.3 1.16-6.5 1.56-6.5v-8.8a2.13 2.13 0 0 0 -.7-1.6zm-22.4 1.3a.37.37 0 0 1 .3-.1h20.7a.1.1 0 0 1 .1.1l.1.1v.8a3.49 3.49 0 0 1 -.6 1.8 5.56 5.56 0 0 1 -1.4 1.6c-1.8 1.4-3.7 2.9-5.6 4.4-.1 0-.2.2-.5.4a3.81 3.81 0 0 0 -.6.5c-.2.1-.4.3-.6.4a5.74 5.74 0 0 1 -.7.4 1.27 1.27 0 0 1 -.6.1 1.27 1.27 0 0 1 -.6-.1 5.74 5.74 0 0 1 -.7-.4 5.92 5.92 0 0 1 -.6-.4 2.65 2.65 0 0 1 -.6-.5c-.3-.2-.4-.4-.5-.4-1.9-1.5-3.8-3-5.6-4.4a4.89 4.89 0 0 1 -2.1-4 .37.37 0 0 1 .1-.3z" fill="#2485ce"/></g><path d="m31 19.3a.6.6 0 0 1 -.3.6l-6.8 6.8-1.2 1.3a.86.86 0 0 1 -.6.3.6.6 0 0 1 -.6-.3l-1.3-1.3-3.4-3.4a.91.91 0 0 1 -.3-.7.6.6 0 0 1 .3-.6l1.3-1.3a.86.86 0 0 1 .6-.3.6.6 0 0 1 .6.3l2.8 2.8 6.1-6.1a.86.86 0 0 1 .6-.3.6.6 0 0 1 .6.3l1.3 1.3a.6.6 0 0 1 .3.6z" fill="#5db634"/></svg>