<svg id="Layer_1" data-name="Layer 1" xmlns="http://www.w3.org/2000/svg" viewBox="0 0 32 32"><defs><style>.cls-1{fill:#2485ce;}</style></defs><path class="cls-1" d="M14.2,6.2V25.8a.71.71,0,0,1-.3.6.86.86,0,0,1-.6.3H6.2a.71.71,0,0,1-.6-.3.86.86,0,0,1-.3-.6V6.2a.71.71,0,0,1,.3-.6.86.86,0,0,1,.6-.3h7.1a.71.71,0,0,1,.6.3A.6.6,0,0,1,14.2,6.2Zm12.5,0V25.8a.71.71,0,0,1-.3.6.86.86,0,0,1-.6.3H18.7a.71.71,0,0,1-.6-.3.86.86,0,0,1-.3-.6V6.2a.71.71,0,0,1,.3-.6.86.86,0,0,1,.6-.3h7.1a.71.71,0,0,1,.6.3A.6.6,0,0,1,26.7,6.2Z"/></svg>