<svg viewBox="0 0 36.9 17.8" xmlns="http://www.w3.org/2000/svg"><path d="m.2 15a18.72 18.72 0 0 1 16.6-14.6h.1c.5 0 1-.1 1.5-.1a7.57 7.57 0 0 1 1.5.1h.1a18.63 18.63 0 0 1 16.7 14.6.61.61 0 0 1 -.1.6c-.1.2-.5.3-.5.3h-35.3s-.4-.1-.5-.3a1.27 1.27 0 0 1 -.1-.6z" fill="#2485ce"/><path d="m19.8 17a.76.76 0 0 1 -.4-.2l-2.8-3.8a.6.6 0 0 1 -.1-.4c0-.1.1-.3.2-.3l16.3-9.1a.35.35 0 0 0 .2-.1.52.52 0 0 1 .4.2.49.49 0 0 1 -.1.7l-13.3 12.9c-.1.1-.2.1-.4.1z" fill="#fff"/><path d="m33.2 3.7-13.4 12.8-2.8-3.8zm0-1a.9.9 0 0 0 -.5.1l-16.2 9.1c-.3.1-.4.4-.5.7a.78.78 0 0 0 .2.8l2.8 3.8a1 1 0 0 0 .7.4h.1a.91.91 0 0 0 .7-.3l13.4-12.9a.94.94 0 0 0 .1-1.3.91.91 0 0 0 -.8-.4z" fill="#2485ce"/></svg>