<?xml version="1.0" encoding="utf-8"?>
<!-- Generator: Adobe Illustrator 25.0.0, SVG Export Plug-In . SVG Version: 6.00 Build 0)  -->
<svg version="1.1" id="Layer_1" xmlns="http://www.w3.org/2000/svg" xmlns:xlink="http://www.w3.org/1999/xlink" x="0px" y="0px"
	 viewBox="0 0 20.7 25.8" style="enable-background:new 0 0 20.7 25.8;" xml:space="preserve">
<style type="text/css">
	.st0{fill:#666666;}
</style>
<path class="st0" d="M20.6,12.8c-0.2,0.6-0.6,0.8-1.1,0.7h-5.2v9c0,0.4-0.2,0.7-0.4,0.9c-0.2,0.3-0.5,0.4-0.9,0.4H7.8
	c-0.4,0-0.6-0.1-0.9-0.4c-0.3-0.2-0.4-0.5-0.4-0.9v-8.8H1.3c-0.5,0-0.9-0.3-1.2-0.8c-0.2-0.7-0.1-1.1,0.3-1.5l9-9
	C9.6,2.1,9.9,2,10.3,2c0.4,0,0.6,0.1,0.9,0.4l9,9C20.6,11.8,20.8,12.3,20.6,12.8z"/>
</svg>
