<svg viewBox="0 0 32 32" xmlns="http://www.w3.org/2000/svg"><path d="m13.7 24.8v1.1c0 .1-.1.2-.2.3a.37.37 0 0 1 -.3.1h-5.2a4.53 4.53 0 0 1 -3.3-1.4 4.53 4.53 0 0 1 -1.4-3.3v-11.3a4.53 4.53 0 0 1 1.4-3.3 4.53 4.53 0 0 1 3.3-1.4h5.2a.76.76 0 0 1 .4.2.52.52 0 0 1 .2.4v1.1c0 .1-.1.2-.2.3a.37.37 0 0 1 -.3.1h-5.3a3 3 0 0 0 -1.8.8 2.5 2.5 0 0 0 -.8 1.8v11.3a2.5 2.5 0 0 0 .8 1.8 2.17 2.17 0 0 0 1.8.8h5.4l.1.1a.1.1 0 0 1 .1.1.76.76 0 0 1 .1.4zm14.9-8.8a.91.91 0 0 1 -.3.7l-8.8 8.8a1 1 0 0 1 -1.7-.7v-4.6h-7.2a1 1 0 0 1 -1-1v-6.2a1 1 0 0 1 1-1h7.2v-4.8a1 1 0 0 1 1.7-.7l8.8 8.8a.91.91 0 0 1 .3.7z" fill="#aa3535"/></svg>