<svg viewBox="0 0 32 32" xmlns="http://www.w3.org/2000/svg"><path d="m26.5 9.9a11.84 11.84 0 0 1 1.6 6.1 11.84 11.84 0 0 1 -1.6 6.1 12.37 12.37 0 0 1 -4.4 4.4 11.84 11.84 0 0 1 -6.1 1.6 11.84 11.84 0 0 1 -6.1-1.6 12.37 12.37 0 0 1 -4.4-4.4 11.84 11.84 0 0 1 -1.6-6.1 11.84 11.84 0 0 1 1.6-6.1 12.37 12.37 0 0 1 4.4-4.4 11.84 11.84 0 0 1 6.1-1.6 11.84 11.84 0 0 1 6.1 1.6 13.22 13.22 0 0 1 4.4 4.4zm-4.5 9.7a.91.91 0 0 0 -.3-.7l-2.8-2.9 2.9-2.9a1 1 0 0 0 0-1.4l-1.4-1.4a1 1 0 0 0 -1.4 0l-3 2.8-2.9-2.9a1 1 0 0 0 -1.4 0l-1.4 1.4a1 1 0 0 0 0 1.4l2.9 2.9-2.9 2.9a1 1 0 0 0 0 1.4l1.4 1.4a1 1 0 0 0 1.4 0l2.9-2.9 2.9 2.9a1 1 0 0 0 1.4 0l1.4-1.4a.71.71 0 0 0 .3-.6z" fill="#aa3535"/></svg>