<svg viewBox="0 0 32 32" xmlns="http://www.w3.org/2000/svg" xmlns:xlink="http://www.w3.org/1999/xlink"><filter id="a" color-interpolation-filters="sRGB" filterUnits="userSpaceOnUse" height="28.6" width="29.1" x="2" y="2.2"><feFlood flood-color="#fff" result="bg"/><feBlend in="SourceGraphic" in2="bg"/></filter><mask id="b" height="28.6" maskUnits="userSpaceOnUse" width="29.1" x="2" y="2.2"><path d="m27 14a1.09 1.09 0 0 1 .9.4l1.8 1.8a1.27 1.27 0 0 1 .4.9 1.09 1.09 0 0 1 -.4.9l-3.9 4 3.9 3.9a.91.91 0 0 1 .4.8 1.09 1.09 0 0 1 -.4.9l-1.8 1.8a1.27 1.27 0 0 1 -.9.4 1.09 1.09 0 0 1 -.9-.4l-3.9-4-3.9 3.9a1.27 1.27 0 0 1 -.9.4 1.09 1.09 0 0 1 -.9-.4l-1.8-1.8a1.27 1.27 0 0 1 -.4-.9 1.09 1.09 0 0 1 .4-.9l3.9-3.9-4-3.8a1.21 1.21 0 0 1 0-1.8l1.9-1.8a1.27 1.27 0 0 1 .9-.4 1.09 1.09 0 0 1 .9.4l3.9 3.9 3.9-3.9a1.27 1.27 0 0 1 .9-.4m0-1a2.27 2.27 0 0 0 -1.61.69l-3.19 3.2-3.2-3.2a2.09 2.09 0 0 0 -1.6-.69 2.27 2.27 0 0 0 -1.61.69l-1.88 1.78a2.11 2.11 0 0 0 -.71 1.63 2.06 2.06 0 0 0 .8 1.67l3.21 3.05-3.21 3.18a2.09 2.09 0 0 0 -.69 1.61 2.27 2.27 0 0 0 .69 1.6l1.8 1.8a2.09 2.09 0 0 0 1.61.69 2.27 2.27 0 0 0 1.59-.7l3.18-3.19 3.19 3.28a2.1 2.1 0 0 0 1.62.7 2.27 2.27 0 0 0 1.61-.69l1.8-1.8a2.09 2.09 0 0 0 .69-1.61 1.93 1.93 0 0 0 -.75-1.57l-3.13-3.12 3.21-3.29a2.08 2.08 0 0 0 .68-1.6 2.27 2.27 0 0 0 -.69-1.61l-1.8-1.8a2.09 2.09 0 0 0 -1.61-.7z" filter="url(#a)"/></mask><g mask="url(#b)"><path d="m30.1 26.7a1.09 1.09 0 0 1 -.4.9l-1.8 1.8a1.27 1.27 0 0 1 -.9.4 1.09 1.09 0 0 1 -.9-.4l-3.9-4-3.9 3.9a1.27 1.27 0 0 1 -.9.4 1.09 1.09 0 0 1 -.9-.4l-1.8-1.8a1.27 1.27 0 0 1 -.4-.9 1.09 1.09 0 0 1 .4-.9l3.9-3.9-4-3.8a1.21 1.21 0 0 1 0-1.8l1.9-1.8a1.27 1.27 0 0 1 .9-.4 1.09 1.09 0 0 1 .9.4l3.9 3.9 3.9-3.9a1.27 1.27 0 0 1 .9-.4 1.09 1.09 0 0 1 .9.4l1.8 1.8a1.27 1.27 0 0 1 .4.9 1.09 1.09 0 0 1 -.4.9l-3.9 4 3.9 3.9a.91.91 0 0 1 .4.8z" fill="#aa3535"/><g fill="#2485ce"><path d="m9.3 12a4.1 4.1 0 0 0 5.8 0 4.1 4.1 0 0 0 0-5.8 4.1 4.1 0 0 0 -5.8 0 3.63 3.63 0 0 0 -1.2 2.8 4.07 4.07 0 0 0 1.2 3zm9.1-4.3a2.56 2.56 0 0 0 1.9-.8 2.73 2.73 0 0 0 .8-1.9 2.56 2.56 0 0 0 -.8-1.9 2.73 2.73 0 0 0 -1.9-.8 2.56 2.56 0 0 0 -1.9.8 2.73 2.73 0 0 0 -.8 1.9 2.56 2.56 0 0 0 .8 1.9 2.73 2.73 0 0 0 1.9.8zm1.3.7a3 3 0 0 1 -1.3.2 5.9 5.9 0 0 1 -1.4-.2c0 .3.1.5.1.7a4.9 4.9 0 0 1 -.9 2.8 3.37 3.37 0 0 1 2.8 1.4h1.4a2.41 2.41 0 0 0 1.5-.4 1.49 1.49 0 0 0 .6-1.3c0-2.5-.4-3.8-1.3-3.8a4.2 4.2 0 0 1 -.5.2 3.38 3.38 0 0 0 -1 .4zm-13.6-.7a2.56 2.56 0 0 0 1.9-.8 2.73 2.73 0 0 0 .8-1.9 2.79 2.79 0 0 0 -.8-2 2.36 2.36 0 0 0 -1.9-.8 2.44 2.44 0 0 0 -2 .8 2.73 2.73 0 0 0 -.8 1.9 2.56 2.56 0 0 0 .8 1.9 2.52 2.52 0 0 0 2 .9z"/><path d="m17.6 21.4-3.2-3.2a1.29 1.29 0 0 1 -.5-1.1 1.67 1.67 0 0 1 .4-1.1l1.9-1.8a1.37 1.37 0 0 1 1.1-.4 1.67 1.67 0 0 1 1.1.4l.8.8a2 2 0 0 0 -.4-.8 5.5 5.5 0 0 0 -.7-.9l-.9-.6a5 5 0 0 0 -1.2-.2c-.1 0-.2.1-.5.2a5.58 5.58 0 0 1 -.8.5 3.7 3.7 0 0 1 -1.1.5 3.89 3.89 0 0 1 -1.5.2 5.9 5.9 0 0 1 -1.4-.2 3.83 3.83 0 0 1 -1.1-.5 3.51 3.51 0 0 0 -.8-.5.65.65 0 0 0 -.5-.2 5 5 0 0 0 -1.2.2 1.46 1.46 0 0 0 -.9.6 2.18 2.18 0 0 0 -.7.9c-.2.3-.3.7-.5 1s-.2.7-.3 1.2-.1.8-.2 1.2v1.1a2.63 2.63 0 0 0 .8 2 2.82 2.82 0 0 0 2.1.7zm-9.3-9.6a4.68 4.68 0 0 1 -.9-2.8 2 2 0 0 1 .1-.7 3.93 3.93 0 0 1 -1.4.3 6.88 6.88 0 0 1 -1.3-.2c-.5-.2-.8-.4-1.1-.5a.62.62 0 0 0 -.4-.2c-.9 0-1.3 1.3-1.3 3.8a1.49 1.49 0 0 0 .6 1.3 2.59 2.59 0 0 0 1.4.4h1.4a3.7 3.7 0 0 1 2.9-1.4z"/></g></g></svg>