<svg viewBox="0 0 32 32" xmlns="http://www.w3.org/2000/svg" xmlns:xlink="http://www.w3.org/1999/xlink"><filter id="a" color-interpolation-filters="sRGB" filterUnits="userSpaceOnUse" height="26.3" width="27.1" x="4.5" y="5"><feFlood flood-color="#fff" result="bg"/><feBlend in="SourceGraphic" in2="bg"/></filter><mask id="b" height="26.3" maskUnits="userSpaceOnUse" width="27.1" x="4.5" y="5"><path d="m27 14a1.09 1.09 0 0 1 .9.4l1.8 1.8a1.27 1.27 0 0 1 .4.9 1.09 1.09 0 0 1 -.4.9l-3.9 4 3.9 3.9a.91.91 0 0 1 .4.8 1.09 1.09 0 0 1 -.4.9l-1.8 1.8a1.27 1.27 0 0 1 -.9.4 1.09 1.09 0 0 1 -.9-.4l-3.9-4-3.9 3.9a1.27 1.27 0 0 1 -.9.4 1.09 1.09 0 0 1 -.9-.4l-1.8-1.8a1.27 1.27 0 0 1 -.4-.9 1.09 1.09 0 0 1 .4-.9l3.9-3.9-4-3.8a1.21 1.21 0 0 1 0-1.8l1.9-1.8a1.27 1.27 0 0 1 .9-.4 1.09 1.09 0 0 1 .9.4l3.9 3.9 3.9-3.9a1.27 1.27 0 0 1 .9-.4m0-1.5a2.78 2.78 0 0 0 -2 .84l-2.8 2.84-2.84-2.84a2.56 2.56 0 0 0 -2-.84 2.78 2.78 0 0 0 -2 .84l-1.87 1.77a2.72 2.72 0 0 0 .06 4l2.82 2.68-2.81 2.81a2.56 2.56 0 0 0 -.84 2 2.78 2.78 0 0 0 .84 2l1.8 1.8a2.56 2.56 0 0 0 2 .84 2.78 2.78 0 0 0 2-.84l2.83-2.83 2.81 2.88a2.57 2.57 0 0 0 2 .85 2.78 2.78 0 0 0 2-.84l1.8-1.8a2.56 2.56 0 0 0 .84-2 2.4 2.4 0 0 0 -.92-1.94l-2.81-2.72 2.86-2.94a2.55 2.55 0 0 0 .83-1.95 2.78 2.78 0 0 0 -.84-2l-1.76-1.77a2.56 2.56 0 0 0 -2-.84z" filter="url(#a)"/></mask><filter id="c" color-interpolation-filters="sRGB" filterUnits="userSpaceOnUse" height="20.7" width="20.5" x="2" y="2.2"><feFlood flood-color="#fff" result="bg"/><feBlend in="SourceGraphic" in2="bg"/></filter><mask id="d" height="20.7" maskUnits="userSpaceOnUse" width="20.5" x="2" y="2.2"><g filter="url(#c)"><path d="m16 12.5a5 5 0 0 1 1.2.2l.9.6a5.5 5.5 0 0 1 .7.9 2 2 0 0 1 .4.8l-.8-.8a1.67 1.67 0 0 0 -1.1-.4 1.37 1.37 0 0 0 -1.1.4l-1.9 1.8a1.67 1.67 0 0 0 -.4 1.1 1.29 1.29 0 0 0 .5 1.1l3.2 3.2h-10.2a2.82 2.82 0 0 1 -2.1-.7 2.63 2.63 0 0 1 -.8-2v-1.1c.1-.4.1-.8.2-1.2s.2-.8.3-1.2.3-.7.5-1a2.18 2.18 0 0 1 .7-.9 1.46 1.46 0 0 1 .9-.6 5 5 0 0 1 1.2-.2.65.65 0 0 1 .5.2 3.51 3.51 0 0 1 .8.5 3.83 3.83 0 0 0 1.1.5 5.9 5.9 0 0 0 1.4.2 3.89 3.89 0 0 0 1.5-.2 3.7 3.7 0 0 0 1.1-.5 5.58 5.58 0 0 0 .8-.5c.3-.1.4-.2.5-.2m0-1.5a1.92 1.92 0 0 0 -.85.22l-.12.06a1.33 1.33 0 0 0 -.55.32l-.14.08a4.66 4.66 0 0 0 -.47.27 1.86 1.86 0 0 1 -.63.29l-.2.07a2.78 2.78 0 0 1 -.94.09 4.17 4.17 0 0 1 -.95-.13l-.31-.12-.29-.15h-.12a1.4 1.4 0 0 1 -.18-.13 3.55 3.55 0 0 0 -.67-.42 2.12 2.12 0 0 0 -1.28-.45 6.39 6.39 0 0 0 -1.56.24 3 3 0 0 0 -1.61 1 3.77 3.77 0 0 0 -.93 1.23 4 4 0 0 0 -.33.65 2.27 2.27 0 0 1 -.12.26 1.65 1.65 0 0 0 -.21.47l-.09.34c-.07.27-.14.54-.21.89a6.46 6.46 0 0 0 -.13.74 3.51 3.51 0 0 1 -.07.43 2.2 2.2 0 0 0 0 .36v1.1a4.12 4.12 0 0 0 1.24 3.06 4.23 4.23 0 0 0 3.12 1.13h10.2a1.51 1.51 0 0 0 1.4-.9 1.5 1.5 0 0 0 -.33-1.63l-3.2-3.2-.06-.06v-.06l1.78-1.69h.13.08l.71.71a1.49 1.49 0 0 0 1.06.44 1.52 1.52 0 0 0 .79-.22 1.5 1.5 0 0 0 .63-1.75 3.53 3.53 0 0 0 -.59-1.27 7.19 7.19 0 0 0 -.83-1 2.11 2.11 0 0 0 -.23-.19l-.9-.6a1.82 1.82 0 0 0 -.47-.21 6.47 6.47 0 0 0 -1.57-.27z"/><path d="m12.2 14a4.76 4.76 0 0 1 -3.43-1.42 4.82 4.82 0 0 1 -1.42-3.58 4.37 4.37 0 0 1 1.46-3.36 4.7 4.7 0 0 1 3.39-1.39 4.85 4.85 0 0 1 4.85 4.85 4.85 4.85 0 0 1 -4.85 4.9z" fill="#fff"/><path d="m12.2 5a4.1 4.1 0 0 1 4.1 4.1 4.1 4.1 0 0 1 -4.1 4.1 4 4 0 0 1 -2.9-1.2 4.07 4.07 0 0 1 -1.2-3 3.63 3.63 0 0 1 1.2-2.8 4 4 0 0 1 2.9-1.2m0-1.5a5.5 5.5 0 0 0 -3.93 1.6 5.14 5.14 0 0 0 -1.67 3.9 5.6 5.6 0 0 0 9.56 4.06 5.6 5.6 0 0 0 0-7.92 5.49 5.49 0 0 0 -4-1.64z"/></g></mask><g fill="#fff" mask="url(#b)"><g mask="url(#d)"><path d="m18.4 7.7a2.56 2.56 0 0 0 1.9-.8 2.73 2.73 0 0 0 .8-1.9 2.56 2.56 0 0 0 -.8-1.9 2.73 2.73 0 0 0 -1.9-.8 2.56 2.56 0 0 0 -1.9.8 2.73 2.73 0 0 0 -.8 1.9 2.56 2.56 0 0 0 .8 1.9 2.73 2.73 0 0 0 1.9.8zm1.3.7a3 3 0 0 1 -1.3.2 5.9 5.9 0 0 1 -1.4-.2c0 .3.1.5.1.7a4.9 4.9 0 0 1 -.9 2.8 3.37 3.37 0 0 1 2.8 1.4h1.4a2.41 2.41 0 0 0 1.5-.4 1.49 1.49 0 0 0 .6-1.3c0-2.5-.4-3.8-1.3-3.8a4.2 4.2 0 0 1 -.5.2 3.38 3.38 0 0 0 -1 .4zm-13.6-.7a2.56 2.56 0 0 0 1.9-.8 2.73 2.73 0 0 0 .8-1.9 2.79 2.79 0 0 0 -.8-2 2.36 2.36 0 0 0 -1.9-.8 2.44 2.44 0 0 0 -2 .8 2.73 2.73 0 0 0 -.8 1.9 2.56 2.56 0 0 0 .8 1.9 2.52 2.52 0 0 0 2 .9z"/><path d="m8.3 11.8a4.68 4.68 0 0 1 -.9-2.8 2 2 0 0 1 .1-.7 3.93 3.93 0 0 1 -1.4.3 6.88 6.88 0 0 1 -1.3-.2c-.5-.2-.8-.4-1.1-.5a.62.62 0 0 0 -.4-.2c-.9 0-1.3 1.3-1.3 3.8a1.49 1.49 0 0 0 .6 1.3 2.59 2.59 0 0 0 1.4.4h1.4a3.7 3.7 0 0 1 2.9-1.4z"/></g><path d="m9.3 12a4.1 4.1 0 0 0 5.8 0 4.1 4.1 0 0 0 0-5.8 4.1 4.1 0 0 0 -5.8 0 3.63 3.63 0 0 0 -1.2 2.8 4.07 4.07 0 0 0 1.2 3z"/><path d="m17.6 21.4-3.2-3.2a1.29 1.29 0 0 1 -.5-1.1 1.67 1.67 0 0 1 .4-1.1l1.9-1.8a1.37 1.37 0 0 1 1.1-.4 1.67 1.67 0 0 1 1.1.4l.8.8a2 2 0 0 0 -.4-.8 5.5 5.5 0 0 0 -.7-.9l-.9-.6a5 5 0 0 0 -1.2-.2c-.1 0-.2.1-.5.2a5.58 5.58 0 0 1 -.8.5 3.7 3.7 0 0 1 -1.1.5 3.89 3.89 0 0 1 -1.5.2 5.9 5.9 0 0 1 -1.4-.2 3.83 3.83 0 0 1 -1.1-.5 3.51 3.51 0 0 0 -.8-.5.65.65 0 0 0 -.5-.2 5 5 0 0 0 -1.2.2 1.46 1.46 0 0 0 -.9.6 2.18 2.18 0 0 0 -.7.9c-.2.3-.3.7-.5 1s-.2.7-.3 1.2-.1.8-.2 1.2v1.1a2.63 2.63 0 0 0 .8 2 2.82 2.82 0 0 0 2.1.7z"/></g><path d="m30.1 26.7a1.09 1.09 0 0 1 -.4.9l-1.8 1.8a1.27 1.27 0 0 1 -.9.4 1.09 1.09 0 0 1 -.9-.4l-3.9-4-3.9 3.9a1.27 1.27 0 0 1 -.9.4 1.09 1.09 0 0 1 -.9-.4l-1.8-1.8a1.27 1.27 0 0 1 -.4-.9 1.09 1.09 0 0 1 .4-.9l3.9-3.9-4-3.8a1.21 1.21 0 0 1 0-1.8l1.9-1.8a1.27 1.27 0 0 1 .9-.4 1.09 1.09 0 0 1 .9.4l3.9 3.9 3.9-3.9a1.27 1.27 0 0 1 .9-.4 1.09 1.09 0 0 1 .9.4l1.8 1.8a1.27 1.27 0 0 1 .4.9 1.09 1.09 0 0 1 -.4.9l-3.9 4 3.9 3.9a.91.91 0 0 1 .4.8z" fill="#db4242"/></svg>