<svg id="Layer_1" data-name="Layer 1" xmlns="http://www.w3.org/2000/svg" viewBox="0 0 32 32"><defs><style>.cls-1{fill:#5db634;}</style></defs><path class="cls-1" d="M26,18.1c0,.1-.1.1,0,0A10.59,10.59,0,0,1,22.4,24,9.76,9.76,0,0,1,16,26.2a9.86,9.86,0,0,1-3.8-.7,11.55,11.55,0,0,1-3.3-2.1L7.2,25.1a.86.86,0,0,1-.6.3.86.86,0,0,1-.6-.3.86.86,0,0,1-.3-.6v-6a.86.86,0,0,1,.3-.6.86.86,0,0,1,.6-.3h6a.85.85,0,0,1,.6,1.5L11.3,21a8.26,8.26,0,0,0,2.2,1.4,7,7,0,0,0,2.5.5,6.29,6.29,0,0,0,3.3-.9,7.18,7.18,0,0,0,2.5-2.4c.1-.2.3-.7.7-1.6.1-.2.2-.3.4-.3h2.6a.37.37,0,0,1,.3.1C25.9,17.9,26,18,26,18.1Zm.3-10.7v6a1.06,1.06,0,0,1-.9.9h-6a.85.85,0,0,1-.6-1.5L20.6,11a6.74,6.74,0,0,0-4.7-1.8,6.29,6.29,0,0,0-3.3.9,7.18,7.18,0,0,0-2.5,2.4c-.1.2-.3.7-.7,1.6-.1.2-.2.3-.4.3H6.4a.37.37,0,0,1-.3-.1.76.76,0,0,1-.1-.4v-.1A10.67,10.67,0,0,1,9.6,8,9.76,9.76,0,0,1,16,5.8a9.86,9.86,0,0,1,3.8.7,11.55,11.55,0,0,1,3.3,2.1l1.7-1.7a.75.75,0,0,1,1.2,0A.55.55,0,0,1,26.3,7.4Z"/></svg>