<svg viewBox="0 0 32 32" xmlns="http://www.w3.org/2000/svg"><path d="m26 18.1c0 .1-.1.1 0 0a10.59 10.59 0 0 1 -3.6 5.9 9.76 9.76 0 0 1 -6.4 2.2 9.86 9.86 0 0 1 -3.8-.7 11.55 11.55 0 0 1 -3.3-2.1l-1.7 1.7a.86.86 0 0 1 -.6.3.86.86 0 0 1 -.6-.3.86.86 0 0 1 -.3-.6v-6a.86.86 0 0 1 .3-.6.86.86 0 0 1 .6-.3h6a.85.85 0 0 1 .6 1.5l-1.9 1.9a8.26 8.26 0 0 0 2.2 1.4 7 7 0 0 0 2.5.5 6.29 6.29 0 0 0 3.3-.9 7.18 7.18 0 0 0 2.5-2.4c.1-.2.3-.7.7-1.6.1-.2.2-.3.4-.3h2.6a.37.37 0 0 1 .3.1c.1.1.2.2.2.3zm.3-10.7v6a1.06 1.06 0 0 1 -.9.9h-6a.85.85 0 0 1 -.6-1.5l1.8-1.8a6.74 6.74 0 0 0 -4.7-1.8 6.29 6.29 0 0 0 -3.3.9 7.18 7.18 0 0 0 -2.5 2.4c-.1.2-.3.7-.7 1.6-.1.2-.2.3-.4.3h-2.6a.37.37 0 0 1 -.3-.1.76.76 0 0 1 -.1-.4v-.1a10.67 10.67 0 0 1 3.6-5.8 9.76 9.76 0 0 1 6.4-2.2 9.86 9.86 0 0 1 3.8.7 11.55 11.55 0 0 1 3.3 2.1l1.7-1.7a.75.75 0 0 1 1.2 0 .55.55 0 0 1 .3.5z" fill="#5db634"/></svg>