<svg viewBox="0 0 32 32" xmlns="http://www.w3.org/2000/svg"><path d="m28 8.7v14.6a2.05 2.05 0 0 1 -2.1 2.1h-19.8a2.05 2.05 0 0 1 -2.1-2.1v-14.6a2 2 0 0 1 .6-1.5 2.2 2.2 0 0 1 1.5-.6h19.7a2 2 0 0 1 1.5.6 1.8 1.8 0 0 1 .7 1.5zm-1.7 14.6v-11.2a.35.35 0 0 0 -.4-.4h-19.8a.35.35 0 0 0 -.4.4v11.1a.35.35 0 0 0 .4.4h19.7a.37.37 0 0 0 .3-.1.22.22 0 0 0 .2-.2zm-17.2-9.4v.9a.35.35 0 0 1 -.4.4h-.8a.35.35 0 0 1 -.4-.4v-.9a.35.35 0 0 1 .4-.4h.9a.37.37 0 0 1 .3.1c.1.1 0 .1 0 .3zm0 3.4v.9a.35.35 0 0 1 -.4.4h-.8a.35.35 0 0 1 -.4-.4v-.9a.35.35 0 0 1 .4-.4h.9a.37.37 0 0 1 .3.1zm0 3.4v.9a.35.35 0 0 1 -.4.4h-.8a.35.35 0 0 1 -.4-.4v-.9a.35.35 0 0 1 .4-.4h.9a.37.37 0 0 1 .3.1c.1.1 0 .2 0 .3zm15.5-6.8v.9a.35.35 0 0 1 -.4.4h-12.9a.35.35 0 0 1 -.4-.4v-.9a.35.35 0 0 1 .4-.4h12.9a.37.37 0 0 1 .3.1.44.44 0 0 1 .1.3zm0 3.4v.9a.35.35 0 0 1 -.4.4h-12.9a.35.35 0 0 1 -.4-.4v-.9a.35.35 0 0 1 .4-.4h12.9a.37.37 0 0 1 .3.1c0 .1.1.2.1.3zm0 3.4v.9a.37.37 0 0 1 -.1.3c-.1.1-.2.1-.4.1h-12.8a.35.35 0 0 1 -.4-.4v-.9a.35.35 0 0 1 .4-.4h12.9a.37.37 0 0 1 .3.1c0 .1.1.2.1.3z" fill="#2485ce"/></svg>